<svg width="20" height="20" viewBox="0 0 20 20" fill="none"
    xmlns="http://www.w3.org/2000/svg">
    <g clip-path="url(#clip0_532_2303)">
        <path d="M18.6333 2.66669H1.43334C0.633351 2.66669 0 3.3 0 4.06667V5.33333V8.66664V15.9333C0 16.7 0.633351 17.3333 1.43334 17.3333H18.6C19.4 17.3333 20 16.6999 20 15.9333V8.66664V5.33333V4.06667C20 3.3 19.4 2.66669 18.6333 2.66669ZM0.666671 6H19.3333V8.00001H0.666671V6ZM19.3666 15.9333C19.3666 16.3333 19.0333 16.6667 18.6333 16.6667H1.43334C1.00003 16.6667 0.666671 16.3334 0.666671 15.9333V8.66664H19.3666V15.9333ZM0.666671 5.33333V4.06667C0.666671 3.66667 0.999986 3.33332 1.43334 3.33332H18.6C19.0333 3.33332 19.3333 3.66663 19.3666 4.06667V5.33333H0.666671Z" fill="#000000"/>
        <path d="M5.00138 14.9998C5.94223 14.9998 6.74309 14.4584 7.11398 13.6665H11.0014V14.9998C11.0014 15.1998 11.1347 15.3332 11.3347 15.3332C11.5347 15.3332 11.668 15.1998 11.668 14.9998V13.6665H12.3347V14.3332C12.3347 14.5332 12.468 14.6665 12.668 14.6665C12.868 14.6665 13.0013 14.5332 13.0013 14.3332V13.6665H13.3346C13.9013 13.6665 14.3346 13.2332 14.3346 12.6665C14.3346 12.0998 13.9013 11.6665 13.3346 11.6665H7.1139C6.74305 10.8746 5.94219 10.3332 5.0013 10.3332C3.70131 10.3332 2.66797 11.3665 2.66797 12.6665C2.66797 13.9665 3.70135 14.9998 5.00138 14.9998ZM13.3347 12.3332C13.5347 12.3332 13.668 12.4665 13.668 12.6665C13.668 12.8665 13.5347 12.9998 13.3347 12.9998H7.31115C7.31572 12.967 7.31997 12.9341 7.32323 12.9008C7.33442 12.8215 7.3347 12.736 7.3347 12.6664C7.3347 12.5531 7.32636 12.4419 7.31115 12.3331H13.3347V12.3332ZM5.00138 10.9999C5.93472 10.9999 6.66803 11.7332 6.66803 12.6665C6.66803 13.5998 5.93468 14.3332 5.00138 14.3332C4.06803 14.3332 3.33472 13.5998 3.33472 12.6665C3.33472 11.7332 4.06803 10.9999 5.00138 10.9999Z" fill="#000000"/>
        <path d="M15.768 14.5667C15.8347 14.6333 15.9013 14.6667 16.0013 14.6667C16.1013 14.6667 16.168 14.6333 16.2346 14.5667L17.9013 12.9C18.0346 12.7667 18.0346 12.5667 17.9013 12.4333L16.2346 10.7667C16.1013 10.6334 15.9013 10.6334 15.768 10.7667C15.6346 10.9 15.6346 11.1 15.768 11.2333L17.2013 12.6667L15.768 14.1C15.6346 14.2333 15.6346 14.4333 15.768 14.5667Z" fill="#000000"/>
    </g>
    <defs>
        <clipPath id="clip0_532_2303">
            <rect width="20" height="20" fill="white"/>
        </clipPath>
    </defs>
</svg>
