<svg width="43" height="52" viewBox="0 0 43 52" fill="none" xmlns="http://www.w3.org/2000/svg">
<g filter="url(#filter0_f_428_4860)">
<ellipse cx="15.4138" cy="47.7727" rx="12.4138" ry="0.772727" fill="#0C74C2" fill-opacity="0.3"/>
</g>
<path d="M34.25 28.75H34.2238C33.9566 28.7442 33.6984 28.6529 33.4869 28.4896C33.2755 28.3263 33.1219 28.0995 33.0487 27.8425L29.0875 13.9875L26.6687 20.4375C26.5797 20.6758 26.4202 20.8812 26.2113 21.0264C26.0025 21.1715 25.7543 21.2496 25.5 21.25H20.5V18.75H24.6337L28.08 9.56125C28.1723 9.31488 28.3399 9.1039 28.5591 8.95836C28.7782 8.81282 29.0377 8.74013 29.3006 8.75066C29.5635 8.76119 29.8163 8.85438 30.0232 9.01698C30.23 9.17958 30.3802 9.40329 30.4525 9.65625L34.3412 23.2713L36.815 15.855C36.8979 15.6062 37.0569 15.3898 37.2696 15.2363C37.4822 15.0829 37.7378 15.0002 38 15H43V17.5H38.9L35.435 27.895C35.3521 28.1438 35.1931 28.3602 34.9804 28.5137C34.7678 28.6671 34.5122 28.7498 34.25 28.75ZM21.75 37.5H19.25V28.75C19.249 27.7557 18.8536 26.8025 18.1506 26.0994C17.4475 25.3964 16.4943 25.001 15.5 25H10.5C9.50574 25.001 8.55249 25.3964 7.84945 26.0994C7.1464 26.8025 6.75099 27.7557 6.75 28.75V37.5H4.25V28.75C4.25198 27.093 4.9111 25.5044 6.08277 24.3328C7.25445 23.1611 8.84301 22.502 10.5 22.5H15.5C17.157 22.502 18.7456 23.1611 19.9172 24.3328C21.0889 25.5044 21.748 27.093 21.75 28.75V37.5ZM13 10C13.7417 10 14.4667 10.2199 15.0834 10.632C15.7001 11.044 16.1807 11.6297 16.4645 12.3149C16.7484 13.0002 16.8226 13.7542 16.6779 14.4816C16.5333 15.209 16.1761 15.8772 15.6517 16.4017C15.1272 16.9261 14.459 17.2833 13.7316 17.4279C13.0042 17.5726 12.2502 17.4984 11.5649 17.2145C10.8797 16.9307 10.294 16.4501 9.88199 15.8334C9.46993 15.2167 9.25 14.4917 9.25 13.75C9.25 12.7554 9.64509 11.8016 10.3483 11.0983C11.0516 10.3951 12.0054 10 13 10ZM13 7.5C11.7639 7.5 10.5555 7.86656 9.52769 8.55331C8.49988 9.24007 7.6988 10.2162 7.22575 11.3582C6.75271 12.5003 6.62893 13.7569 6.87009 14.9693C7.11125 16.1817 7.7065 17.2953 8.58058 18.1694C9.45466 19.0435 10.5683 19.6388 11.7807 19.8799C12.9931 20.1211 14.2497 19.9973 15.3918 19.5242C16.5338 19.0512 17.5099 18.2501 18.1967 17.2223C18.8834 16.1945 19.25 14.9861 19.25 13.75C19.25 12.0924 18.5915 10.5027 17.4194 9.33058C16.2473 8.15848 14.6576 7.5 13 7.5Z" fill="#0C74C2"/>
<defs>
<filter id="filter0_f_428_4860" x="0" y="44" width="30.8281" height="7.54492" filterUnits="userSpaceOnUse" color-interpolation-filters="sRGB">
<feFlood flood-opacity="0" result="BackgroundImageFix"/>
<feBlend mode="normal" in="SourceGraphic" in2="BackgroundImageFix" result="shape"/>
<feGaussianBlur stdDeviation="1.5" result="effect1_foregroundBlur_428_4860"/>
</filter>
</defs>
</svg>
