<svg width="24" height="24" viewBox="0 0 24 24" fill="none" xmlns="http://www.w3.org/2000/svg">
<path d="M10 22H16C21 22 23 20 23 15V9C23 4 21 2 16 2H10C5 2 3 4 3 9V15C3 20 5 22 10 22Z" stroke="#9197B3" stroke-width="1.3" stroke-linecap="round" stroke-linejoin="round"/>
<path d="M19.3801 15.2702V7.58023C19.3801 6.81023 18.7601 6.25024 18.0001 6.31024H17.9601C16.6201 6.42024 14.5901 7.11025 13.4501 7.82025L13.3401 7.89026C13.1601 8.00026 12.8501 8.00026 12.6601 7.89026L12.5001 7.79025C11.3701 7.08025 9.34012 6.41023 8.00012 6.30023C7.24012 6.24023 6.62012 6.81025 6.62012 7.57025V15.2702C6.62012 15.8802 7.1201 16.4602 7.7301 16.5302L7.9101 16.5602C9.2901 16.7402 11.4301 17.4502 12.6501 18.1202L12.6801 18.1302C12.8501 18.2302 13.1301 18.2302 13.2901 18.1302C14.5101 17.4502 16.6601 16.7502 18.0501 16.5602L18.2601 16.5302C18.8801 16.4602 19.3801 15.8902 19.3801 15.2702Z" stroke="#9197B3" stroke-width="1.3" stroke-linecap="round" stroke-linejoin="round"/>
<path d="M13 8.1001V17.6601" stroke="#9197B3" stroke-width="1.3" stroke-linecap="round" stroke-linejoin="round"/>
</svg>
