<svg width="36" height="36" viewBox="0 0 36 36" fill="none" xmlns="http://www.w3.org/2000/svg">
<path d="M7.5 10.5H9C9.79565 10.5 10.5587 10.1839 11.1213 9.62132C11.6839 9.05871 12 8.29565 12 7.5C12 7.10218 12.158 6.72064 12.4393 6.43934C12.7206 6.15804 13.1022 6 13.5 6H22.5C22.8978 6 23.2794 6.15804 23.5607 6.43934C23.842 6.72064 24 7.10218 24 7.5C24 8.29565 24.3161 9.05871 24.8787 9.62132C25.4413 10.1839 26.2044 10.5 27 10.5H28.5C29.2956 10.5 30.0587 10.8161 30.6213 11.3787C31.1839 11.9413 31.5 12.7044 31.5 13.5V27C31.5 27.7956 31.1839 28.5587 30.6213 29.1213C30.0587 29.6839 29.2956 30 28.5 30H7.5C6.70435 30 5.94129 29.6839 5.37868 29.1213C4.81607 28.5587 4.5 27.7956 4.5 27V13.5C4.5 12.7044 4.81607 11.9413 5.37868 11.3787C5.94129 10.8161 6.70435 10.5 7.5 10.5Z" stroke="#0C74C2" stroke-width="2" stroke-linecap="round" stroke-linejoin="round"/>
<path d="M14.25 22.5C14.7388 22.9989 15.3223 23.3952 15.9662 23.6658C16.6101 23.9364 17.3015 24.0758 18 24.0758C18.6985 24.0758 19.3899 23.9364 20.0338 23.6658C20.6777 23.3952 21.2612 22.9989 21.75 22.5M22.5 16.5H22.515M13.5 16.5H13.515" stroke="#0C74C2" stroke-width="2" stroke-linecap="round" stroke-linejoin="round"/>
</svg>
