<svg width="20" height="20" viewBox="0 0 20 20" fill="none" xmlns="http://www.w3.org/2000/svg">
<path d="M17.5569 4.1665C18.0501 4.96488 18.3346 5.90487 18.3346 6.91104C18.3346 9.8075 15.977 12.1556 13.0686 12.1556C12.5379 12.1556 11.3296 12.0336 10.7417 11.5458L10.0069 12.2776C9.39463 12.8873 9.88447 12.8873 10.1294 13.3753C10.1294 13.3753 10.7417 14.229 10.1294 15.0828C9.76197 15.5706 8.73322 16.2536 7.55759 15.0828L7.31265 15.3267C7.31265 15.3267 8.04745 16.1804 7.43512 17.0342C7.06772 17.5221 6.08799 18.0099 5.23073 17.1562C5.18991 17.1968 4.9613 17.4245 4.37347 18.0099C3.78563 18.5953 3.06718 18.2538 2.78144 18.0099L2.04664 17.2781C1.36083 16.5951 1.76089 15.8552 2.04664 15.5706L8.41489 9.22842C8.41489 9.22842 7.80255 8.25265 7.80255 6.91104C7.80255 4.01456 10.1602 1.6665 13.0686 1.6665C13.7509 1.6665 14.403 1.79575 15.0013 2.03099" stroke="#000000" stroke-linecap="round" stroke-linejoin="round"/>
<path d="M14.9045 6.91128C14.9045 7.92168 14.0821 8.74075 13.0675 8.74075C12.053 8.74075 11.2305 7.92168 11.2305 6.91128C11.2305 5.90088 12.053 5.08178 13.0675 5.08178C14.0821 5.08178 14.9045 5.90088 14.9045 6.91128Z" stroke="#000000"/>
</svg>
