<svg width="16" height="16" viewBox="0 0 16 16" fill="none" xmlns="http://www.w3.org/2000/svg">
<path d="M8.00065 13.334C9.41514 13.334 10.7717 12.7721 11.7719 11.7719C12.7721 10.7717 13.334 9.41514 13.334 8.00065C13.334 6.58616 12.7721 5.22961 11.7719 4.22941C10.7717 3.22922 9.41514 2.66732 8.00065 2.66732C6.58616 2.66732 5.22961 3.22922 4.22941 4.22941C3.22922 5.22961 2.66732 6.58616 2.66732 8.00065C2.66732 9.41514 3.22922 10.7717 4.22941 11.7719C5.22961 12.7721 6.58616 13.334 8.00065 13.334ZM8.00065 1.33398C8.87613 1.33398 9.74304 1.50642 10.5519 1.84145C11.3607 2.17649 12.0956 2.66755 12.7147 3.28661C13.3338 3.90566 13.8248 4.64059 14.1598 5.44943C14.4949 6.25827 14.6673 7.12517 14.6673 8.00065C14.6673 9.76876 13.9649 11.4645 12.7147 12.7147C11.4645 13.9649 9.76876 14.6673 8.00065 14.6673C4.31398 14.6673 1.33398 11.6673 1.33398 8.00065C1.33398 6.23254 2.03636 4.53685 3.28661 3.28661C4.53685 2.03636 6.23254 1.33398 8.00065 1.33398ZM8.33398 4.66732V8.16732L11.334 9.94732L10.834 10.7673L7.33398 8.66732V4.66732H8.33398Z" fill="#666666"/>
</svg>
