<svg width="25" height="26" viewBox="0 0 25 26" fill="none" xmlns="http://www.w3.org/2000/svg">
<g clip-path="url(#clip0_305_1170)">
<path fill-rule="evenodd" clip-rule="evenodd" d="M22.0586 1.00751e-06L23.5292 9.43227e-07L23.5292 26L22.0586 26L22.0586 1.00751e-06ZM4.41383 12.2353L12.933 12.2353L9.7756 8.95318L10.8153 7.87035L15.7477 13L10.8153 18.1297L9.77559 17.0468L12.933 13.7647L4.41383 13.7647L4.41383 12.2353L4.41383 12.2353ZM1.47266 2.29411L1.47266 23.7059C1.47266 24.9707 2.46237 26 3.67854 26L19.1197 26L19.1197 1.13597e-06L3.67854 1.81093e-06C2.46236 1.86409e-06 1.47266 1.02929 1.47266 2.29411Z" fill="#9197B3"/>
</g>
<defs>
<clipPath id="clip0_305_1170">
<rect width="26" height="25" fill="white" transform="translate(0 26) rotate(-90)"/>
</clipPath>
</defs>
</svg>
