<svg width="30" height="30" viewBox="0 0 30 30" fill="none" xmlns="http://www.w3.org/2000/svg">
<g clip-path="url(#clip0_296_1276)">
<path d="M15 27.5C8.09625 27.5 2.5 21.9037 2.5 15C2.5 8.09625 8.09625 2.5 15 2.5C21.9037 2.5 27.5 8.09625 27.5 15C27.5 21.9037 21.9037 27.5 15 27.5ZM15 25C17.6522 25 20.1957 23.9464 22.0711 22.0711C23.9464 20.1957 25 17.6522 25 15C25 12.3478 23.9464 9.80429 22.0711 7.92893C20.1957 6.05357 17.6522 5 15 5C12.3478 5 9.80429 6.05357 7.92893 7.92893C6.05357 9.80429 5 12.3478 5 15C5 17.6522 6.05357 20.1957 7.92893 22.0711C9.80429 23.9464 12.3478 25 15 25ZM20.625 9.375L17.5 17.5L9.375 20.625L12.5 12.5L20.625 9.375ZM15 16.25C15.3315 16.25 15.6495 16.1183 15.8839 15.8839C16.1183 15.6495 16.25 15.3315 16.25 15C16.25 14.6685 16.1183 14.3505 15.8839 14.1161C15.6495 13.8817 15.3315 13.75 15 13.75C14.6685 13.75 14.3505 13.8817 14.1161 14.1161C13.8817 14.3505 13.75 14.6685 13.75 15C13.75 15.3315 13.8817 15.6495 14.1161 15.8839C14.3505 16.1183 14.6685 16.25 15 16.25Z" fill="white"/>
</g>
<defs>
<clipPath id="clip0_296_1276">
<rect width="30" height="30" fill="white"/>
</clipPath>
</defs>
</svg>
