<svg width="24" height="24" viewBox="0 0 24 24" fill="none" xmlns="http://www.w3.org/2000/svg">
<path d="M1.7494 13.0493C1.5494 12.8493 1.4534 12.6159 1.4614 12.3493C1.4694 12.0826 1.57373 11.8493 1.7744 11.6493C1.9744 11.4659 2.20773 11.3699 2.4744 11.3613C2.74107 11.3526 2.9744 11.4486 3.1744 11.6493L6.7244 15.1993L7.0744 15.5493L7.4244 15.8993C7.6244 16.0993 7.7204 16.3326 7.7124 16.5993C7.7044 16.8659 7.60007 17.0993 7.3994 17.2993C7.1994 17.4826 6.96607 17.5786 6.6994 17.5873C6.43273 17.5959 6.1994 17.4999 5.9994 17.2993L1.7494 13.0493ZM12.3494 15.1743L20.8494 6.67426C21.0494 6.47426 21.2827 6.37859 21.5494 6.38726C21.8161 6.39593 22.0494 6.49993 22.2494 6.69926C22.4327 6.89926 22.5287 7.13259 22.5374 7.39926C22.5461 7.66593 22.4501 7.89926 22.2494 8.09926L13.0494 17.2993C12.8494 17.4993 12.6161 17.5993 12.3494 17.5993C12.0827 17.5993 11.8494 17.4993 11.6494 17.2993L7.3994 13.0493C7.21607 12.8659 7.1244 12.6369 7.1244 12.3623C7.1244 12.0876 7.21607 11.8499 7.3994 11.6493C7.5994 11.4493 7.83707 11.3493 8.1124 11.3493C8.38773 11.3493 8.62507 11.4493 8.8244 11.6493L12.3494 15.1743ZM16.5744 8.12426L13.0494 11.6493C12.8661 11.8326 12.6371 11.9243 12.3624 11.9243C12.0877 11.9243 11.8501 11.8326 11.6494 11.6493C11.4494 11.4493 11.3494 11.2119 11.3494 10.9373C11.3494 10.6626 11.4494 10.4249 11.6494 10.2243L15.1744 6.69926C15.3577 6.51593 15.5871 6.42426 15.8624 6.42426C16.1377 6.42426 16.3751 6.51593 16.5744 6.69926C16.7744 6.89926 16.8744 7.13659 16.8744 7.41126C16.8744 7.68593 16.7744 7.92359 16.5744 8.12426Z" fill="#0C74C2"/>
</svg>
