<svg width="20" height="24" viewBox="0 0 20 24" fill="none" xmlns="http://www.w3.org/2000/svg">
<path d="M9.59844 2.4C10.2612 2.4 10.7984 1.86274 10.7984 1.2C10.7984 0.537258 10.2612 0 9.59844 0C8.9357 0 8.39844 0.537258 8.39844 1.2C8.39844 1.86274 8.9357 2.4 9.59844 2.4Z" fill="#9197B3"/>
<path d="M15.5389 4.86103C16.0076 5.32966 16.7674 5.32966 17.236 4.86103C17.7047 4.3924 17.7047 3.6326 17.236 3.16397C16.7674 2.69534 16.0076 2.69534 15.5389 3.16397C15.0703 3.6326 15.0703 4.3924 15.5389 4.86103Z" fill="#9197B3"/>
<path d="M3.65986 4.86103C4.12848 4.3924 4.12848 3.6326 3.65986 3.16397C3.19122 2.69534 2.43143 2.69534 1.9628 3.16397C1.49417 3.6326 1.49417 4.3924 1.9628 4.86103C2.43143 5.32966 3.19122 5.32966 3.65986 4.86103Z" fill="#9197B3"/>
<path fill-rule="evenodd" clip-rule="evenodd" d="M3.59922 10.8008C3.59922 7.48708 6.28551 4.80078 9.59922 4.80078C12.9129 4.80078 15.5992 7.48708 15.5992 10.8008V16.8008H17.9992V19.2008H1.19922V16.8008H3.59922V10.8008ZM5.99922 10.8008C5.99922 8.81256 7.611 7.20078 9.59922 7.20078V16.8008H5.99922V10.8008Z" fill="#9197B3"/>
</svg>
