<svg width="16" height="20" viewBox="0 0 16 20" fill="none" xmlns="http://www.w3.org/2000/svg">
<g clip-path="url(#clip0_279_2061)">
<path d="M8 2C8.55229 2 9 1.55228 9 1C9 0.447715 8.55229 0 8 0C7.44772 0 7 0.447715 7 1C7 1.55228 7.44772 2 8 2Z" fill="white"/>
<path d="M12.9491 4.05086C13.3396 4.44138 13.9728 4.44138 14.3633 4.05086C14.7539 3.66033 14.7539 3.02717 14.3633 2.63664C13.9728 2.24612 13.3396 2.24612 12.9491 2.63664C12.5586 3.02717 12.5586 3.66033 12.9491 4.05086Z" fill="white"/>
<path d="M3.05086 4.05086C3.44138 3.66033 3.44138 3.02717 3.05086 2.63664C2.66033 2.24612 2.02717 2.24612 1.63664 2.63664C1.24612 3.02717 1.24612 3.66033 1.63664 4.05086C2.02717 4.44138 2.66033 4.44138 3.05086 4.05086Z" fill="white"/>
<path fill-rule="evenodd" clip-rule="evenodd" d="M3 9C3 6.23858 5.23858 4 8 4C10.7614 4 13 6.23858 13 9V14H15V16H1V14H3V9ZM5 9C5 7.34315 6.34315 6 8 6V14H5V9Z" fill="white"/>
</g>
<defs>
<clipPath id="clip0_279_2061">
<rect width="16" height="20" fill="white"/>
</clipPath>
</defs>
</svg>
