<svg width="20" height="20" viewBox="0 0 20 20" fill="none" xmlns="http://www.w3.org/2000/svg">
<path d="M9.35551 16.7814C9.3357 16.8611 9.30036 16.9361 9.25153 17.0021C9.20269 17.0681 9.14131 17.1238 9.07091 17.166C9.0005 17.2083 8.92246 17.2362 8.84124 17.2482C8.76002 17.2602 8.67723 17.2561 8.5976 17.2361L6.24294 16.6475C6.05191 16.5994 5.87483 16.5072 5.72597 16.3782L3.9642 14.8467C3.83909 14.738 3.7623 14.584 3.75073 14.4186C3.73915 14.2533 3.79374 14.0901 3.90248 13.965C4.01122 13.8399 4.1652 13.7631 4.33056 13.7515C4.49592 13.74 4.6591 13.7945 4.78421 13.9033L6.54614 15.4348L8.9008 16.0235C8.98043 16.0434 9.05535 16.0788 9.1213 16.1276C9.18725 16.1765 9.24292 16.2379 9.28515 16.3082C9.32737 16.3786 9.35532 16.4566 9.36739 16.5378C9.37947 16.619 9.37543 16.7018 9.35551 16.7814ZM19.715 9.34029C19.6644 9.49844 19.5825 9.64483 19.4743 9.77076C19.366 9.8967 19.2336 9.99962 19.0848 10.0734L17.267 10.9823L16.0993 12.3484C16.0952 12.3532 16.0907 12.3576 16.0865 12.3622C16.0827 12.3664 16.0789 12.3706 16.0749 12.3747C16.072 12.3778 16.0692 12.3812 16.0662 12.3842L13.1914 15.2591C12.9557 15.4933 12.6369 15.6248 12.3046 15.6247C12.2034 15.6247 12.1025 15.6123 12.0043 15.5878L7.47639 14.4558C7.30645 14.4136 7.14735 14.3359 7.00954 14.2278L2.78858 10.9272L0.913582 9.9897C0.765121 9.91545 0.632933 9.81238 0.524733 9.6865C0.416532 9.56061 0.334486 9.41444 0.28338 9.25651C0.232274 9.09858 0.213132 8.93205 0.227072 8.76665C0.241012 8.60124 0.287754 8.44027 0.364571 8.29312L2.28588 4.61365C2.43876 4.32431 2.69851 4.10605 3.00986 4.0053C3.32121 3.90456 3.65958 3.92928 3.95298 4.07421L5.70103 4.94823L9.50352 3.83969C9.78995 3.75629 10.0968 3.77798 10.3686 3.90084L12.9465 5.0673H14.2267L16.0455 4.15795C16.3389 4.01291 16.6773 3.98813 16.9886 4.08889C17.3 4.18966 17.5597 4.408 17.7125 4.69742L19.6338 8.37681C19.7112 8.5238 19.7582 8.68481 19.7721 8.85032C19.7861 9.01582 19.7667 9.18244 19.715 9.34029ZM14.6651 12.0175L12.1924 10.2193L11.5617 10.6923C11.0197 11.0955 10.3622 11.3133 9.6867 11.3133C9.01118 11.3133 8.35366 11.0955 7.8117 10.6923L7.38819 10.3747C7.24493 10.2672 7.12642 10.1302 7.04071 9.973C6.95499 9.81577 6.90406 9.64195 6.89136 9.46331C6.87867 9.28468 6.9045 9.1054 6.96712 8.93762C7.02973 8.76984 7.12767 8.61747 7.25429 8.49083L10.3117 5.43343C10.3564 5.38943 10.4042 5.34881 10.4549 5.31191L9.8534 5.03971L6.04687 6.14943L3.91907 10.2244L7.77958 13.2432L12.3075 14.3752L14.6651 12.0175ZM16.1247 10.3949L13.9954 6.31729H12.8135L12.8113 6.31745C12.8103 6.31745 12.8094 6.3173 12.8084 6.31729H11.1956L8.13824 9.3747L8.56167 9.69231C8.88686 9.93424 9.28138 10.0649 9.6867 10.0649C10.092 10.0649 10.4865 9.93424 10.8117 9.69231L11.8117 8.9423C11.9186 8.86209 12.0484 8.81828 12.1821 8.81729C12.3158 8.81631 12.4462 8.85821 12.5543 8.93685L15.5245 11.097L16.1247 10.3949Z" fill="#000000"/>
</svg>
