<svg width="24" height="24" viewBox="0 0 24 24" fill="none" xmlns="http://www.w3.org/2000/svg">
<path d="M12 5.50096L11.46 6.02096C11.53 6.09355 11.6138 6.15129 11.7066 6.19072C11.7994 6.23016 11.8992 6.25048 12 6.25048C12.1008 6.25048 12.2006 6.23016 12.2934 6.19072C12.3862 6.15129 12.47 6.09355 12.54 6.02096L12 5.50096ZM7.001 16.421C6.84717 16.2945 6.64939 16.2342 6.45117 16.2536C6.25294 16.2729 6.07051 16.3701 5.944 16.524C5.81749 16.6778 5.75727 16.8756 5.77659 17.0738C5.7959 17.272 5.89317 17.4545 6.047 17.581L7.001 16.421ZM2.342 13.412C2.38928 13.4984 2.45311 13.5746 2.52985 13.6364C2.6066 13.6981 2.69475 13.7441 2.78928 13.7718C2.88381 13.7995 2.98287 13.8083 3.08079 13.7976C3.17871 13.787 3.27359 13.7572 3.36 13.71C3.44641 13.6627 3.52266 13.5989 3.5844 13.5221C3.64614 13.4454 3.69216 13.3572 3.71983 13.2627C3.74751 13.1681 3.75629 13.0691 3.74568 12.9712C3.73507 12.8732 3.70528 12.7784 3.658 12.692L2.342 13.412ZM2.75 9.13796C2.75 6.98796 3.965 5.18396 5.624 4.42496C7.236 3.68796 9.402 3.88296 11.46 6.02096L12.54 4.98196C10.1 2.44496 7.264 2.02596 5 3.06096C2.786 4.07396 1.25 6.42596 1.25 9.13796H2.75ZM8.497 19.501C9.01 19.905 9.56 20.335 10.117 20.661C10.674 20.987 11.31 21.251 12 21.251V19.751C11.69 19.751 11.326 19.631 10.874 19.366C10.421 19.102 9.952 18.738 9.426 18.323L8.497 19.501ZM15.503 19.501C16.929 18.376 18.753 17.088 20.183 15.477C21.64 13.837 22.75 11.804 22.75 9.13796H21.25C21.25 11.336 20.35 13.029 19.062 14.481C17.747 15.961 16.09 17.128 14.574 18.323L15.503 19.501ZM22.75 9.13796C22.75 6.42596 21.215 4.07396 19 3.06096C16.736 2.02596 13.902 2.44496 11.46 4.98096L12.54 6.02096C14.598 3.88396 16.764 3.68796 18.376 4.42496C20.035 5.18396 21.25 6.98696 21.25 9.13796H22.75ZM14.574 18.323C14.048 18.738 13.579 19.102 13.126 19.366C12.673 19.63 12.31 19.751 12 19.751V21.251C12.69 21.251 13.326 20.986 13.883 20.661C14.441 20.335 14.99 19.905 15.503 19.501L14.574 18.323ZM9.426 18.323C8.63 17.696 7.821 17.096 7.001 16.421L6.047 17.581C6.877 18.264 7.755 18.916 8.497 19.501L9.426 18.323ZM3.658 12.693C3.05552 11.6054 2.74284 10.3812 2.75 9.13796H1.25C1.25 10.776 1.67 12.183 2.342 13.412L3.658 12.693Z" fill="#0C74C2"/>
</svg>
