<svg width="39" height="36" viewBox="0 0 39 36" fill="none" xmlns="http://www.w3.org/2000/svg">
<path d="M20.5 13.5C20.5 15.7543 19.6045 17.9163 18.0104 19.5104C16.4163 21.1045 14.2543 22 12 22C9.74566 22 7.58365 21.1045 5.98959 19.5104C4.39553 17.9163 3.5 15.7543 3.5 13.5C3.5 11.2457 4.39553 9.08365 5.98959 7.48959C7.58365 5.89553 9.74566 5 12 5C14.2543 5 16.4163 5.89553 18.0104 7.48959C19.6045 9.08365 20.5 11.2457 20.5 13.5Z" stroke="#0C74C2" stroke-opacity="0.34" stroke-width="1.5" stroke-linecap="round" stroke-linejoin="round"/>
<path d="M12 19C10.5413 19 9.14236 18.4205 8.11091 17.3891C7.07946 16.3576 6.5 14.9587 6.5 13.5C6.5 12.0413 7.07946 10.6424 8.11091 9.61091C9.14236 8.57946 10.5413 8 12 8M12 13.5L15 9M13.5 3.5C13.5 3.10218 13.342 2.72064 13.0607 2.43934C12.7794 2.15804 12.3978 2 12 2C11.6022 2 11.2206 2.15804 10.9393 2.43934C10.658 2.72064 10.5 3.10218 10.5 3.5C10.5 3.89782 10.658 4.27936 10.9393 4.56066C11.2206 4.84196 11.6022 5 12 5C12.3978 5 12.7794 4.84196 13.0607 4.56066C13.342 4.27936 13.5 3.89782 13.5 3.5Z" stroke="#0C74C2" stroke-opacity="0.34" stroke-width="1.5" stroke-linecap="round" stroke-linejoin="round"/>
<path d="M20.595 11.1225L14.135 17.5838C13.3747 18.3214 12.7687 19.2029 12.3523 20.177C11.9358 21.151 11.7172 22.1982 11.7092 23.2575C11.7012 24.3168 11.9039 25.3671 12.3056 26.3473C12.7073 27.3275 13.2999 28.2181 14.049 28.9671C14.7981 29.7162 15.6886 30.3088 16.6688 30.7105C17.6491 31.1122 18.6994 31.3149 19.7587 31.3069C20.818 31.2989 21.8651 31.0803 22.8392 30.6639C23.8132 30.2474 24.6947 29.6414 25.4324 28.8811L31.8924 22.4211C33.3647 20.9176 34.1845 18.894 34.1736 16.7896C34.1626 14.6853 33.3219 12.6702 31.834 11.1822C30.3461 9.69405 28.3311 8.85309 26.2268 8.84191C24.1224 8.83073 22.0987 9.65024 20.595 11.1225Z" fill="#DDF2F9" stroke="#0C74C2" stroke-width="1.5" stroke-linecap="round" stroke-linejoin="round"/>
<path d="M29.4614 24.8518C26.8832 23.892 24.5727 22.3278 22.7241 20.2904C20.6872 18.4416 19.1234 16.1312 18.1641 13.5531M23.0081 13.5531C23.3253 13.2336 23.7027 12.9801 24.1183 12.807C24.534 12.634 24.9798 12.5449 25.4301 12.5449C25.8803 12.5449 26.3261 12.634 26.7418 12.807C27.1575 12.9801 27.5348 13.2336 27.8521 13.5531" fill="#DDF2F9"/>
<path d="M29.4614 24.8518C26.8832 23.892 24.5727 22.3278 22.7241 20.2904C20.6872 18.4416 19.1234 16.1312 18.1641 13.5531M23.0081 13.5531C23.3253 13.2336 23.7027 12.9801 24.1183 12.807C24.534 12.634 24.9798 12.5449 25.4301 12.5449C25.8803 12.5449 26.3261 12.634 26.7418 12.807C27.1575 12.9801 27.5348 13.2336 27.8521 13.5531" stroke="#0C74C2" stroke-width="1.5" stroke-linecap="round" stroke-linejoin="round"/>
</svg>
