<svg width="14" height="20" viewBox="0 0 14 20" fill="none"
    xmlns="http://www.w3.org/2000/svg">
    <path d="M1.41377 12.0821C1.76925 12.0821 1.98931 12.0821 2.29401 12.0821C2.29401 13.978 2.29401 15.857 2.29401 17.8206C5.79803 17.8206 9.20049 17.8206 12.6876 17.8206C12.6876 12.5899 12.6876 7.35929 12.6876 2.11172C9.23434 2.11172 5.84881 2.11172 2.32787 2.11172C2.32787 3.49979 2.32787 4.83707 2.32787 6.19128C2.32787 7.08845 2.31094 8.00254 2.32787 8.8997C2.34479 9.47524 2.15859 9.76301 1.48148 9.61066C1.46456 9.42446 1.41377 9.2044 1.41377 8.98434C1.41377 6.73297 1.39685 4.46466 1.41377 2.21329C1.4307 0.757512 2.15859 0.0126957 3.59744 0.0126957C6.22122 -0.00423191 8.84501 -0.00423191 11.4688 0.0126957C12.8907 0.0126957 13.6525 0.791367 13.6525 2.21329C13.6525 7.41007 13.6525 12.5899 13.6525 17.7867C13.6525 19.1917 12.8569 19.9704 11.4349 19.9873C8.84501 20.0042 6.23815 20.0042 3.64822 19.9873C2.17552 19.9873 1.41377 19.2256 1.41377 17.7359C1.39685 15.8739 1.41377 14.0288 1.41377 12.0821Z" fill="#000000"/>
    <g clip-path="url(#clip0_532_2312)">
        <path d="M9.41735 4.98256C9.37578 4.90143 9.34032 4.81672 9.3116 4.72904L9.78198 5.24575L10.207 5.7126L10.1903 5.73093C10.0428 5.59713 9.90592 5.473 9.78198 5.3556C9.64329 5.22422 9.52074 5.10126 9.41735 4.98256ZM10.1905 5.7311L10.2071 5.71277L10.2073 5.71298L10.2074 5.71302L10.2204 5.7274L10.2604 5.77128L10.2892 5.80297C10.2796 5.79875 10.27 5.79444 10.2604 5.79005C10.2569 5.78844 10.2534 5.78683 10.2499 5.7852L10.205 5.74434L10.1907 5.73129C10.1906 5.73123 10.1906 5.73117 10.1905 5.7311ZM10.9881 5.24575L11.4585 4.72904C11.4297 4.81672 11.3943 4.90143 11.3527 4.98256C11.2493 5.10126 11.1268 5.22422 10.9881 5.3556C10.8666 5.47068 10.7327 5.59222 10.5885 5.72301L10.5702 5.70475L10.9881 5.24575ZM10.5621 5.7137L10.5786 5.73196L10.5744 5.73576L10.5201 5.7852C10.5166 5.78683 10.5132 5.78844 10.5097 5.79005C10.5001 5.79444 10.4905 5.79875 10.4808 5.80297L10.5097 5.77129L10.5575 5.71878L10.5621 5.7137Z" fill="#000000" stroke="#000000" stroke-width="5"/>
    </g>
    <path d="M6.6355 8.57254C6.65448 8.51551 6.69826 8.46444 6.76033 8.42694C6.82239 8.38944 6.89943 8.36749 6.98001 8.36437C7.06059 8.36125 7.1404 8.37711 7.2076 8.4096C7.27479 8.44209 7.32578 8.48948 7.353 8.54473L8.37875 10.6364C8.744 10.636 8.97575 10.5869 9.22125 10.4531C9.29329 10.388 9.38023 10.3324 9.47825 10.2887L9.5 10.2727V10.2791C9.65203 10.2153 9.82445 10.1818 9.99995 10.1818C10.1754 10.1819 10.3478 10.2155 10.4998 10.2793C10.6518 10.3432 10.778 10.435 10.8657 10.5455C10.9534 10.6561 10.9996 10.7815 10.9996 10.9091C10.9996 11.0367 10.9534 11.1621 10.8657 11.2727C10.778 11.3832 10.6518 11.475 10.4998 11.5388C10.3478 11.6027 10.1754 11.6363 9.99995 11.6364C9.82445 11.6364 9.65203 11.6029 9.5 11.5391V11.5455L9.47775 11.5295C9.38525 11.4882 9.30275 11.4362 9.23325 11.376C9.00575 11.256 8.792 11.2151 8.4755 11.2084H8.127C8.04967 11.2083 7.97424 11.1909 7.91104 11.1585C7.84785 11.1261 7.79998 11.0802 7.774 11.0273L7.06975 9.59091L5.86025 13.2456C5.84125 13.3029 5.79729 13.3541 5.73494 13.3916C5.6726 13.4292 5.59522 13.4511 5.51437 13.454C5.43351 13.4569 5.35353 13.4407 5.28637 13.4079C5.21921 13.375 5.16847 13.3272 5.14175 13.2716L3.7295 10.3302L3.349 11.0353C3.32147 11.0863 3.27345 11.1301 3.2112 11.161C3.14895 11.1918 3.07535 11.2084 3 11.2084H1V10.6629H2.74425L3.401 9.44582C3.42901 9.394 3.47815 9.34967 3.54183 9.31876C3.6055 9.28786 3.68066 9.27186 3.75719 9.27293C3.83373 9.274 3.90799 9.29208 3.96998 9.32474C4.03198 9.3574 4.07875 9.40308 4.104 9.45563L5.4295 12.2165L6.6355 8.57254Z" fill="#000000"/>
    <defs>
        <clipPath id="clip0_532_2312">
            <rect width="3.21625" height="3.21625" fill="white" transform="translate(8.77734 3.04706)"/>
        </clipPath>
    </defs>
</svg>