<svg width="13" height="18" viewBox="0 0 13 18" fill="none" xmlns="http://www.w3.org/2000/svg">
<path d="M1.2724 10.8739C1.59233 10.8739 1.79038 10.8739 2.06461 10.8739C2.06461 12.5802 2.06461 14.2713 2.06461 16.0385C5.21823 16.0385 8.28044 16.0385 11.4188 16.0385C11.4188 11.3309 11.4188 6.62336 11.4188 1.90055C8.31091 1.90055 5.26393 1.90055 2.09508 1.90055C2.09508 3.14981 2.09508 4.35336 2.09508 5.57215C2.09508 6.3796 2.07984 7.20229 2.09508 8.00973C2.11031 8.52772 1.94273 8.78671 1.33334 8.6496C1.3181 8.48201 1.2724 8.28396 1.2724 8.08591C1.2724 6.05967 1.25716 4.0182 1.2724 1.99196C1.28763 0.68176 1.94273 0.0114262 3.23769 0.0114262C5.5991 -0.00380872 7.96051 -0.00380872 10.3219 0.0114262C11.6016 0.0114262 12.2872 0.71223 12.2872 1.99196C12.2872 6.66906 12.2872 11.3309 12.2872 16.008C12.2872 17.2725 11.5712 17.9733 10.2914 17.9886C7.9605 18.0038 5.61434 18.0038 3.2834 17.9886C1.95797 17.9886 1.2724 17.303 1.2724 15.9623C1.25716 14.2865 1.2724 12.6259 1.2724 10.8739Z" fill="white"/>
<g clip-path="url(#clip0_279_888)">
<path d="M9.34672 5.3167L9.23455 5.21459L9.18473 5.16924L9.17184 5.15749C9.17177 5.15744 9.17171 5.15738 9.17164 5.15732L9.18661 5.14082L9.18678 5.14101L9.18681 5.14104L9.1986 5.15399L9.23455 5.19348L9.34672 5.3167ZM9.34672 5.3167L9.45889 5.21459L9.51718 5.16152L9.52095 5.15809L9.50607 5.14166L9.5019 5.14623L9.45889 5.19348L9.34672 5.3167ZM8.19594 4.05259C8.22196 4.11959 8.25682 4.18604 8.29976 4.25295C8.41466 4.43197 8.58747 4.61428 8.80398 4.81937C8.91553 4.92503 9.03867 5.03674 9.17147 5.15717L9.18647 5.14067L8.80398 4.7205L8.34388 4.21509L8.19594 4.05259ZM9.52983 5.15004L9.5134 5.13361L9.88946 4.7205L10.3496 4.21509L10.4975 4.05259C10.4715 4.1196 10.4366 4.18604 10.3937 4.25295C10.2788 4.43197 10.106 4.61428 9.88946 4.81937C9.78012 4.92294 9.65963 5.03233 9.52983 5.15004Z" fill="white" stroke="white" stroke-width="5"/>
</g>
<path d="M5.97234 7.71505C5.98943 7.66371 6.02883 7.61776 6.08468 7.58401C6.14054 7.55025 6.20988 7.5305 6.2824 7.52769C6.35492 7.52488 6.42675 7.53916 6.48723 7.5684C6.5477 7.59764 6.5936 7.64029 6.61809 7.69001L7.54127 9.57248C7.86999 9.57216 8.07857 9.52798 8.29952 9.40754C8.36435 9.34893 8.4426 9.29889 8.53082 9.25961L8.55039 9.24521V9.25094C8.68721 9.19355 8.84239 9.16336 9.00034 9.16339C9.15829 9.16343 9.31345 9.1937 9.45022 9.25116C9.58699 9.30862 9.70055 9.39124 9.77951 9.49073C9.85847 9.59022 9.90004 9.70307 9.90004 9.81794C9.90004 9.93281 9.85847 10.0457 9.77951 10.1451C9.70055 10.2446 9.58699 10.3273 9.45022 10.3847C9.31345 10.4422 9.15829 10.4724 9.00034 10.4725C8.84239 10.4725 8.68721 10.4423 8.55039 10.3849V10.3907L8.53037 10.3763C8.44712 10.3391 8.37287 10.2923 8.31032 10.2382C8.10557 10.1302 7.91319 10.0933 7.62834 10.0873H7.31469C7.24509 10.0873 7.1772 10.0716 7.12033 10.0424C7.06346 10.0132 7.02038 9.97198 6.99699 9.9243L6.36317 8.63158L5.27462 11.9208C5.25751 11.9723 5.21795 12.0184 5.16184 12.0522C5.10573 12.086 5.03609 12.1057 4.96332 12.1084C4.89055 12.111 4.81857 12.0964 4.75812 12.0668C4.69768 12.0373 4.65202 11.9942 4.62797 11.9442L3.35694 9.29692L3.01449 9.9315C2.98972 9.97741 2.9465 10.0168 2.89047 10.0446C2.83444 10.0724 2.76821 10.0873 2.70039 10.0873H0.900391V9.59638H2.47022L3.06129 8.50099C3.0865 8.45436 3.13073 8.41446 3.18804 8.38664C3.24534 8.35883 3.31298 8.34444 3.38187 8.3454C3.45075 8.34636 3.51758 8.36263 3.57338 8.39202C3.62917 8.42142 3.67126 8.46253 3.69399 8.50983L4.88694 10.9946L5.97234 7.71505Z" fill="white"/>
<defs>
<clipPath id="clip0_279_888">
<rect width="2.89463" height="2.89463" fill="white" transform="translate(7.90039 2.74219)"/>
</clipPath>
</defs>
</svg>
