<svg width="24" height="24" viewBox="0 0 24 24" fill="none" xmlns="http://www.w3.org/2000/svg">
<path d="M12.0008 14.7888C11.8798 14.7874 11.7604 14.7601 11.6508 14.7088C11.5008 14.6288 8.00082 12.7088 7.25082 10.1988C7.02128 9.56049 6.94069 8.87817 7.01522 8.20397C7.08974 7.52977 7.31741 6.88153 7.68082 6.30878C7.95119 5.95306 8.30304 5.66747 8.70676 5.47605C9.11049 5.28462 9.55429 5.19296 10.0008 5.20878C10.3757 5.19847 10.7483 5.26905 11.0935 5.41573C11.4386 5.56241 11.7481 5.78174 12.0008 6.05878C12.2535 5.78174 12.563 5.56241 12.9081 5.41573C13.2533 5.26905 13.6259 5.19847 14.0008 5.20878C14.444 5.19619 14.8838 5.2894 15.2838 5.4807C15.6838 5.672 16.0324 5.95587 16.3008 6.30878C16.6642 6.88153 16.8919 7.52977 16.9664 8.20397C17.0409 8.87817 16.9603 9.56049 16.7308 10.1988C15.9808 12.7588 12.4808 14.6288 12.3308 14.7088C12.2273 14.7574 12.1151 14.7846 12.0008 14.7888ZM10.0008 6.70878C9.79026 6.69329 9.57918 6.73096 9.38697 6.81832C9.19477 6.90569 9.0276 7.03995 8.90082 7.20878C8.6802 7.59613 8.54867 8.02778 8.51581 8.47234C8.48294 8.9169 8.54956 9.3632 8.71082 9.77878C9.13082 11.2188 11.0008 12.5788 12.0208 13.1788C13.0208 12.5688 14.9108 11.1788 15.3308 9.77878C15.4921 9.3632 15.5587 8.9169 15.5258 8.47234C15.4929 8.02778 15.3614 7.59613 15.1408 7.20878C14.9732 6.98764 14.7407 6.82443 14.4758 6.74202C14.2108 6.65961 13.9268 6.66212 13.6633 6.7492C13.3999 6.83628 13.1703 7.00356 13.0066 7.22763C12.843 7.4517 12.7536 7.72134 12.7508 7.99878C12.7508 8.19769 12.6718 8.38846 12.5311 8.52911C12.3905 8.66976 12.1997 8.74878 12.0008 8.74878C11.8019 8.74878 11.6111 8.66976 11.4705 8.52911C11.3298 8.38846 11.2508 8.19769 11.2508 7.99878C11.2576 7.83094 11.2302 7.66347 11.1703 7.50653C11.1104 7.3496 11.0192 7.20647 10.9023 7.08583C10.7854 6.9652 10.6452 6.86957 10.4903 6.80476C10.3353 6.73994 10.1688 6.70729 10.0008 6.70878Z" fill="#9197B3"/>
<path d="M18.7602 17.7502H5.24023C4.17936 17.7502 3.16195 17.3288 2.4118 16.5786C1.66166 15.8285 1.24023 14.8111 1.24023 13.7502V6.24023C1.24023 5.17936 1.66166 4.16195 2.4118 3.4118C3.16195 2.66166 4.17936 2.24023 5.24023 2.24023H18.7602C19.8211 2.24023 20.8385 2.66166 21.5886 3.4118C22.3388 4.16195 22.7602 5.17936 22.7602 6.24023V13.7602C22.7575 14.8193 22.3349 15.8342 21.5851 16.5822C20.8352 17.3301 19.8193 17.7502 18.7602 17.7502ZM5.24023 3.75023C4.58065 3.75286 3.94884 4.01605 3.48244 4.48244C3.01605 4.94884 2.75286 5.58065 2.75023 6.24023V13.7602C2.75286 14.4198 3.01605 15.0516 3.48244 15.518C3.94884 15.9844 4.58065 16.2476 5.24023 16.2502H18.7602C19.4198 16.2476 20.0516 15.9844 20.518 15.518C20.9844 15.0516 21.2476 14.4198 21.2502 13.7602V6.24023C21.2476 5.58065 20.9844 4.94884 20.518 4.48244C20.0516 4.01605 19.4198 3.75286 18.7602 3.75023H5.24023Z" fill="#9197B3"/>
<path d="M12 21.75C11.8019 21.7474 11.6126 21.6676 11.4725 21.5275C11.3324 21.3874 11.2526 21.1981 11.25 21V17C11.25 16.8011 11.329 16.6103 11.4697 16.4697C11.6103 16.329 11.8011 16.25 12 16.25C12.1989 16.25 12.3897 16.329 12.5303 16.4697C12.671 16.6103 12.75 16.8011 12.75 17V21C12.7474 21.1981 12.6676 21.3874 12.5275 21.5275C12.3874 21.6676 12.1981 21.7474 12 21.75Z" fill="#9197B3"/>
<path d="M18 21.75H6C5.80109 21.75 5.61032 21.671 5.46967 21.5303C5.32902 21.3897 5.25 21.1989 5.25 21C5.25 20.8011 5.32902 20.6103 5.46967 20.4697C5.61032 20.329 5.80109 20.25 6 20.25H18C18.1989 20.25 18.3897 20.329 18.5303 20.4697C18.671 20.6103 18.75 20.8011 18.75 21C18.75 21.1989 18.671 21.3897 18.5303 21.5303C18.3897 21.671 18.1989 21.75 18 21.75Z" fill="#9197B3"/>
</svg>
