<svg width="20" height="20" viewBox="0 0 20 20" fill="none" xmlns="http://www.w3.org/2000/svg">
<g clip-path="url(#clip0_74_41814)">
<path d="M10 0.625V3.75H3.75V10H0.625C0.625 15.1875 4.8125 19.375 10 19.375C15.1875 19.375 19.375 15.1875 19.375 10C19.375 4.8125 15.1875 0.625 10 0.625Z" fill="#2A5F9E"/>
<path d="M4.375 2.5C2.09375 4.21875 0.625 6.9375 0.625 10H4.375V2.5Z" fill="white"/>
<path d="M2.5 4.375H10V0.625C6.9375 0.625 4.21875 2.09375 2.5 4.375Z" fill="white"/>
<path d="M3.0625 3.6875L8.125 10H10V7.65625L5.34375 1.84375C4.5 2.34375 3.71875 2.96875 3.0625 3.6875Z" fill="white"/>
<path d="M10 1.5625H5.90625C4.03125 2.46875 2.46875 4.03125 1.5625 5.90625V10H3.4375V3.4375H10V1.5625Z" fill="#ED4C5C"/>
<path d="M10 8.46875L5.9375 3.4375H4.0625L9.375 10H10V8.46875Z" fill="#ED4C5C"/>
<path d="M11.5937 10L11.9062 9.09375L11.0625 8.5H12.125L12.4375 7.625L12.75 8.5H13.8125L12.9687 9.09375L13.2812 10L12.4375 9.4375L11.5937 10Z" fill="white"/>
<path d="M12.4375 9.21875L12.9375 9.5625L12.75 9L13.25 8.65625H12.625L12.4375 8.125L12.25 8.65625H11.625L12.125 9L11.9375 9.5625L12.4375 9.21875Z" fill="#ED4C5C"/>
<path d="M17.0625 10L17.375 9.09375L16.5312 8.5H17.5937L17.9062 7.625L18.2187 8.5H19.2812L18.4375 9.09375L18.75 10L17.9062 9.4375L17.0625 10Z" fill="white"/>
<path d="M17.9062 9.21875L18.4063 9.5625L18.2187 9L18.7188 8.65625H18.0938L17.9062 8.125L17.7187 8.65625H17.0938L17.5937 9L17.4062 9.5625L17.9062 9.21875Z" fill="#ED4C5C"/>
<path d="M14.3438 6.78125L14.6563 5.875L13.8125 5.28125H14.875L15.1875 4.40625L15.5 5.28125H16.5625L15.7187 5.875L16.0312 6.78125L15.1875 6.21875L14.3438 6.78125Z" fill="white"/>
<path d="M15.1562 6L15.6562 6.34375L15.4688 5.78125L15.9687 5.4375H15.375L15.1562 4.90625L15 5.4375H14.375L14.875 5.78125L14.6875 6.34375L15.1562 6Z" fill="#ED4C5C"/>
<path d="M14.0625 15.2188L14.4687 14.0313L13.3438 13.25H14.75L15.1562 12.0938L15.5625 13.25H16.9375L15.8125 14.0313L16.2188 15.2188L15.125 14.4687L14.0625 15.2188Z" fill="white"/>
<path d="M15.1562 14.1875L15.8125 14.625L15.5938 13.9063L16.2188 13.4375H15.4375L15.1562 12.75L14.9375 13.4375H14.125L14.75 13.9063L14.5312 14.625L15.1562 14.1875Z" fill="#ED4C5C"/>
<path d="M3.9375 3.4375H7.75V4.375H3.9375V3.4375Z" fill="white"/>
</g>
<defs>
<clipPath id="clip0_74_41814">
<rect width="20" height="20" fill="white"/>
</clipPath>
</defs>
</svg>
