<svg width="16" height="16" viewBox="0 0 16 16" fill="none" xmlns="http://www.w3.org/2000/svg">
<path d="M3.99935 12.667V6.66699C3.99935 5.60613 4.42078 4.58871 5.17092 3.83857C5.92107 3.08842 6.93848 2.66699 7.99935 2.66699C9.06022 2.66699 10.0776 3.08842 10.8278 3.83857C11.5779 4.58871 11.9993 5.60613 11.9993 6.66699V12.667M3.99935 12.667H11.9993M3.99935 12.667H2.66602M11.9993 12.667H13.3327M7.33268 14.667H8.66602" stroke="#666666" stroke-linecap="round" stroke-linejoin="round"/>
<path d="M7.9987 2.66732C8.36689 2.66732 8.66536 2.36884 8.66536 2.00065C8.66536 1.63246 8.36689 1.33398 7.9987 1.33398C7.63051 1.33398 7.33203 1.63246 7.33203 2.00065C7.33203 2.36884 7.63051 2.66732 7.9987 2.66732Z" stroke="#666666"/>
</svg>
