<svg width="20" height="20" viewBox="0 0 20 20" fill="none" xmlns="http://www.w3.org/2000/svg">
<path d="M12.922 2.87165C13.4799 2.31364 14.2366 2.00009 15.0256 2C15.8147 1.99991 16.5715 2.31327 17.1295 2.87115C17.6875 3.42903 18.0011 4.18574 18.0012 4.9748C18.0012 5.76386 17.6879 6.52064 17.13 7.07865L7.772 16.4367C7.43412 16.7762 7.00579 17.0115 6.538 17.1147L2.612 17.9877C2.52981 18.006 2.44432 18.0033 2.36345 17.9798C2.28258 17.9563 2.20896 17.9128 2.14941 17.8532C2.08987 17.7937 2.04632 17.7201 2.02283 17.6392C1.99933 17.5583 1.99664 17.4728 2.015 17.3907L2.892 13.4407C2.993 12.9887 3.221 12.5737 3.548 12.2467L12.922 2.87165ZM16.457 3.61465C16.2754 3.42361 16.0574 3.27084 15.8159 3.16535C15.5744 3.05986 15.3141 3.00379 15.0506 3.00043C14.787 2.99708 14.5255 3.04651 14.2813 3.14581C14.0372 3.24512 13.8154 3.39229 13.629 3.57865L12.958 4.25065L15.751 7.04265L16.421 6.37165C17.179 5.61365 17.195 4.39165 16.457 3.61465ZM15.044 7.74965L12.25 4.95865L4.254 12.9547C4.06083 13.1479 3.9266 13.392 3.867 13.6587L3.16 16.8417L6.319 16.1397C6.601 16.0767 6.859 15.9347 7.063 15.7307L15.044 7.74965ZM2.5 2.99865H11.38L10.38 3.99865H2.5C2.36739 3.99865 2.24021 3.94597 2.14645 3.85221C2.05268 3.75844 2 3.63126 2 3.49865C2 3.36604 2.05268 3.23887 2.14645 3.1451C2.24021 3.05133 2.36739 2.99865 2.5 2.99865ZM2.5 5.99865H8.38L7.378 6.99865H2.5C2.36739 6.99865 2.24021 6.94597 2.14645 6.85221C2.05268 6.75844 2 6.63126 2 6.49865C2 6.36604 2.05268 6.23887 2.14645 6.1451C2.24021 6.05133 2.36739 5.99865 2.5 5.99865ZM2.5 8.99865H5.379L4.379 9.99865H2.5C2.36739 9.99865 2.24021 9.94597 2.14645 9.85221C2.05268 9.75844 2 9.63126 2 9.49865C2 9.36604 2.05268 9.23887 2.14645 9.1451C2.24021 9.05133 2.36739 8.99865 2.5 8.99865Z" fill="#0C74C2"/>
</svg>
