<svg width="20" height="20" viewBox="0 0 20 20" fill="none" xmlns="http://www.w3.org/2000/svg">
<path d="M17.1875 5.95703H12.1875V3.75C12.1875 3.4043 11.9082 3.125 11.5625 3.125H3.59375V2.34375C3.59375 2.25781 3.52344 2.1875 3.4375 2.1875H2.34375C2.25781 2.1875 2.1875 2.25781 2.1875 2.34375V17.6562C2.1875 17.7422 2.25781 17.8125 2.34375 17.8125H3.4375C3.52344 17.8125 3.59375 17.7422 3.59375 17.6562V12.5H8.4375V14.707C8.4375 15.0527 8.7168 15.332 9.0625 15.332H17.1875C17.5332 15.332 17.8125 15.0527 17.8125 14.707V6.58203C17.8125 6.23633 17.5332 5.95703 17.1875 5.95703ZM3.59375 11.0938V4.53125H10.7812V11.0938H3.59375ZM16.4062 13.9258H9.84375V12.5H12.0312C12.1172 12.5 12.1875 12.4297 12.1875 12.3438V7.36328H16.4062V13.9258Z" fill="#000000"/>
</svg>
