<svg width="20" height="20" viewBox="0 0 20 20" fill="none" xmlns="http://www.w3.org/2000/svg">
<path d="M14.9987 13.9582H13.332C13.1663 13.9582 13.0073 13.8923 12.8901 13.7751C12.7729 13.6579 12.707 13.4989 12.707 13.3332C12.707 13.1674 12.7729 13.0084 12.8901 12.8913C13.0073 12.774 13.1663 12.7082 13.332 12.7082H14.9987C15.2749 12.7082 15.5399 12.5984 15.7353 12.4031C15.9306 12.2078 16.0404 11.9428 16.0404 11.6665V8.33317C16.0404 8.0569 15.9306 7.79195 15.7353 7.5966C15.5399 7.40125 15.2749 7.2915 14.9987 7.2915H4.9987C4.72243 7.2915 4.45748 7.40125 4.26213 7.5966C4.06678 7.79195 3.95703 8.0569 3.95703 8.33317V11.6665C3.95703 11.9428 4.06678 12.2078 4.26213 12.4031C4.45748 12.5984 4.72243 12.7082 4.9987 12.7082H6.66536C6.83112 12.7082 6.9901 12.774 7.10731 12.8913C7.22451 13.0084 7.29036 13.1674 7.29036 13.3332C7.29036 13.4989 7.22451 13.6579 7.10731 13.7751C6.9901 13.8923 6.83112 13.9582 6.66536 13.9582H4.9987C4.39091 13.9582 3.80801 13.7168 3.37825 13.2869C2.94847 12.8572 2.70703 12.2743 2.70703 11.6665V8.33317C2.70703 7.72538 2.94847 7.14249 3.37825 6.71272C3.80801 6.28295 4.39091 6.0415 4.9987 6.0415H14.9987C15.6064 6.0415 16.1894 6.28295 16.6191 6.71272C17.0489 7.14249 17.2904 7.72538 17.2904 8.33317V11.6665C17.2904 12.2743 17.0489 12.8572 16.6191 13.2869C16.1894 13.7168 15.6064 13.9582 14.9987 13.9582Z" fill="#000000"/>
<path d="M13.3346 7.29183C13.1696 7.28967 13.0118 7.22313 12.8951 7.10639C12.7783 6.98964 12.7118 6.83192 12.7096 6.66683V3.9585H7.29297V6.66683C7.29297 6.83259 7.22712 6.99156 7.10991 7.10877C6.9927 7.22598 6.83373 7.29183 6.66797 7.29183C6.50221 7.29183 6.34324 7.22598 6.22603 7.10877C6.10882 6.99156 6.04297 6.83259 6.04297 6.66683V3.75016C6.04297 3.4739 6.15272 3.20895 6.34807 3.0136C6.54342 2.81825 6.80837 2.7085 7.08464 2.7085H12.918C13.1942 2.7085 13.4592 2.81825 13.6546 3.0136C13.8499 3.20895 13.9596 3.4739 13.9596 3.75016V6.66683C13.9575 6.83192 13.891 6.98964 13.7742 7.10639C13.6575 7.22313 13.4997 7.28967 13.3346 7.29183Z" fill="#000000"/>
<path d="M12.918 17.2917H7.08464C6.80837 17.2917 6.54342 17.1819 6.34807 16.9866C6.15272 16.7912 6.04297 16.5262 6.04297 16.25V10.4167C6.04297 10.1404 6.15272 9.87542 6.34807 9.68008C6.54342 9.48475 6.80837 9.375 7.08464 9.375H12.918C13.1942 9.375 13.4592 9.48475 13.6546 9.68008C13.8499 9.87542 13.9596 10.1404 13.9596 10.4167V16.25C13.9596 16.5262 13.8499 16.7912 13.6546 16.9866C13.4592 17.1819 13.1942 17.2917 12.918 17.2917ZM7.29297 16.0417H12.7096V10.625H7.29297V16.0417Z" fill="#000000"/>
</svg>
