<svg width="20" height="20" viewBox="0 0 20 20" fill="none" xmlns="http://www.w3.org/2000/svg">
<g clip-path="url(#clip0_74_41804)">
<path d="M10 19.375C15.1777 19.375 19.375 15.1777 19.375 10C19.375 4.82233 15.1777 0.625 10 0.625C4.82233 0.625 0.625 4.82233 0.625 10C0.625 15.1777 4.82233 19.375 10 19.375Z" fill="#699635"/>
<path d="M9.90625 8.34375C9.875 8.0625 10.0312 7.78125 10.3125 7.84375C10.5312 7.875 10.7812 8.09375 10.6562 8.3125C10.4687 8.65625 9.96875 8.65625 9.65625 8.84375C9.6875 9.03125 10.5938 8.8125 10.75 8.8125C10.9062 8.8125 11.0625 8.875 10.9687 9.0625C10.875 9.25 10.5625 9.25 10.375 9.28125C10.1875 9.3125 9.875 9.3125 9.78125 9.46875C9.59375 9.71875 9.96875 9.75 10.0937 9.8125C10.4062 9.96875 9.90625 10.125 9.78125 10.0937C9.3125 10 9.21875 9.75 8.9375 9.4375C8.65625 9.8125 7.78125 10.6562 7.59375 9.78125C7.28125 9.90625 6.96875 10.0625 6.625 10.0937C6.78125 9.875 7.09375 9.78125 7.34375 9.65625C7.65625 9.5 7.65625 9.21875 7.84375 8.96875C7.90625 9.0625 7.84375 9.1875 7.875 9.3125C8.125 9.1875 8.4375 8.9375 8.3125 8.625C8.3125 8.59375 7.9375 7.84375 8.25 7.96875C8.53125 8.09375 8.4375 8.375 8.5 8.59375C8.59375 9 8.40625 9.21875 8.09375 9.46875C7.96875 9.5625 7.625 9.9375 8.03125 9.9375C8.3125 9.9375 8.5625 9.625 8.71875 9.4375C8.90625 9.1875 8.84375 8.9375 8.71875 8.65625C8.625 8.4375 8.40625 7.96875 8.6875 7.8125C8.90625 8.15625 9 8.5625 9.09375 8.96875C9.15625 9.3125 9.21875 9.65625 9.59375 9.75C9.5625 9.5 9.71875 9.3125 9.9375 9.21875C9.78125 9.09375 8.90625 9.25 9.25 8.78125C9.28125 8.5625 9.90625 8.46875 9.90625 8.34375Z" fill="white"/>
<path d="M5.12543 9.49933C5.28168 9.93683 5.81293 9.78058 6.12543 9.65558C6.62543 9.40558 6.62543 9.03058 6.62543 8.53058C6.43793 8.62433 6.46918 8.96809 6.40668 9.12434C6.28168 9.37434 5.87543 9.59308 5.59418 9.56183C5.18793 9.49933 5.00043 8.81183 5.31293 8.56183C5.37543 8.78058 5.21918 9.24934 5.59418 9.28059C5.87543 9.31184 6.43793 8.96809 6.34418 8.65559C5.96918 8.78059 5.75043 8.65558 5.87543 8.24933C5.96918 7.87433 6.34418 8.15558 6.50043 8.34309C7.09418 7.99933 6.03168 6.68683 6.65668 6.34308C6.78168 6.56183 6.96918 6.84308 6.81293 7.06183C6.62543 7.31183 6.81293 7.84308 6.84418 8.12433C7.15668 7.84308 6.90668 8.34308 7.15668 8.37433C7.31293 8.40558 7.37543 7.99933 7.46918 7.99933C7.50043 8.09308 7.50043 8.37434 7.65668 8.34309C7.84418 8.28058 7.62543 8.03058 7.81293 7.96808C7.87543 8.12433 7.84418 8.59308 7.62543 8.56183C7.43793 8.53058 7.46918 8.40558 7.25043 8.53058C7.06293 8.62433 7.00043 8.53058 6.87543 8.43683C6.84418 8.81183 6.96918 9.21808 6.75043 9.56183C6.56293 9.84308 6.18793 9.99934 5.87543 10.0618C5.06293 10.2181 4.84418 9.40558 5.12543 8.74933C5.18793 8.93683 5.06293 9.28058 5.12543 9.49933ZM12.7504 9.65558C12.9067 10.0618 13.2192 9.21808 13.3129 9.09308C13.5629 8.71808 13.9379 9.68683 14.0942 9.06183C14.1879 8.65558 14.0629 8.24933 14.0317 7.84308C14.0004 7.56183 13.9067 7.31183 13.7192 7.09308C13.5317 6.84308 13.3442 6.62433 13.4379 6.31183C13.7504 6.43683 13.7504 6.68683 13.9067 6.93683C13.9379 6.74933 13.8129 6.49933 13.9379 6.34308C14.0942 6.12433 14.2192 6.71808 14.2192 6.78058C14.2504 6.93683 14.0942 6.99933 14.1879 7.24933C14.2504 7.43684 14.3754 7.62433 14.5004 7.78058C14.4692 7.59308 14.1879 6.31183 14.5004 6.31183C14.5942 6.31183 14.6879 6.68683 14.6879 6.74933C14.7504 6.93683 14.6254 7.09308 14.6254 7.31183C14.5942 7.68683 14.6567 8.12433 14.9067 8.40558C15.0317 8.56183 15.5004 9.12433 15.2504 9.31183C15.0629 9.09308 14.9379 8.84308 14.7817 8.62433C14.7817 8.87433 14.8442 9.15558 14.7192 9.34308C14.5942 9.28058 14.6567 8.87433 14.6567 8.78058C14.6567 8.43683 14.4379 8.15558 14.2504 7.87434C14.1879 8.34309 14.5629 9.21808 14.1254 9.56183C13.8442 9.81183 13.4692 9.24933 13.3754 9.46808C13.2817 9.62433 13.0629 10.1868 12.8129 10.1243C12.5004 10.0618 12.2817 9.18683 12.6254 9.09308C12.6567 9.24933 12.6567 9.46808 12.7504 9.65558Z" fill="white"/>
<path d="M6.06277 7.53059C6.28152 7.56184 6.06277 6.81184 6.06277 6.68684C6.09402 6.56184 6.18777 6.49934 6.25027 6.62434C6.34402 6.81184 6.34402 7.03059 6.37527 7.21809C6.37527 7.37434 6.40652 7.56184 6.28152 7.68684C6.09402 7.87434 5.84402 7.78059 5.75027 7.53059C5.31277 7.90559 5.87527 8.56184 5.50027 8.93684C5.43777 8.59309 5.50027 8.21809 5.37527 7.90559C5.31277 7.74934 5.03152 7.81184 5.00027 7.53059C5.00027 7.40559 5.09402 7.06184 4.96902 6.96809C4.90652 7.09309 4.84402 8.06184 4.53152 7.78059C4.28152 7.59309 4.34402 6.96809 4.43777 6.71809C4.62527 6.81184 4.40652 7.49934 4.65652 7.53059C4.78152 7.56184 4.81277 7.03059 4.84402 6.93684C4.93777 6.78059 5.25027 6.34309 5.18777 6.78059C5.15652 6.96809 5.00027 7.56184 5.37527 7.53059C5.34402 7.21809 5.31277 6.90559 5.25027 6.59309C5.21902 6.43684 5.31277 6.12434 5.43777 6.40559C5.53152 6.59309 5.46902 6.68684 5.43777 6.87434C5.40652 7.09309 5.50027 7.31184 5.53152 7.49934C5.71902 7.34309 5.46902 6.74934 5.62527 6.49934C6.00027 6.71809 5.59402 7.46809 6.06277 7.53059ZM10.094 7.59309C9.93777 7.81184 9.65652 7.62434 9.53152 7.46809C9.37527 7.65559 9.06277 7.96809 8.81277 7.71809C8.62527 7.53059 8.84402 7.18684 8.68777 7.03059C8.59402 7.18684 8.43777 7.93684 8.15652 7.59309C8.00027 7.40559 7.78152 6.74934 8.12527 6.59309C8.09402 6.84309 8.03152 7.12434 8.18777 7.34309C8.34402 7.56184 8.50027 6.99934 8.56277 6.87434C8.65652 6.65559 8.96902 6.28059 8.90652 6.74934C8.87527 6.93684 8.81277 7.37434 9.00027 7.49934C9.12527 7.59309 9.28152 7.43684 9.34402 7.34309C9.46902 7.18684 9.40652 6.93684 9.37527 6.74934C9.34402 6.59309 9.28152 6.40559 9.37527 6.24934C9.50027 6.06184 9.59402 6.49934 9.59402 6.59309C9.59402 6.68684 9.71902 7.65559 9.93777 7.34309C10.1565 7.06184 9.56277 6.43684 9.96902 6.28059C10.1253 6.21809 10.4065 6.84309 10.094 6.65559C10.1878 6.93684 10.3128 7.34309 10.094 7.59309ZM11.2815 7.96809C11.3128 8.37434 11.6565 9.49934 11.1878 9.74934C11.1253 9.62434 11.1878 9.43684 11.219 9.28059C11.2503 8.99934 11.1878 8.71809 11.1565 8.46809C11.094 7.87434 11.0315 7.43684 10.6253 6.96809C10.5315 6.84309 10.3753 6.74934 10.344 6.56184C10.344 6.49934 10.3128 6.21809 10.4378 6.28059C10.5315 6.31184 11.0628 6.78059 10.7815 6.78059C10.8128 6.84309 10.9378 7.09309 11.0003 7.09309C11.0003 6.93684 10.8128 6.46809 11.0003 6.37434C11.1565 6.28059 11.344 6.87434 11.2815 6.99934C11.219 7.15559 11.219 7.24934 11.2815 7.46809C11.344 7.71809 11.5003 7.93684 11.6253 8.15559C11.8128 8.46809 12.1878 8.90559 12.094 9.31184C11.9065 9.21809 11.7815 8.78059 11.6878 8.59309C11.6253 8.43684 11.5628 8.28059 11.469 8.15559C11.4378 8.12434 11.2503 7.87434 11.2815 8.03059V7.96809ZM15.6253 8.56184C15.6565 9.21809 15.4378 10.0618 14.6253 10.0618C14.6253 9.87434 15.0315 9.68684 15.1565 9.59309C15.469 9.34309 15.4378 8.87434 15.4065 8.53059C15.3753 8.06184 15.344 7.59309 15.2503 7.12434C15.219 6.84309 15.0628 6.43684 15.3128 6.24934C15.469 6.37434 15.6878 6.71809 15.594 6.84309C15.4378 7.03059 15.594 8.43684 15.6253 8.56184Z" fill="white"/>
<path d="M11.625 9.96738C12.4375 9.49863 12.1875 8.49863 12.125 7.71738C12.0938 7.49863 12.0938 7.27988 12.0625 7.06113C12.0625 6.90488 11.9375 6.68613 12 6.52988C12.1563 6.12363 12.2813 6.49863 12.3125 6.74863C12.3438 6.90488 12.2188 6.93613 12.25 7.06113C12.2813 7.31113 12.2813 7.56113 12.3125 7.81113C12.3438 8.21738 12.4063 8.62363 12.375 8.99863C12.3125 9.59238 12 10.2486 11.2813 10.1236C11.3125 10.0611 11.5313 10.0299 11.625 9.96738ZM12.9375 8.40488C12.9688 8.71738 13.0938 9.27988 12.9375 9.56113C12.8125 9.74863 12.8125 9.43613 12.7813 9.40488C12.75 9.15488 12.75 8.90488 12.75 8.62363C12.6875 7.93613 12.4688 7.24863 12.4688 6.59238C12.4688 5.74863 13.1875 7.06113 12.7813 6.99863C12.8125 7.46738 12.875 7.93613 12.9375 8.40488ZM7.84375 6.81113C7.90625 6.96738 7.125 7.37363 7.03125 7.37363C7 7.21738 7.375 6.99863 7.46875 6.93613C7.5625 6.84238 7.625 6.84238 7.59375 6.71738C7.53125 6.59238 7.5625 6.37363 7.71875 6.31113C8.03125 6.21738 7.8125 6.68613 7.84375 6.81113ZM4.625 9.59238C4.625 9.84238 4.71875 9.71738 4.84375 9.65488C4.90625 9.77988 4.75 10.1236 4.59375 9.96738C4.375 9.74863 4.5625 9.24863 4.65625 9.02988C4.71875 9.18613 4.59375 9.43613 4.625 9.59238ZM13.4375 7.65488C13.4688 7.52988 13.375 7.40488 13.4688 7.27988C13.5938 7.12363 13.7188 7.31113 13.6563 7.37363C13.5938 7.43613 13.5 7.31113 13.5 7.49863C13.5 7.59238 13.5625 7.77988 13.4688 7.87363C13.4063 7.84238 13.125 7.43613 13.1563 7.37363C13.2813 7.24863 13.4063 7.62363 13.4375 7.65488ZM5.28125 8.18613C5.21875 8.31113 4.5 8.71738 4.46875 8.62363C4.46875 8.52988 5.375 7.99863 5.28125 8.18613ZM10.5938 9.77988C10.5 10.0611 10.9063 9.81113 11 9.77988C10.875 9.99863 10.4375 10.1861 10.5 9.77988C10.4688 9.77988 10.4063 9.81113 10.375 9.81113C10.3125 9.74863 10.6875 9.49863 10.5938 9.77988ZM14 9.68613C14.0938 9.68613 14.25 9.96738 14.1563 10.0299C14.0938 10.0924 13.8125 10.1236 13.9688 9.99863C14.1563 9.81113 14 9.68613 14 9.68613ZM9.59375 8.09238C9.625 8.02988 9.625 7.93613 9.65625 7.87363C9.96875 8.12363 9.15625 8.52988 9.3125 7.93613C9.375 7.99863 9.375 8.09238 9.4375 8.12363C9.4375 8.06113 9.46875 7.96738 9.46875 7.90488C9.53125 7.96738 9.53125 8.06113 9.59375 8.09238ZM13.25 8.49863C13.1563 8.37363 13.7188 8.02988 13.8125 7.96738C13.875 8.06113 13.4375 8.40488 13.25 8.49863ZM15 7.24863C14.9375 7.06113 14.75 6.68613 14.9375 6.52988C15.0625 6.62363 15.125 7.09238 15 7.24863ZM11.5938 6.62363C11.5625 6.56113 11.4688 6.49863 11.4688 6.40488C11.5 6.27988 11.5625 6.31113 11.625 6.37363C11.7188 6.49863 11.7813 6.84238 11.625 6.93613C11.625 6.84238 11.6563 6.71738 11.5938 6.62363ZM7.78125 7.46738C7.78125 7.65488 7.46875 7.84238 7.4375 7.59238C7.40625 7.49863 7.5625 7.15488 7.625 7.24863C7.5 7.52988 7.5 7.62363 7.78125 7.46738Z" fill="white"/>
<path d="M11.688 7.12493C11.813 7.43743 11.7505 7.15618 11.8755 7.09368C12.0942 7.49993 11.4067 7.40618 11.563 7.15618C11.5942 7.18743 11.6255 7.24993 11.6255 7.28118C11.6567 7.24993 11.6567 7.18743 11.688 7.12493ZM13.688 8.56243C13.5317 8.43743 13.7192 8.28118 13.813 8.43743C13.8755 8.53118 13.8755 8.78118 13.7505 8.84368C13.7505 8.74993 13.7817 8.62493 13.688 8.56243ZM7.28175 9.24993C7.28175 9.18743 7.2505 8.71868 7.34425 8.78118C7.46925 8.84368 7.438 9.18743 7.28175 9.24993ZM5.96925 6.31243C6.0005 6.40618 6.03175 6.53118 6.09425 6.37493C6.34425 6.65618 5.46925 6.56243 5.78175 6.28118C5.78175 6.31243 5.84425 6.49993 5.96925 6.31243ZM9.15675 6.99993C9.15675 6.87493 8.96925 6.34368 9.1255 6.34368C9.313 6.37493 9.28175 6.84368 9.15675 6.99993ZM4.78175 6.71868C4.688 6.68743 4.84425 6.53118 4.78175 6.40618C4.71925 6.43743 4.65675 6.34368 4.71925 6.28118C4.96925 6.09368 4.8755 6.71868 4.78175 6.71868ZM12.8755 13.0624L12.7505 12.6874L12.6255 13.0624H5.78175C5.78175 13.0624 5.84425 13.6249 6.53175 13.6249H12.5942V14.0624H14.2505V13.0624H12.8755ZM13.938 13.8124H12.813V13.4999H13.938V13.8124Z" fill="white"/>
</g>
<defs>
<clipPath id="clip0_74_41804">
<rect width="20" height="20" fill="white"/>
</clipPath>
</defs>
</svg>
