<svg width="22" height="20" viewBox="0 0 22 20" fill="none" xmlns="http://www.w3.org/2000/svg">
<g clip-path="url(#clip0_28_3696)">
<path d="M16.3427 12.9296C17.5531 11.278 18.0952 9.23025 17.8606 7.19607C17.626 5.1619 16.6319 3.29131 15.0774 1.95855C13.5228 0.625789 11.5224 -0.0708582 9.47623 0.00798323C7.43009 0.0868247 5.48917 0.93534 4.04177 2.38377C2.59437 3.8322 1.74725 5.77373 1.66987 7.81993C1.59249 9.86613 2.29057 11.8661 3.62444 13.4197C4.95832 14.9733 6.82962 15.966 8.86396 16.1991C10.8983 16.4323 12.9457 15.8887 14.5964 14.6771H14.5952C14.6319 14.7271 14.6727 14.7751 14.7177 14.8209L19.5302 19.6334C19.7646 19.8679 20.0825 19.9998 20.4141 19.9999C20.7457 20 21.0638 19.8684 21.2983 19.634C21.5329 19.3996 21.6647 19.0817 21.6648 18.7501C21.6649 18.4185 21.5333 18.1004 21.2989 17.8659L16.4864 13.0534C16.4418 13.0081 16.3937 12.9676 16.3427 12.9296ZM16.6652 8.12464C16.6652 9.02748 16.4874 9.92147 16.1419 10.7556C15.7964 11.5897 15.2899 12.3476 14.6515 12.986C14.0131 13.6244 13.2552 14.1308 12.4211 14.4763C11.587 14.8218 10.693 14.9996 9.79018 14.9996C8.88735 14.9996 7.99335 14.8218 7.15924 14.4763C6.32512 14.1308 5.56723 13.6244 4.92883 12.986C4.29042 12.3476 3.78401 11.5897 3.43851 10.7556C3.09301 9.92147 2.91518 9.02748 2.91518 8.12464C2.91518 6.30127 3.63951 4.55259 4.92883 3.26328C6.21814 1.97397 7.96682 1.24964 9.79018 1.24964C11.6135 1.24964 13.3622 1.97397 14.6515 3.26328C15.9409 4.55259 16.6652 6.30127 16.6652 8.12464Z" fill="#9197B3"/>
</g>
<defs>
<clipPath id="clip0_28_3696">
<rect width="21.6667" height="20" fill="white"/>
</clipPath>
</defs>
</svg>
