<svg width="18" height="18" viewBox="0 0 18 18" fill="none" xmlns="http://www.w3.org/2000/svg">
<g clip-path="url(#clip0_431_16270)">
<path d="M15.1878 1.12535C14.7402 1.12535 14.311 1.30314 13.9946 1.61961C13.6781 1.93608 13.5003 2.3653 13.5003 2.81285C13.5003 3.26041 13.6781 3.68963 13.9946 4.0061C14.311 4.32256 14.7402 4.50035 15.1878 4.50035C15.6354 4.50035 16.0646 4.32256 16.381 4.0061C16.6975 3.68963 16.8753 3.26041 16.8753 2.81285C16.8753 2.3653 16.6975 1.93608 16.381 1.61961C16.0646 1.30314 15.6354 1.12535 15.1878 1.12535ZM12.3753 2.81285C12.3752 2.15297 12.6072 1.51406 13.0306 1.00792C13.454 0.501773 14.0419 0.160625 14.6914 0.0441575C15.3409 -0.0723097 16.0107 0.0433208 16.5836 0.370818C17.1565 0.698316 17.596 1.21683 17.8252 1.83563C18.0544 2.45444 18.0587 3.13413 17.8374 3.7558C17.6161 4.37746 17.1832 4.90152 16.6145 5.23626C16.0458 5.57101 15.3776 5.69514 14.7266 5.58694C14.0757 5.47873 13.4835 5.14508 13.0537 4.64435L5.49592 8.15435C5.6696 8.70498 5.6696 9.29572 5.49592 9.84635L13.0537 13.3564C13.508 12.828 14.1423 12.4871 14.8336 12.3997C15.525 12.3124 16.2242 12.4848 16.7956 12.8835C17.3671 13.2823 17.7702 13.879 17.9268 14.558C18.0834 15.237 17.9823 15.95 17.6432 16.5588C17.3041 17.1675 16.751 17.6287 16.0913 17.8529C15.4315 18.0772 14.712 18.0485 14.0721 17.7724C13.4323 17.4964 12.9177 16.9927 12.6281 16.3588C12.3385 15.725 12.2945 15.0063 12.5047 14.3419L4.94692 10.8319C4.57279 11.2679 4.07409 11.5788 3.51792 11.7229C2.96176 11.8671 2.3748 11.8374 1.836 11.6379C1.29721 11.4384 0.832434 11.0787 0.504194 10.6072C0.175955 10.1356 0 9.57489 0 9.00035C0 8.42582 0.175955 7.86507 0.504194 7.39353C0.832434 6.92199 1.29721 6.56229 1.836 6.36281C2.3748 6.16334 2.96176 6.13365 3.51792 6.27776C4.07409 6.42186 4.57279 6.73284 4.94692 7.16885L12.5047 3.65885C12.4186 3.3851 12.375 3.0998 12.3753 2.81285ZM2.8128 7.31285C2.36525 7.31285 1.93602 7.49064 1.61956 7.80711C1.30309 8.12358 1.1253 8.5528 1.1253 9.00035C1.1253 9.44791 1.30309 9.87713 1.61956 10.1936C1.93602 10.5101 2.36525 10.6879 2.8128 10.6879C3.26035 10.6879 3.68957 10.5101 4.00604 10.1936C4.32251 9.87713 4.5003 9.44791 4.5003 9.00035C4.5003 8.5528 4.32251 8.12358 4.00604 7.80711C3.68957 7.49064 3.26035 7.31285 2.8128 7.31285ZM15.1878 13.5004C14.7402 13.5004 14.311 13.6781 13.9946 13.9946C13.6781 14.3111 13.5003 14.7403 13.5003 15.1879C13.5003 15.6354 13.6781 16.0646 13.9946 16.3811C14.311 16.6976 14.7402 16.8754 15.1878 16.8754C15.6354 16.8754 16.0646 16.6976 16.381 16.3811C16.6975 16.0646 16.8753 15.6354 16.8753 15.1879C16.8753 14.7403 16.6975 14.3111 16.381 13.9946C16.0646 13.6781 15.6354 13.5004 15.1878 13.5004Z" fill="#0C74C2"/>
</g>
<defs>
<clipPath id="clip0_431_16270">
<rect width="18" height="18" fill="white"/>
</clipPath>
</defs>
</svg>
