<svg width="80" height="80" viewBox="0 0 80 80" fill="none" xmlns="http://www.w3.org/2000/svg">
<path d="M38.1993 3.79052C39.3693 3.41097 40.6294 3.41097 41.7993 3.79052L69.2994 12.7072C70.4712 13.0873 71.4927 13.8288 72.2172 14.8252C72.9418 15.8216 73.3323 17.0218 73.3327 18.2539V35.0005C73.3327 55.6339 60.766 70.6839 41.996 77.7672C40.709 78.2517 39.2897 78.2517 38.0027 77.7672C19.236 70.6805 6.66602 55.6339 6.66602 35.0005V18.2539C6.66602 15.7205 8.29935 13.4872 10.6993 12.7072L38.1993 3.79052ZM40.256 8.54385C40.0892 8.48984 39.9095 8.48984 39.7427 8.54385L12.2427 17.4672C12.0756 17.5213 11.9298 17.6268 11.8263 17.7687C11.7227 17.9106 11.6666 18.0815 11.666 18.2572V35.0005C11.666 53.2038 22.5993 66.6105 39.766 73.0872C39.9165 73.1434 40.0822 73.1434 40.2327 73.0872C57.3993 66.6105 68.3327 53.2038 68.3327 35.0005V18.2539C68.3321 18.0782 68.276 17.9072 68.1724 17.7654C68.0689 17.6235 67.9231 17.518 67.756 17.4639L40.256 8.54385ZM43.3327 40.7739V50.0005C43.3327 50.8846 42.9815 51.7324 42.3564 52.3575C41.7312 52.9827 40.8834 53.3339 39.9993 53.3339C39.1153 53.3339 38.2674 52.9827 37.6423 52.3575C37.0172 51.7324 36.666 50.8846 36.666 50.0005V40.7739C35.3951 40.0401 34.4018 38.9074 33.8402 37.5516C33.2785 36.1957 33.18 34.6924 33.5598 33.2749C33.9397 31.8573 34.7766 30.6047 35.9409 29.7113C37.1052 28.8179 38.5318 28.3337 39.9993 28.3337C41.4669 28.3337 42.8935 28.8179 44.0578 29.7113C45.222 30.6047 46.059 31.8573 46.4389 33.2749C46.8187 34.6924 46.7202 36.1957 46.1585 37.5516C45.5969 38.9074 44.6036 40.0401 43.3327 40.7739Z" fill="#0C74C2"/>
</svg>
