<svg width="24" height="24" viewBox="0 0 24 24" fill="none" xmlns="http://www.w3.org/2000/svg">
<path d="M15 22.75H9C3.57 22.75 1.25 20.43 1.25 15V9C1.25 3.57 3.57 1.25 9 1.25H15C20.43 1.25 22.75 3.57 22.75 9V15C22.75 20.43 20.43 22.75 15 22.75ZM9 2.75C4.39 2.75 2.75 4.39 2.75 9V15C2.75 19.61 4.39 21.25 9 21.25H15C19.61 21.25 21.25 19.61 21.25 15V9C21.25 4.39 19.61 2.75 15 2.75H9Z" fill="#9197B3"/>
<path d="M12.0006 13.0787C11.8706 13.0787 11.7406 13.0487 11.6206 12.9787L6.32061 9.91872C5.96061 9.70872 5.84059 9.24872 6.05059 8.89872C6.26059 8.53872 6.72061 8.41872 7.07061 8.62872L11.9906 11.4787L16.8806 8.64872C17.2406 8.43872 17.7006 8.56872 17.9006 8.91872C18.1006 9.26872 17.9806 9.73872 17.6306 9.93872L12.3706 12.9787C12.2606 13.0387 12.1306 13.0787 12.0006 13.0787Z" fill="#9197B3"/>
<path d="M12 18.5201C11.59 18.5201 11.25 18.1801 11.25 17.7701V12.3301C11.25 11.9201 11.59 11.5801 12 11.5801C12.41 11.5801 12.75 11.9201 12.75 12.3301V17.7701C12.75 18.1801 12.41 18.5201 12 18.5201Z" fill="#9197B3"/>
<path d="M12.0002 18.7488C11.4202 18.7488 10.8503 18.6188 10.3903 18.3688L7.19025 16.5888C6.23025 16.0588 5.49023 14.7888 5.49023 13.6888V10.2988C5.49023 9.20884 6.24025 7.93883 7.19025 7.39883L10.3903 5.61883C11.3103 5.10883 12.6902 5.10883 13.6102 5.61883L16.8102 7.39883C17.7702 7.92883 18.5103 9.19884 18.5103 10.2988V13.6888C18.5103 14.7788 17.7602 16.0488 16.8102 16.5888L13.6102 18.3688C13.1502 18.6288 12.5802 18.7488 12.0002 18.7488ZM12.0002 6.74883C11.6702 6.74883 11.3502 6.80883 11.1202 6.93883L7.92026 8.71883C7.43026 8.98883 6.99023 9.74883 6.99023 10.2988V13.6888C6.99023 14.2488 7.43026 14.9988 7.92026 15.2688L11.1202 17.0488C11.5802 17.3088 12.4202 17.3088 12.8802 17.0488L16.0802 15.2688C16.5702 14.9988 17.0103 14.2388 17.0103 13.6888V10.2988C17.0103 9.73884 16.5702 8.98883 16.0802 8.71883L12.8802 6.93883C12.6502 6.80883 12.3302 6.74883 12.0002 6.74883Z" fill="#9197B3"/>
</svg>
