<svg width="144" height="70" viewBox="0 0 144 70" fill="none" xmlns="http://www.w3.org/2000/svg">
<g clip-path="url(#clip0_74_36693)">
<path d="M15.7914 15.28L17.7989 21.4601L11.0037 16.5211L15.7914 15.28ZM22 8.53331H13.5988L11.0046 0.539062L8.40125 8.53515L0 8.52415L6.8035 13.4714L4.20017 21.4592L11.0037 16.5211L15.2048 13.4714L22 8.53331Z" fill="white"/>
</g>
<path d="M34.2774 8.436V10.47H30.9294V21H28.4094V10.47H25.0614V8.436H34.2774ZM38.636 12.576C38.96 12.048 39.38 11.634 39.896 11.334C40.424 11.034 41.024 10.884 41.696 10.884V13.53H41.03C40.238 13.53 39.638 13.716 39.23 14.088C38.834 14.46 38.636 15.108 38.636 16.032V21H36.116V11.028H38.636V12.576ZM52.8074 11.028V21H50.2694V19.74C49.9454 20.172 49.5194 20.514 48.9914 20.766C48.4754 21.006 47.9114 21.126 47.2994 21.126C46.5194 21.126 45.8294 20.964 45.2294 20.64C44.6294 20.304 44.1554 19.818 43.8074 19.182C43.4714 18.534 43.3034 17.766 43.3034 16.878V11.028H45.8234V16.518C45.8234 17.31 46.0214 17.922 46.4174 18.354C46.8134 18.774 47.3534 18.984 48.0374 18.984C48.7334 18.984 49.2794 18.774 49.6754 18.354C50.0714 17.922 50.2694 17.31 50.2694 16.518V11.028H52.8074ZM59.1098 21.162C58.2938 21.162 57.5618 21.018 56.9138 20.73C56.2658 20.43 55.7498 20.028 55.3658 19.524C54.9938 19.02 54.7898 18.462 54.7538 17.85H57.2918C57.3398 18.234 57.5258 18.552 57.8498 18.804C58.1858 19.056 58.5998 19.182 59.0918 19.182C59.5718 19.182 59.9438 19.086 60.2078 18.894C60.4838 18.702 60.6218 18.456 60.6218 18.156C60.6218 17.832 60.4538 17.592 60.1178 17.436C59.7938 17.268 59.2718 17.088 58.5518 16.896C57.8078 16.716 57.1958 16.53 56.7158 16.338C56.2478 16.146 55.8398 15.852 55.4918 15.456C55.1558 15.06 54.9878 14.526 54.9878 13.854C54.9878 13.302 55.1438 12.798 55.4558 12.342C55.7798 11.886 56.2358 11.526 56.8238 11.262C57.4238 10.998 58.1258 10.866 58.9298 10.866C60.1178 10.866 61.0658 11.166 61.7738 11.766C62.4818 12.354 62.8718 13.152 62.9438 14.16H60.5318C60.4958 13.764 60.3278 13.452 60.0278 13.224C59.7398 12.984 59.3498 12.864 58.8578 12.864C58.4018 12.864 58.0478 12.948 57.7958 13.116C57.5558 13.284 57.4358 13.518 57.4358 13.818C57.4358 14.154 57.6038 14.412 57.9398 14.592C58.2758 14.76 58.7978 14.934 59.5058 15.114C60.2258 15.294 60.8198 15.48 61.2878 15.672C61.7558 15.864 62.1578 16.164 62.4938 16.572C62.8418 16.968 63.0218 17.496 63.0338 18.156C63.0338 18.732 62.8718 19.248 62.5478 19.704C62.2358 20.16 61.7798 20.52 61.1798 20.784C60.5918 21.036 59.9018 21.162 59.1098 21.162ZM68.0364 13.098V17.922C68.0364 18.258 68.1144 18.504 68.2704 18.66C68.4384 18.804 68.7144 18.876 69.0984 18.876H70.2684V21H68.6844C66.5604 21 65.4984 19.968 65.4984 17.904V13.098H64.3104V11.028H65.4984V8.562H68.0364V11.028H70.2684V13.098H68.0364ZM74.6009 12.468C74.9249 12.012 75.3689 11.634 75.9329 11.334C76.5089 11.022 77.1629 10.866 77.8949 10.866C78.7469 10.866 79.5149 11.076 80.1989 11.496C80.8949 11.916 81.4409 12.516 81.8369 13.296C82.2449 14.064 82.4489 14.958 82.4489 15.978C82.4489 16.998 82.2449 17.904 81.8369 18.696C81.4409 19.476 80.8949 20.082 80.1989 20.514C79.5149 20.946 78.7469 21.162 77.8949 21.162C77.1629 21.162 76.5149 21.012 75.9509 20.712C75.3989 20.412 74.9489 20.034 74.6009 19.578V25.752H72.0809V11.028H74.6009V12.468ZM79.8749 15.978C79.8749 15.378 79.7489 14.862 79.4969 14.43C79.2569 13.986 78.9329 13.65 78.5249 13.422C78.1289 13.194 77.6969 13.08 77.2289 13.08C76.7729 13.08 76.3409 13.2 75.9329 13.44C75.5369 13.668 75.2129 14.004 74.9609 14.448C74.7209 14.892 74.6009 15.414 74.6009 16.014C74.6009 16.614 74.7209 17.136 74.9609 17.58C75.2129 18.024 75.5369 18.366 75.9329 18.606C76.3409 18.834 76.7729 18.948 77.2289 18.948C77.6969 18.948 78.1289 18.828 78.5249 18.588C78.9329 18.348 79.2569 18.006 79.4969 17.562C79.7489 17.118 79.8749 16.59 79.8749 15.978ZM85.5581 9.84C85.1141 9.84 84.7421 9.702 84.4421 9.426C84.1541 9.138 84.0101 8.784 84.0101 8.364C84.0101 7.944 84.1541 7.596 84.4421 7.32C84.7421 7.032 85.1141 6.888 85.5581 6.888C86.0021 6.888 86.3681 7.032 86.6561 7.32C86.9561 7.596 87.1061 7.944 87.1061 8.364C87.1061 8.784 86.9561 9.138 86.6561 9.426C86.3681 9.702 86.0021 9.84 85.5581 9.84ZM86.8001 11.028V21H84.2801V11.028H86.8001ZM91.8099 7.68V21H89.2899V7.68H91.8099ZM98.7276 21.162C97.7676 21.162 96.9036 20.952 96.1356 20.532C95.3676 20.1 94.7616 19.494 94.3176 18.714C93.8856 17.934 93.6696 17.034 93.6696 16.014C93.6696 14.994 93.8916 14.094 94.3356 13.314C94.7916 12.534 95.4096 11.934 96.1896 11.514C96.9696 11.082 97.8396 10.866 98.7996 10.866C99.7596 10.866 100.63 11.082 101.41 11.514C102.19 11.934 102.802 12.534 103.246 13.314C103.702 14.094 103.93 14.994 103.93 16.014C103.93 17.034 103.696 17.934 103.228 18.714C102.772 19.494 102.148 20.1 101.356 20.532C100.576 20.952 99.6996 21.162 98.7276 21.162ZM98.7276 18.966C99.1836 18.966 99.6096 18.858 100.006 18.642C100.414 18.414 100.738 18.078 100.978 17.634C101.218 17.19 101.338 16.65 101.338 16.014C101.338 15.066 101.086 14.34 100.582 13.836C100.09 13.32 99.4836 13.062 98.7636 13.062C98.0436 13.062 97.4376 13.32 96.9456 13.836C96.4656 14.34 96.2256 15.066 96.2256 16.014C96.2256 16.962 96.4596 17.694 96.9276 18.21C97.4076 18.714 98.0076 18.966 98.7276 18.966ZM108.712 13.098V17.922C108.712 18.258 108.79 18.504 108.946 18.66C109.114 18.804 109.39 18.876 109.774 18.876H110.944V21H109.36C107.236 21 106.174 19.968 106.174 17.904V13.098H104.986V11.028H106.174V8.562H108.712V11.028H110.944V13.098H108.712Z" fill="white"/>
<path d="M6.59254 59.05V59.98H4.74254V66H3.60254V59.98H1.74254V59.05H6.59254ZM8.88707 61.29C9.05374 61.01 9.27374 60.7933 9.54707 60.64C9.82707 60.48 10.1571 60.4 10.5371 60.4V61.58H10.2471C9.8004 61.58 9.4604 61.6933 9.22707 61.92C9.0004 62.1467 8.88707 62.54 8.88707 63.1V66H7.74707V60.49H8.88707V61.29ZM16.575 60.49V66H15.435V65.35C15.255 65.5767 15.0183 65.7567 14.725 65.89C14.4383 66.0167 14.1316 66.08 13.805 66.08C13.3716 66.08 12.9816 65.99 12.635 65.81C12.295 65.63 12.025 65.3633 11.825 65.01C11.6316 64.6567 11.535 64.23 11.535 63.73V60.49H12.665V63.56C12.665 64.0533 12.7883 64.4333 13.035 64.7C13.2816 64.96 13.6183 65.09 14.045 65.09C14.4716 65.09 14.8083 64.96 15.055 64.7C15.3083 64.4333 15.435 64.0533 15.435 63.56V60.49H16.575ZM20.0791 66.09C19.6458 66.09 19.2558 66.0133 18.9091 65.86C18.5691 65.7 18.2991 65.4867 18.0991 65.22C17.8991 64.9467 17.7924 64.6433 17.7791 64.31H18.9591C18.9791 64.5433 19.0891 64.74 19.2891 64.9C19.4958 65.0533 19.7524 65.13 20.0591 65.13C20.3791 65.13 20.6258 65.07 20.7991 64.95C20.9791 64.8233 21.0691 64.6633 21.0691 64.47C21.0691 64.2633 20.9691 64.11 20.7691 64.01C20.5758 63.91 20.2658 63.8 19.8391 63.68C19.4258 63.5667 19.0891 63.4567 18.8291 63.35C18.5691 63.2433 18.3424 63.08 18.1491 62.86C17.9624 62.64 17.8691 62.35 17.8691 61.99C17.8691 61.6967 17.9558 61.43 18.1291 61.19C18.3024 60.9433 18.5491 60.75 18.8691 60.61C19.1958 60.47 19.5691 60.4 19.9891 60.4C20.6158 60.4 21.1191 60.56 21.4991 60.88C21.8858 61.1933 22.0924 61.6233 22.1191 62.17H20.9791C20.9591 61.9233 20.8591 61.7267 20.6791 61.58C20.4991 61.4333 20.2558 61.36 19.9491 61.36C19.6491 61.36 19.4191 61.4167 19.2591 61.53C19.0991 61.6433 19.0191 61.7933 19.0191 61.98C19.0191 62.1267 19.0724 62.25 19.1791 62.35C19.2858 62.45 19.4158 62.53 19.5691 62.59C19.7224 62.6433 19.9491 62.7133 20.2491 62.8C20.6491 62.9067 20.9758 63.0167 21.2291 63.13C21.4891 63.2367 21.7124 63.3967 21.8991 63.61C22.0858 63.8233 22.1824 64.1067 22.1891 64.46C22.1891 64.7733 22.1024 65.0533 21.9291 65.3C21.7558 65.5467 21.5091 65.74 21.1891 65.88C20.8758 66.02 20.5058 66.09 20.0791 66.09ZM24.7509 61.42V64.47C24.7509 64.6767 24.7976 64.8267 24.8909 64.92C24.9909 65.0067 25.1576 65.05 25.3909 65.05H26.0909V66H25.1909C24.6776 66 24.2842 65.88 24.0109 65.64C23.7376 65.4 23.6009 65.01 23.6009 64.47V61.42H22.9509V60.49H23.6009V59.12H24.7509V60.49H26.0909V61.42H24.7509ZM29.4316 66.07C28.9649 66.07 28.5449 65.99 28.1716 65.83C27.7983 65.6633 27.5049 65.43 27.2916 65.13C27.0783 64.83 26.9716 64.48 26.9716 64.08H28.1916C28.2183 64.38 28.3349 64.6267 28.5416 64.82C28.7549 65.0133 29.0516 65.11 29.4316 65.11C29.8249 65.11 30.1316 65.0167 30.3516 64.83C30.5716 64.6367 30.6816 64.39 30.6816 64.09C30.6816 63.8567 30.6116 63.6667 30.4716 63.52C30.3383 63.3733 30.1683 63.26 29.9616 63.18C29.7616 63.1 29.4816 63.0133 29.1216 62.92C28.6683 62.8 28.2983 62.68 28.0116 62.56C27.7316 62.4333 27.4916 62.24 27.2916 61.98C27.0916 61.72 26.9916 61.3733 26.9916 60.94C26.9916 60.54 27.0916 60.19 27.2916 59.89C27.4916 59.59 27.7716 59.36 28.1316 59.2C28.4916 59.04 28.9083 58.96 29.3816 58.96C30.0549 58.96 30.6049 59.13 31.0316 59.47C31.4649 59.8033 31.7049 60.2633 31.7516 60.85H30.4916C30.4716 60.5967 30.3516 60.38 30.1316 60.2C29.9116 60.02 29.6216 59.93 29.2616 59.93C28.9349 59.93 28.6683 60.0133 28.4616 60.18C28.2549 60.3467 28.1516 60.5867 28.1516 60.9C28.1516 61.1133 28.2149 61.29 28.3416 61.43C28.4749 61.5633 28.6416 61.67 28.8416 61.75C29.0416 61.83 29.3149 61.9167 29.6616 62.01C30.1216 62.1367 30.4949 62.2633 30.7816 62.39C31.0749 62.5167 31.3216 62.7133 31.5216 62.98C31.7283 63.24 31.8316 63.59 31.8316 64.03C31.8316 64.3833 31.7349 64.7167 31.5416 65.03C31.3549 65.3433 31.0783 65.5967 30.7116 65.79C30.3516 65.9767 29.9249 66.07 29.4316 66.07ZM32.7968 63.24C32.7968 62.6733 32.9101 62.1767 33.1368 61.75C33.3701 61.3167 33.6901 60.9833 34.0968 60.75C34.5034 60.5167 34.9701 60.4 35.4968 60.4C36.1634 60.4 36.7134 60.56 37.1468 60.88C37.5868 61.1933 37.8834 61.6433 38.0368 62.23H36.8068C36.7068 61.9567 36.5468 61.7433 36.3268 61.59C36.1068 61.4367 35.8301 61.36 35.4968 61.36C35.0301 61.36 34.6568 61.5267 34.3768 61.86C34.1034 62.1867 33.9668 62.6467 33.9668 63.24C33.9668 63.8333 34.1034 64.2967 34.3768 64.63C34.6568 64.9633 35.0301 65.13 35.4968 65.13C36.1568 65.13 36.5934 64.84 36.8068 64.26H38.0368C37.8768 64.82 37.5768 65.2667 37.1368 65.6C36.6968 65.9267 36.1501 66.09 35.4968 66.09C34.9701 66.09 34.5034 65.9733 34.0968 65.74C33.6901 65.5 33.3701 65.1667 33.1368 64.74C32.9101 64.3067 32.7968 63.8067 32.7968 63.24ZM41.5629 66.09C41.0429 66.09 40.5729 65.9733 40.1529 65.74C39.7329 65.5 39.4029 65.1667 39.1629 64.74C38.9229 64.3067 38.8029 63.8067 38.8029 63.24C38.8029 62.68 38.9262 62.1833 39.1729 61.75C39.4195 61.3167 39.7562 60.9833 40.1829 60.75C40.6095 60.5167 41.0862 60.4 41.6129 60.4C42.1395 60.4 42.6162 60.5167 43.0429 60.75C43.4695 60.9833 43.8062 61.3167 44.0529 61.75C44.2995 62.1833 44.4229 62.68 44.4229 63.24C44.4229 63.8 44.2962 64.2967 44.0429 64.73C43.7895 65.1633 43.4429 65.5 43.0029 65.74C42.5695 65.9733 42.0895 66.09 41.5629 66.09ZM41.5629 65.1C41.8562 65.1 42.1295 65.03 42.3829 64.89C42.6429 64.75 42.8529 64.54 43.0129 64.26C43.1729 63.98 43.2529 63.64 43.2529 63.24C43.2529 62.84 43.1762 62.5033 43.0229 62.23C42.8695 61.95 42.6662 61.74 42.4129 61.6C42.1595 61.46 41.8862 61.39 41.5929 61.39C41.2995 61.39 41.0262 61.46 40.7729 61.6C40.5262 61.74 40.3295 61.95 40.1829 62.23C40.0362 62.5033 39.9629 62.84 39.9629 63.24C39.9629 63.8333 40.1129 64.2933 40.4129 64.62C40.7195 64.94 41.1029 65.1 41.5629 65.1ZM46.6898 61.29C46.8565 61.01 47.0765 60.7933 47.3498 60.64C47.6298 60.48 47.9598 60.4 48.3398 60.4V61.58H48.0498C47.6031 61.58 47.2631 61.6933 47.0298 61.92C46.8031 62.1467 46.6898 62.54 46.6898 63.1V66H45.5498V60.49H46.6898V61.29ZM54.4377 63.11C54.4377 63.3167 54.4244 63.5033 54.3977 63.67H50.1877C50.221 64.11 50.3844 64.4633 50.6777 64.73C50.971 64.9967 51.331 65.13 51.7577 65.13C52.371 65.13 52.8044 64.8733 53.0577 64.36H54.2877C54.121 64.8667 53.8177 65.2833 53.3777 65.61C52.9444 65.93 52.4044 66.09 51.7577 66.09C51.231 66.09 50.7577 65.9733 50.3377 65.74C49.9244 65.5 49.5977 65.1667 49.3577 64.74C49.1244 64.3067 49.0077 63.8067 49.0077 63.24C49.0077 62.6733 49.121 62.1767 49.3477 61.75C49.581 61.3167 49.9044 60.9833 50.3177 60.75C50.7377 60.5167 51.2177 60.4 51.7577 60.4C52.2777 60.4 52.741 60.5133 53.1477 60.74C53.5544 60.9667 53.871 61.2867 54.0977 61.7C54.3244 62.1067 54.4377 62.5767 54.4377 63.11ZM53.2477 62.75C53.241 62.33 53.091 61.9933 52.7977 61.74C52.5044 61.4867 52.141 61.36 51.7077 61.36C51.3144 61.36 50.9777 61.4867 50.6977 61.74C50.4177 61.9867 50.251 62.3233 50.1977 62.75H53.2477ZM57.8672 64.48V63.62L61.2272 58.8H62.6072V63.49H63.5372V64.48H62.6072V66H61.4872V64.48H57.8672ZM61.5372 59.96L59.1772 63.49H61.5372V59.96ZM65.0918 66.07C64.8852 66.07 64.7118 66 64.5718 65.86C64.4318 65.72 64.3618 65.5467 64.3618 65.34C64.3618 65.1333 64.4318 64.96 64.5718 64.82C64.7118 64.68 64.8852 64.61 65.0918 64.61C65.2918 64.61 65.4618 64.68 65.6018 64.82C65.7418 64.96 65.8118 65.1333 65.8118 65.34C65.8118 65.5467 65.7418 65.72 65.6018 65.86C65.4618 66 65.2918 66.07 65.0918 66.07ZM68.3139 64.02C68.3806 64.3533 68.5239 64.6067 68.7439 64.78C68.9639 64.9533 69.2606 65.04 69.6339 65.04C70.1073 65.04 70.4539 64.8533 70.6739 64.48C70.8939 64.1067 71.0039 63.47 71.0039 62.57C70.8439 62.7967 70.6173 62.9733 70.3239 63.1C70.0373 63.22 69.7239 63.28 69.3839 63.28C68.9506 63.28 68.5573 63.1933 68.2039 63.02C67.8506 62.84 67.5706 62.5767 67.3639 62.23C67.1639 61.8767 67.0639 61.45 67.0639 60.95C67.0639 60.2167 67.2773 59.6333 67.7039 59.2C68.1373 58.76 68.7306 58.54 69.4839 58.54C70.3906 58.54 71.0339 58.8433 71.4139 59.45C71.8006 60.05 71.9939 60.9733 71.9939 62.22C71.9939 63.08 71.9206 63.7833 71.7739 64.33C71.6339 64.8767 71.3873 65.29 71.0339 65.57C70.6806 65.85 70.1906 65.99 69.5639 65.99C68.8506 65.99 68.3006 65.8033 67.9139 65.43C67.5273 65.0567 67.3106 64.5867 67.2639 64.02H68.3139ZM69.5839 62.32C69.9839 62.32 70.2973 62.1967 70.5239 61.95C70.7573 61.6967 70.8739 61.3633 70.8739 60.95C70.8739 60.49 70.7506 60.1333 70.5039 59.88C70.2639 59.62 69.9339 59.49 69.5139 59.49C69.0939 59.49 68.7606 59.6233 68.5139 59.89C68.2739 60.15 68.1539 60.4933 68.1539 60.92C68.1539 61.3267 68.2706 61.6633 68.5039 61.93C68.7439 62.19 69.1039 62.32 69.5839 62.32ZM77.4293 67.13H76.2893V57.99H77.4293V67.13ZM88.9768 59.69H85.6268V61.68C85.7668 61.4933 85.9734 61.3367 86.2468 61.21C86.5268 61.0833 86.8234 61.02 87.1368 61.02C87.6968 61.02 88.1501 61.14 88.4968 61.38C88.8501 61.62 89.1001 61.9233 89.2468 62.29C89.4001 62.6567 89.4768 63.0433 89.4768 63.45C89.4768 63.9433 89.3801 64.3833 89.1868 64.77C89.0001 65.15 88.7168 65.45 88.3368 65.67C87.9634 65.89 87.5034 66 86.9568 66C86.2301 66 85.6468 65.82 85.2068 65.46C84.7668 65.1 84.5034 64.6233 84.4168 64.03H85.5268C85.6001 64.3433 85.7634 64.5933 86.0168 64.78C86.2701 64.96 86.5868 65.05 86.9668 65.05C87.4401 65.05 87.7934 64.9067 88.0268 64.62C88.2668 64.3333 88.3868 63.9533 88.3868 63.48C88.3868 63 88.2668 62.6333 88.0268 62.38C87.7868 62.12 87.4334 61.99 86.9668 61.99C86.6401 61.99 86.3634 62.0733 86.1368 62.24C85.9168 62.4 85.7568 62.62 85.6568 62.9H84.5768V58.69H88.9768V59.69ZM90.6635 62.26C90.6635 61.1067 90.8568 60.2067 91.2435 59.56C91.6368 58.9067 92.3101 58.58 93.2635 58.58C94.2168 58.58 94.8868 58.9067 95.2735 59.56C95.6668 60.2067 95.8635 61.1067 95.8635 62.26C95.8635 63.4267 95.6668 64.34 95.2735 65C94.8868 65.6533 94.2168 65.98 93.2635 65.98C92.3101 65.98 91.6368 65.6533 91.2435 65C90.8568 64.34 90.6635 63.4267 90.6635 62.26ZM94.7435 62.26C94.7435 61.72 94.7068 61.2633 94.6335 60.89C94.5668 60.5167 94.4268 60.2133 94.2135 59.98C94.0001 59.74 93.6835 59.62 93.2635 59.62C92.8435 59.62 92.5268 59.74 92.3135 59.98C92.1001 60.2133 91.9568 60.5167 91.8835 60.89C91.8168 61.2633 91.7835 61.72 91.7835 62.26C91.7835 62.82 91.8168 63.29 91.8835 63.67C91.9501 64.05 92.0901 64.3567 92.3035 64.59C92.5235 64.8233 92.8435 64.94 93.2635 64.94C93.6835 64.94 94.0001 64.8233 94.2135 64.59C94.4335 64.3567 94.5768 64.05 94.6435 63.67C94.7101 63.29 94.7435 62.82 94.7435 62.26ZM97.0697 62.26C97.0697 61.1067 97.2631 60.2067 97.6497 59.56C98.0431 58.9067 98.7164 58.58 99.6697 58.58C100.623 58.58 101.293 58.9067 101.68 59.56C102.073 60.2067 102.27 61.1067 102.27 62.26C102.27 63.4267 102.073 64.34 101.68 65C101.293 65.6533 100.623 65.98 99.6697 65.98C98.7164 65.98 98.0431 65.6533 97.6497 65C97.2631 64.34 97.0697 63.4267 97.0697 62.26ZM101.15 62.26C101.15 61.72 101.113 61.2633 101.04 60.89C100.973 60.5167 100.833 60.2133 100.62 59.98C100.406 59.74 100.09 59.62 99.6697 59.62C99.2497 59.62 98.9331 59.74 98.7197 59.98C98.5064 60.2133 98.3631 60.5167 98.2897 60.89C98.2231 61.2633 98.1897 61.72 98.1897 62.26C98.1897 62.82 98.2231 63.29 98.2897 63.67C98.3564 64.05 98.4964 64.3567 98.7097 64.59C98.9297 64.8233 99.2497 64.94 99.6697 64.94C100.09 64.94 100.406 64.8233 100.62 64.59C100.84 64.3567 100.983 64.05 101.05 63.67C101.116 63.29 101.15 62.82 101.15 62.26ZM107.364 61.29C107.53 61.01 107.75 60.7933 108.024 60.64C108.304 60.48 108.634 60.4 109.014 60.4V61.58H108.724C108.277 61.58 107.937 61.6933 107.704 61.92C107.477 62.1467 107.364 62.54 107.364 63.1V66H106.224V60.49H107.364V61.29ZM115.112 63.11C115.112 63.3167 115.098 63.5033 115.072 63.67H110.862C110.895 64.11 111.058 64.4633 111.352 64.73C111.645 64.9967 112.005 65.13 112.432 65.13C113.045 65.13 113.478 64.8733 113.732 64.36H114.962C114.795 64.8667 114.492 65.2833 114.052 65.61C113.618 65.93 113.078 66.09 112.432 66.09C111.905 66.09 111.432 65.9733 111.012 65.74C110.598 65.5 110.272 65.1667 110.032 64.74C109.798 64.3067 109.682 63.8067 109.682 63.24C109.682 62.6733 109.795 62.1767 110.022 61.75C110.255 61.3167 110.578 60.9833 110.992 60.75C111.412 60.5167 111.892 60.4 112.432 60.4C112.952 60.4 113.415 60.5133 113.822 60.74C114.228 60.9667 114.545 61.2867 114.772 61.7C114.998 62.1067 115.112 62.5767 115.112 63.11ZM113.922 62.75C113.915 62.33 113.765 61.9933 113.472 61.74C113.178 61.4867 112.815 61.36 112.382 61.36C111.988 61.36 111.652 61.4867 111.372 61.74C111.092 61.9867 110.925 62.3233 110.872 62.75H113.922ZM118.363 64.98L119.923 60.49H121.133L119.033 66H117.673L115.583 60.49H116.803L118.363 64.98ZM122.575 59.76C122.368 59.76 122.195 59.69 122.055 59.55C121.915 59.41 121.845 59.2367 121.845 59.03C121.845 58.8233 121.915 58.65 122.055 58.51C122.195 58.37 122.368 58.3 122.575 58.3C122.775 58.3 122.945 58.37 123.085 58.51C123.225 58.65 123.295 58.8233 123.295 59.03C123.295 59.2367 123.225 59.41 123.085 59.55C122.945 59.69 122.775 59.76 122.575 59.76ZM123.135 60.49V66H121.995V60.49H123.135ZM129.682 63.11C129.682 63.3167 129.669 63.5033 129.642 63.67H125.432C125.465 64.11 125.629 64.4633 125.922 64.73C126.215 64.9967 126.575 65.13 127.002 65.13C127.615 65.13 128.049 64.8733 128.302 64.36H129.532C129.365 64.8667 129.062 65.2833 128.622 65.61C128.189 65.93 127.649 66.09 127.002 66.09C126.475 66.09 126.002 65.9733 125.582 65.74C125.169 65.5 124.842 65.1667 124.602 64.74C124.369 64.3067 124.252 63.8067 124.252 63.24C124.252 62.6733 124.365 62.1767 124.592 61.75C124.825 61.3167 125.149 60.9833 125.562 60.75C125.982 60.5167 126.462 60.4 127.002 60.4C127.522 60.4 127.985 60.5133 128.392 60.74C128.799 60.9667 129.115 61.2867 129.342 61.7C129.569 62.1067 129.682 62.5767 129.682 63.11ZM128.492 62.75C128.485 62.33 128.335 61.9933 128.042 61.74C127.749 61.4867 127.385 61.36 126.952 61.36C126.559 61.36 126.222 61.4867 125.942 61.74C125.662 61.9867 125.495 62.3233 125.442 62.75H128.492ZM138.204 60.49L136.494 66H135.294L134.184 61.93L133.074 66H131.874L130.154 60.49H131.314L132.464 64.92L133.634 60.49H134.824L135.944 64.9L137.084 60.49H138.204ZM141.056 66.09C140.622 66.09 140.232 66.0133 139.886 65.86C139.546 65.7 139.276 65.4867 139.076 65.22C138.876 64.9467 138.769 64.6433 138.756 64.31H139.936C139.956 64.5433 140.066 64.74 140.266 64.9C140.472 65.0533 140.729 65.13 141.036 65.13C141.356 65.13 141.602 65.07 141.776 64.95C141.956 64.8233 142.046 64.6633 142.046 64.47C142.046 64.2633 141.946 64.11 141.746 64.01C141.552 63.91 141.242 63.8 140.816 63.68C140.402 63.5667 140.066 63.4567 139.806 63.35C139.546 63.2433 139.319 63.08 139.126 62.86C138.939 62.64 138.846 62.35 138.846 61.99C138.846 61.6967 138.932 61.43 139.106 61.19C139.279 60.9433 139.526 60.75 139.846 60.61C140.172 60.47 140.546 60.4 140.966 60.4C141.592 60.4 142.096 60.56 142.476 60.88C142.862 61.1933 143.069 61.6233 143.096 62.17H141.956C141.936 61.9233 141.836 61.7267 141.656 61.58C141.476 61.4333 141.232 61.36 140.926 61.36C140.626 61.36 140.396 61.4167 140.236 61.53C140.076 61.6433 139.996 61.7933 139.996 61.98C139.996 62.1267 140.049 62.25 140.156 62.35C140.262 62.45 140.392 62.53 140.546 62.59C140.699 62.6433 140.926 62.7133 141.226 62.8C141.626 62.9067 141.952 63.0167 142.206 63.13C142.466 63.2367 142.689 63.3967 142.876 63.61C143.062 63.8233 143.159 64.1067 143.166 64.46C143.166 64.7733 143.079 65.0533 142.906 65.3C142.732 65.5467 142.486 65.74 142.166 65.88C141.852 66.02 141.482 66.09 141.056 66.09Z" fill="white"/>
<rect x="92" y="31" width="20" height="20" fill="#D7DAD9"/>
<rect x="4" y="31" width="20" height="20" fill="#00B67B"/>
<rect x="26" y="31" width="20" height="20" fill="#00B67B"/>
<rect x="48" y="31" width="20" height="20" fill="#00B67B"/>
<rect x="70" y="31" width="20" height="20" fill="#00B67B"/>
<rect x="92" y="31" width="10" height="20" fill="#00B67B"/>
<g clip-path="url(#clip1_74_36693)">
<path d="M17.0491 43.7243L18.3266 47.6572L14.0023 44.5142L17.0491 43.7243ZM21 39.431H15.6537L14.0029 34.3438L12.3462 39.4322L7 39.4252L11.3295 42.5734L9.67283 47.6566L14.0023 44.5142L16.6757 42.5734L21 39.431Z" fill="white"/>
</g>
<g clip-path="url(#clip2_74_36693)">
<path d="M39.0491 43.7243L40.3266 47.6572L36.0023 44.5142L39.0491 43.7243ZM43 39.431H37.6537L36.0029 34.3438L34.3462 39.4322L29 39.4252L33.3295 42.5734L31.6728 47.6566L36.0023 44.5142L38.6757 42.5734L43 39.431Z" fill="white"/>
</g>
<g clip-path="url(#clip3_74_36693)">
<path d="M61.0491 43.7243L62.3266 47.6572L58.0023 44.5142L61.0491 43.7243ZM65 39.431H59.6537L58.0029 34.3438L56.3462 39.4322L51 39.4252L55.3295 42.5734L53.6728 47.6566L58.0023 44.5142L60.6757 42.5734L65 39.431Z" fill="white"/>
</g>
<g clip-path="url(#clip4_74_36693)">
<path d="M83.0491 43.7243L84.3266 47.6572L80.0023 44.5142L83.0491 43.7243ZM87 39.431H81.6537L80.0029 34.3438L78.3462 39.4322L73 39.4252L77.3295 42.5734L75.6728 47.6566L80.0023 44.5142L82.6757 42.5734L87 39.431Z" fill="white"/>
</g>
<g clip-path="url(#clip5_74_36693)">
<path d="M105.049 43.7243L106.327 47.6572L102.002 44.5142L105.049 43.7243ZM109 39.431H103.654L102.003 34.3438L100.346 39.4322L95 39.4252L99.3295 42.5734L97.6728 47.6566L102.002 44.5142L104.676 42.5734L109 39.431Z" fill="white"/>
</g>
<defs>
<clipPath id="clip0_74_36693">
<rect width="22" height="22" fill="white"/>
</clipPath>
<clipPath id="clip1_74_36693">
<rect width="14" height="14" fill="white" transform="translate(7 34)"/>
</clipPath>
<clipPath id="clip2_74_36693">
<rect width="14" height="14" fill="white" transform="translate(29 34)"/>
</clipPath>
<clipPath id="clip3_74_36693">
<rect width="14" height="14" fill="white" transform="translate(51 34)"/>
</clipPath>
<clipPath id="clip4_74_36693">
<rect width="14" height="14" fill="white" transform="translate(73 34)"/>
</clipPath>
<clipPath id="clip5_74_36693">
<rect width="14" height="14" fill="white" transform="translate(95 34)"/>
</clipPath>
</defs>
</svg>
