<svg width="20" height="20" viewBox="0 0 20 20" fill="none" xmlns="http://www.w3.org/2000/svg">
<g clip-path="url(#clip0_74_41844)">
<path d="M0.625 10C0.625 14.0938 3.25 17.5625 6.875 18.8438V1.15625C3.25 2.4375 0.625 5.90625 0.625 10Z" fill="#ED4C5C"/>
<path d="M10 0.625C8.90625 0.625 7.84375 0.8125 6.875 1.15625V6.875H18.8438C17.5625 3.25 14.0938 0.625 10 0.625Z" fill="#699635"/>
<path d="M18.8438 6.875H6.875V13.125H18.8438C19.1875 12.1562 19.375 11.0938 19.375 10C19.375 8.90625 19.1875 7.84375 18.8438 6.875Z" fill="#F9F9F9"/>
<path d="M6.875 13.125V18.8438C7.84375 19.1875 8.90625 19.375 10 19.375C14.0938 19.375 17.5625 16.7812 18.8438 13.125H6.875Z" fill="#3E4347"/>
</g>
<defs>
<clipPath id="clip0_74_41844">
<rect width="20" height="20" fill="white"/>
</clipPath>
</defs>
</svg>
