<svg width="24" height="24" viewBox="0 0 24 24" fill="none" xmlns="http://www.w3.org/2000/svg">
<path d="M20.5 13.5C20.5 15.7543 19.6045 17.9163 18.0104 19.5104C16.4163 21.1045 14.2543 22 12 22C9.74566 22 7.58365 21.1045 5.98959 19.5104C4.39553 17.9163 3.5 15.7543 3.5 13.5C3.5 11.2457 4.39553 9.08365 5.98959 7.48959C7.58365 5.89553 9.74566 5 12 5C14.2543 5 16.4163 5.89553 18.0104 7.48959C19.6045 9.08365 20.5 11.2457 20.5 13.5Z" stroke="#0C74C2" stroke-width="1.5" stroke-linecap="round" stroke-linejoin="round"/>
<path d="M12 19C10.5413 19 9.14236 18.4205 8.11091 17.3891C7.07946 16.3576 6.5 14.9587 6.5 13.5C6.5 12.0413 7.07946 10.6424 8.11091 9.61091C9.14236 8.57946 10.5413 8 12 8M12 13.5L15 9M13.5 3.5C13.5 3.10218 13.342 2.72064 13.0607 2.43934C12.7794 2.15804 12.3978 2 12 2C11.6022 2 11.2206 2.15804 10.9393 2.43934C10.658 2.72064 10.5 3.10218 10.5 3.5C10.5 3.89782 10.658 4.27936 10.9393 4.56066C11.2206 4.84196 11.6022 5 12 5C12.3978 5 12.7794 4.84196 13.0607 4.56066C13.342 4.27936 13.5 3.89782 13.5 3.5Z" stroke="#0C74C2" stroke-width="1.5" stroke-linecap="round" stroke-linejoin="round"/>
</svg>
