<svg width="24" height="24" viewBox="0 0 24 24" fill="none" xmlns="http://www.w3.org/2000/svg">
<g clip-path="url(#clip0_74_36380)">
<mask id="mask0_74_36380" style="mask-type:luminance" maskUnits="userSpaceOnUse" x="2" y="3" width="25" height="18">
<path d="M18.36 19.36C21.88 15.85 21.88 10.15 18.36 6.64C14.85 3.12 9.15 3.12 5.64 6.64C2.12 10.15 2.12 15.85 5.64 19.36" stroke="white" stroke-width="2" stroke-linecap="round" stroke-linejoin="round"/>
<path d="M12.8687 8.0765C10.1492 7.59698 7.5559 9.41285 7.07638 12.1323C6.59687 14.8518 8.41273 17.4451 11.1322 17.9246C13.8516 18.4041 26.7725 15.6053 26.7725 15.6053C26.7725 15.6053 15.5881 8.55601 12.8687 8.0765Z" fill="black"/>
<path d="M12.5215 10.0463C10.8899 9.75856 9.33385 10.848 9.04614 12.4797C8.75842 14.1115 9.84799 15.6674 11.4796 15.9551C13.1113 16.2428 22.8334 14.9108 22.8334 14.9108C22.8334 14.9108 14.1532 10.334 12.5215 10.0463Z" fill="white"/>
</mask>
<g mask="url(#mask0_74_36380)">
<path d="M0 0H24V24H0V0Z" fill="#0C74C2"/>
</g>
</g>
<defs>
<clipPath id="clip0_74_36380">
<rect width="24" height="24" fill="white" transform="matrix(-1 0 0 1 24 0)"/>
</clipPath>
</defs>
</svg>
