<svg width="68" height="68" viewBox="0 0 68 68" fill="none" xmlns="http://www.w3.org/2000/svg">
<g id="book-library-ui-svgrepo-com">
<g id="layer1">
<path id="path21118" fill-rule="evenodd" clip-rule="evenodd" d="M15.3026 4.92432C14.7516 4.92437 14.2231 5.14329 13.8335 5.53292C13.4438 5.92256 13.2249 6.45099 13.2249 7.00202V9.07972H9.06947C6.7991 9.07972 4.91406 10.9648 4.91406 13.2351V58.9446C4.91406 61.215 6.7991 63.1 9.06947 63.1H34.0019H58.9343C61.2047 63.1 63.0897 61.215 63.0897 58.9446V13.2351C63.0897 10.9648 61.2047 9.07972 58.9343 9.07972H54.7789V7.00202C54.7789 6.45099 54.56 5.92256 54.1703 5.53292C53.7807 5.14329 53.2523 4.92437 52.7012 4.92432H42.3127C38.9181 4.92432 35.9007 6.58189 34.0019 9.1203C32.1031 6.58189 29.0857 4.92432 25.6911 4.92432H15.3026ZM17.3803 9.07972H25.6911C29.1582 9.07972 31.9242 11.8458 31.9242 15.3128V52.9387C30.1677 51.5799 28.0701 50.6338 25.6911 50.6338H17.3803V11.1574V9.07972ZM42.3127 9.07972H50.6235V11.1574V50.6338H42.3127C39.9337 50.6338 37.8361 51.5799 36.0796 52.9387V15.3128C36.0796 11.8458 38.8456 9.07972 42.3127 9.07972ZM9.06947 13.2351H13.2249V52.7115C13.2249 53.2625 13.4438 53.7909 13.8335 54.1806C14.2231 54.5702 14.7516 54.7891 15.3026 54.7892H25.6911C28.4267 54.7892 30.7187 56.5149 31.5671 58.9446H9.06947V13.2351ZM54.7789 13.2351H58.9343V58.9446H36.4367C37.2851 56.5149 39.5771 54.7892 42.3127 54.7892H52.7012C53.2523 54.7891 53.7807 54.5702 54.1703 54.1806C54.56 53.7909 54.7789 53.2625 54.7789 52.7115V13.2351Z" fill="url(#paint0_linear_431_6414)"/>
</g>
</g>
<defs>
<linearGradient id="paint0_linear_431_6414" x1="34.0019" y1="4.92432" x2="34.0019" y2="63.1" gradientUnits="userSpaceOnUse">
<stop stop-color="#0B6FC0"/>
<stop offset="1" stop-color="#2AAFE8"/>
</linearGradient>
</defs>
</svg>
