<svg width="24" height="24" viewBox="0 0 24 24" fill="none" xmlns="http://www.w3.org/2000/svg">
<g id="book-square-svgrepo-com 1">
<path id="Vector" d="M10 22H16C21 22 23 20 23 15V9C23 4 21 2 16 2H10C5 2 3 4 3 9V15C3 20 5 22 10 22Z" stroke="#9197B3" stroke-width="1.3" stroke-linecap="round" stroke-linejoin="round"/>
<path id="Vector_2" d="M19.3811 15.2702V7.58023C19.3811 6.81023 18.7611 6.25024 18.0011 6.31024H17.9611C16.6211 6.42024 14.5911 7.11025 13.4511 7.82025L13.3411 7.89026C13.1611 8.00026 12.8511 8.00026 12.6611 7.89026L12.5011 7.79025C11.3711 7.08025 9.34109 6.41023 8.00109 6.30023C7.24109 6.24023 6.62109 6.81025 6.62109 7.57025V15.2702C6.62109 15.8802 7.12107 16.4602 7.73107 16.5302L7.91107 16.5602C9.29107 16.7402 11.4311 17.4502 12.6511 18.1202L12.6811 18.1302C12.8511 18.2302 13.1311 18.2302 13.2911 18.1302C14.5111 17.4502 16.6611 16.7502 18.0511 16.5602L18.2611 16.5302C18.8811 16.4602 19.3811 15.8902 19.3811 15.2702Z" stroke="#9197B3" stroke-width="1.3" stroke-linecap="round" stroke-linejoin="round"/>
<path id="Vector_3" d="M13 8.1001V17.6601" stroke="#9197B3" stroke-width="1.3" stroke-linecap="round" stroke-linejoin="round"/>
</g>
</svg>
