<svg width="50" height="50" viewBox="0 0 50 50" fill="none" xmlns="http://www.w3.org/2000/svg">
<g id="bp">
<path id="Vector" d="M6.25 18.992V13.7837C6.25 12.8239 6.57153 12.0232 7.21459 11.3816C7.85764 10.7399 8.65764 10.4184 9.61459 10.417H40.3854C41.3438 10.417 42.1438 10.7385 42.7854 11.3816C43.4271 12.0246 43.7486 12.8253 43.75 13.7837V25.242H41.6667V13.7837C41.6667 13.4628 41.5333 13.1684 41.2667 12.9003C41 12.6323 40.7063 12.4989 40.3854 12.5003H9.61459C9.29514 12.5003 9.00139 12.6337 8.73334 12.9003C8.46528 13.167 8.33195 13.4614 8.33334 13.7837V18.992H6.25ZM22.8 39.5837H9.61459C8.65625 39.5837 7.85556 39.2628 7.2125 38.6212C6.56945 37.9795 6.24862 37.1781 6.25 36.217V31.0087H8.33334V36.217C8.33334 36.5378 8.46667 36.8323 8.73334 37.1003C9 37.3684 9.29375 37.5017 9.61459 37.5003H22.2729C22.3493 37.8823 22.425 38.2406 22.5 38.5753C22.575 38.9087 22.675 39.2448 22.8 39.5837ZM35.4167 43.7503C33.0958 43.7503 31.1271 42.942 29.5104 41.3253C27.8924 39.7059 27.0833 37.7364 27.0833 35.417C27.0833 33.0975 27.8924 31.1288 29.5104 29.5107C31.1285 27.8927 33.0972 27.0837 35.4167 27.0837C37.7361 27.0837 39.7056 27.8927 41.325 29.5107C42.9444 31.1288 43.7528 33.0975 43.75 35.417C43.7472 37.7364 42.9389 39.7059 41.325 41.3253C39.7111 42.9448 37.7417 43.7531 35.4167 43.7503ZM35.8333 36.1378L39.8521 32.1191L38.7146 30.9816L34.6938 35.0003L35.8333 36.1378ZM6.25 26.042V23.9587H11.025L14.5833 31.0212L22.5625 14.9441H23.1771L27.9604 24.4316L27.0646 25.0878C26.7729 25.3045 26.5042 25.5399 26.2583 25.7941L22.875 19.0316L14.8417 35.0962H14.2417L9.75625 26.042H6.25Z" fill="#DDF2F9"/>
</g>
</svg>
