<svg width="20" height="20" viewBox="0 0 20 20" fill="none" xmlns="http://www.w3.org/2000/svg">
<path d="M3.33317 17.5013H4.1665V6.66797H3.33317C2.89114 6.66797 2.46722 6.84356 2.15466 7.15612C1.8421 7.46869 1.6665 7.89261 1.6665 8.33464V15.8346C1.6665 16.2767 1.8421 16.7006 2.15466 17.0131C2.46722 17.3257 2.89114 17.5013 3.33317 17.5013ZM16.6665 6.66797H10.8332L11.7682 3.8613C11.8516 3.61081 11.8743 3.34409 11.8345 3.0831C11.7946 2.82211 11.6934 2.57431 11.539 2.36013C11.3846 2.14595 11.1816 1.9715 10.9466 1.85117C10.7116 1.73083 10.4514 1.66804 10.1873 1.66797H9.99984L5.83317 6.19964V17.5013H14.9998L18.2598 10.338L18.3332 10.0013V8.33464C18.3332 7.89261 18.1576 7.46869 17.845 7.15612C17.5325 6.84356 17.1085 6.66797 16.6665 6.66797Z" fill="#0B6FC0"/>
</svg>
