<svg width="40" height="40" viewBox="0 0 40 40" fill="none" xmlns="http://www.w3.org/2000/svg">
<g id="checkup-doctor-health-healthcare-hospital-medical-svgrepo-com 1" clip-path="url(#clip0_995_2456)">
<path id="Vector" d="M8.75006 23.3333V32.025C8.74622 32.959 8.92639 33.8847 9.28029 34.7491C9.63418 35.6135 10.1549 36.3997 10.8126 37.0629C11.4704 37.726 12.2523 38.2531 13.1138 38.6141C13.9752 38.9751 14.8994 39.1628 15.8334 39.1667C16.7674 39.1628 17.6916 38.9751 18.553 38.6141C19.4145 38.2531 20.1964 37.726 20.8542 37.0629C21.5119 36.3997 22.0326 35.6135 22.3865 34.7491C22.7404 33.8847 22.9206 32.959 22.9167 32.025V22.5" stroke="#9197B3" stroke-width="2" stroke-linecap="round" stroke-linejoin="round"/>
<path id="Vector_2" d="M8.75033 23.3337C10.5913 23.3337 12.0837 21.8413 12.0837 20.0003C12.0837 18.1594 10.5913 16.667 8.75033 16.667C6.90938 16.667 5.41699 18.1594 5.41699 20.0003C5.41699 21.8413 6.90938 23.3337 8.75033 23.3337Z" stroke="#9197B3" stroke-width="2" stroke-linecap="round" stroke-linejoin="round"/>
<path id="Vector_3" d="M8.75033 23.3337C10.5913 23.3337 12.0837 21.8413 12.0837 20.0003C12.0837 18.1594 10.5913 16.667 8.75033 16.667C6.90938 16.667 5.41699 18.1594 5.41699 20.0003C5.41699 21.8413 6.90938 23.3337 8.75033 23.3337Z" stroke="#9197B3" stroke-width="2" stroke-linecap="round" stroke-linejoin="round"/>
<path id="Vector_4" d="M29.792 2.49967L31.8753 1.66634L29.792 0.833008V2.49967Z" stroke="#9197B3" stroke-width="2" stroke-linecap="round" stroke-linejoin="round"/>
<path id="Vector_5" d="M15.0003 1.66699H13.2961C12.0836 1.66699 11.1128 2.91699 11.2503 4.31283C12.1878 12.7253 16.1211 22.5003 22.917 22.5003C29.7128 22.5003 33.6461 12.7253 34.5836 4.31283C34.7211 2.91699 33.7503 1.66699 32.5378 1.66699H30.8336" stroke="#9197B3" stroke-width="2" stroke-linecap="round" stroke-linejoin="round"/>
<path id="Vector_6" d="M16.0413 2.49967L13.958 1.66634L16.0413 0.833008V2.49967Z" stroke="#9197B3" stroke-width="2" stroke-linecap="round" stroke-linejoin="round"/>
<path id="Vector_7" d="M8.75033 20.8337C9.21056 20.8337 9.58366 20.4606 9.58366 20.0003C9.58366 19.5401 9.21056 19.167 8.75033 19.167C8.29009 19.167 7.91699 19.5401 7.91699 20.0003C7.91699 20.4606 8.29009 20.8337 8.75033 20.8337Z" stroke="#9197B3" stroke-width="2" stroke-linecap="round" stroke-linejoin="round"/>
</g>
<defs>
<clipPath id="clip0_995_2456">
<rect width="40" height="40" fill="white"/>
</clipPath>
</defs>
</svg>
