<svg width="20" height="20" viewBox="0 0 20 20" fill="none" xmlns="http://www.w3.org/2000/svg">
<path opacity="0.16" d="M3.82313 13.5397L3.85867 13.3665L3.77742 13.2094C3.28005 12.2481 3 11.1584 3 10C3 8.61553 3.41054 7.26216 4.17971 6.11101C4.94888 4.95987 6.04213 4.06266 7.32122 3.53285C8.6003 3.00303 10.0078 2.86441 11.3656 3.13451C12.7235 3.4046 13.9708 4.07129 14.9497 5.05026C15.9287 6.02922 16.5954 7.2765 16.8655 8.63437C17.1356 9.99224 16.997 11.3997 16.4672 12.6788C15.9373 13.9579 15.0401 15.0511 13.889 15.8203C12.7378 16.5895 11.3845 17 10 17C8.84258 17 7.75113 16.7192 6.79046 16.2225L6.63346 16.1413L6.46032 16.1769L3.14221 16.8578L3.82313 13.5397Z" fill="#DDF2F9" stroke="#0B6FC0"/>
<path d="M10 17.5C11.4834 17.5 12.9334 17.0601 14.1668 16.236C15.4001 15.4119 16.3614 14.2406 16.9291 12.8701C17.4968 11.4997 17.6453 9.99168 17.3559 8.53683C17.0665 7.08197 16.3522 5.7456 15.3033 4.6967C14.2544 3.64781 12.918 2.9335 11.4632 2.64411C10.0083 2.35472 8.50032 2.50325 7.12987 3.07091C5.75943 3.63856 4.58809 4.59986 3.76398 5.83323C2.93987 7.0666 2.5 8.51664 2.5 10C2.5 11.24 2.8 12.4083 3.33333 13.4392L2.5 17.5L6.56083 16.6667C7.59083 17.1992 8.76083 17.5 10 17.5Z" fill="#DDF2F9" stroke="#0B6FC0" stroke-linecap="round" stroke-linejoin="round"/>
</svg>
