<svg width="16" height="17" viewBox="0 0 16 17" fill="none" xmlns="http://www.w3.org/2000/svg">
<path d="M5.10732 2.2628H4.95518C5.03886 2.2628 5.10732 2.19434 5.10732 2.11066V2.2628ZM5.10732 2.2628H10.8886V2.11066C10.8886 2.19434 10.957 2.2628 11.0407 2.2628H10.8886V3.63204H12.2578V2.11066C12.2578 1.43935 11.712 0.893555 11.0407 0.893555H4.95518C4.28387 0.893555 3.73808 1.43935 3.73808 2.11066V3.63204H5.10732V2.2628ZM14.692 3.63204H1.30387C0.967259 3.63204 0.695312 3.90399 0.695312 4.24059V4.84915C0.695312 4.93282 0.763775 5.00129 0.847451 5.00129H1.99609L2.46582 14.9473C2.49625 15.5958 3.03254 16.1074 3.68102 16.1074H12.3149C12.9653 16.1074 13.4996 15.5977 13.5301 14.9473L13.9998 5.00129H15.1484C15.2321 5.00129 15.3006 4.93282 15.3006 4.84915V4.24059C15.3006 3.90399 15.0286 3.63204 14.692 3.63204ZM12.1684 14.7381H3.82746L3.36724 5.00129H12.6286L12.1684 14.7381Z" fill="#0C74C2"/>
</svg>
