<svg width="20" height="20" viewBox="0 0 20 20" fill="none" xmlns="http://www.w3.org/2000/svg">
<path d="M3.33317 2.4987H4.1665V13.332H3.33317C2.89114 13.332 2.46722 13.1564 2.15466 12.8439C1.8421 12.5313 1.6665 12.1074 1.6665 11.6654V4.16537C1.6665 3.72334 1.8421 3.29941 2.15466 2.98685C2.46722 2.67429 2.89114 2.4987 3.33317 2.4987ZM16.6665 13.332H10.8332L11.7682 16.1387C11.8516 16.3892 11.8743 16.6559 11.8345 16.9169C11.7946 17.1779 11.6934 17.4257 11.539 17.6399C11.3846 17.8541 11.1816 18.0285 10.9466 18.1488C10.7116 18.2692 10.4514 18.332 10.1873 18.332H9.99984L5.83317 13.8004V2.4987H14.9998L18.2598 9.66203L18.3332 9.9987V11.6654C18.3332 12.1074 18.1576 12.5313 17.845 12.8439C17.5325 13.1564 17.1085 13.332 16.6665 13.332Z" fill="#ED4C5C"/>
</svg>
