<svg width="17" height="17" viewBox="0 0 17 17" fill="none" xmlns="http://www.w3.org/2000/svg">
<path d="M11.3455 1.55965C11.8887 1.01632 12.6255 0.711029 13.3938 0.710938C14.1621 0.710846 14.899 1.01596 15.4423 1.55916C15.9856 2.10237 16.2909 2.83916 16.291 3.60745C16.2911 4.37575 15.986 5.11261 15.4428 5.65594L6.33104 14.7677C6.00205 15.0983 5.585 15.3274 5.12952 15.4278L1.30683 16.2779C1.22681 16.2957 1.14357 16.2931 1.06483 16.2702C0.986085 16.2474 0.9144 16.205 0.856419 16.147C0.798439 16.089 0.756042 16.0173 0.733163 15.9386C0.710283 15.8598 0.707662 15.7766 0.725543 15.6966L1.57946 11.8505C1.67781 11.4104 1.89981 11.0063 2.2182 10.6879L11.3455 1.55965ZM14.7875 2.2831C14.6107 2.09708 14.3984 1.94833 14.1633 1.84562C13.9281 1.74291 13.6747 1.68831 13.4181 1.68504C13.1615 1.68178 12.9068 1.72991 12.6691 1.8266C12.4314 1.92329 12.2154 2.06659 12.0339 2.24805L11.3806 2.90236L14.1001 5.62089L14.7524 4.96755C15.4905 4.22949 15.5061 3.03965 14.7875 2.2831ZM13.4117 6.30928L10.6912 3.59173L2.90562 11.3773C2.71753 11.5654 2.58684 11.8032 2.52881 12.0628L1.84041 15.162L4.91628 14.4785C5.19086 14.4172 5.44207 14.2789 5.6407 14.0803L13.4117 6.30928ZM1.19778 1.68331H9.8441L8.87041 2.65699H1.19778C1.06866 2.65699 0.944831 2.6057 0.85353 2.5144C0.76223 2.4231 0.710938 2.29927 0.710938 2.17015C0.710938 2.04103 0.76223 1.9172 0.85353 1.8259C0.944831 1.7346 1.06866 1.68331 1.19778 1.68331ZM1.19778 4.60436H6.92304L5.94741 5.57805H1.19778C1.06866 5.57805 0.944831 5.52675 0.85353 5.43545C0.76223 5.34415 0.710938 5.22032 0.710938 5.0912C0.710938 4.96209 0.76223 4.83825 0.85353 4.74695C0.944831 4.65565 1.06866 4.60436 1.19778 4.60436ZM1.19778 7.52541H4.00102L3.02733 8.4991H1.19778C1.06866 8.4991 0.944831 8.44781 0.85353 8.35651C0.76223 8.26521 0.710938 8.14138 0.710938 8.01226C0.710938 7.88314 0.76223 7.75931 0.85353 7.66801C0.944831 7.57671 1.06866 7.52541 1.19778 7.52541Z" fill="#0C74C2"/>
</svg>
