<svg width="26" height="26" viewBox="0 0 26 26" fill="none" xmlns="http://www.w3.org/2000/svg">
<g id="evidence">
<path id="Vector" d="M19.5339 18.0017L24.1738 22.6405L22.6409 24.1735L18.0021 19.5335C16.276 20.9172 14.1292 21.6698 11.917 21.6666C6.53499 21.6666 2.16699 17.2986 2.16699 11.9166C2.16699 6.53463 6.53499 2.16663 11.917 2.16663C17.299 2.16663 21.667 6.53463 21.667 11.9166C21.6701 14.1288 20.9176 16.2757 19.5339 18.0017ZM17.3607 17.1979C18.7353 15.7838 19.5031 13.8887 19.5003 11.9166C19.5003 7.72738 16.1062 4.33329 11.917 4.33329C7.72774 4.33329 4.33366 7.72738 4.33366 11.9166C4.33366 16.1059 7.72774 19.5 11.917 19.5C13.8891 19.5027 15.7842 18.735 17.1982 17.3604L17.3607 17.1979ZM13.1932 7.77396C12.8737 7.91826 12.594 8.1379 12.3782 8.41405C12.1623 8.6902 12.0166 9.01461 11.9537 9.35943C11.8907 9.70425 11.9124 10.0592 12.0168 10.3938C12.1212 10.7284 12.3052 11.0327 12.553 11.2806C12.8009 11.5284 13.1052 11.7125 13.4398 11.8169C13.7744 11.9213 14.1294 11.9429 14.4742 11.88C14.819 11.817 15.1434 11.6713 15.4196 11.4555C15.6957 11.2396 15.9154 10.9599 16.0597 10.6405C16.3444 11.5652 16.3114 12.5587 15.9659 13.4625C15.6205 14.3663 14.9825 15.1285 14.1536 15.6277C13.3247 16.1268 12.3526 16.3342 11.3921 16.2168C10.4317 16.0993 9.53821 15.6638 8.85402 14.9796C8.16983 14.2954 7.73431 13.4019 7.61686 12.4415C7.4994 11.481 7.70678 10.5089 8.20593 9.68002C8.70508 8.85112 9.4673 8.21313 10.3711 7.86769C11.275 7.52226 12.2684 7.48926 13.1932 7.77396Z" fill="#0C74C2"/>
</g>
</svg>
