<svg width="26" height="26" viewBox="0 0 26 26" fill="none" xmlns="http://www.w3.org/2000/svg">
<g id="fact">
<path id="Vector" d="M6.59783 16.2489C6.17604 15.2955 5.95832 14.2645 5.95866 13.222C5.95866 9.20828 9.11116 5.95719 13.0003 5.95719C16.8895 5.95719 20.042 9.20936 20.042 13.222C20.0423 14.2645 19.8246 15.2955 19.4028 16.2489M13.0003 2.16553V3.24886M23.8337 12.9989H22.7503M3.25033 12.9989H2.16699M20.6595 5.33861L19.8936 6.10453M6.10708 6.10561L5.34116 5.33969M15.7271 20.9148C16.8212 20.5605 17.2611 19.5584 17.3846 18.5509C17.4214 18.2498 17.1733 17.9995 16.87 17.9995H9.18374C9.10967 17.9983 9.03619 18.0129 8.96816 18.0422C8.90013 18.0716 8.83911 18.115 8.78914 18.1697C8.73916 18.2244 8.70137 18.2891 8.67826 18.3595C8.65514 18.4299 8.64724 18.5044 8.65507 18.578C8.77641 19.5834 9.08191 20.3179 10.2411 20.9137M15.7271 20.9148L10.2411 20.9137M15.7271 20.9148C15.596 23.0219 14.9872 23.856 13.0079 23.8322C10.8911 23.8712 10.4036 22.8388 10.2411 20.9137" stroke="#0C74C2" stroke-width="1.5" stroke-linecap="round" stroke-linejoin="round"/>
</g>
</svg>
