<svg width="51" height="36" viewBox="0 0 51 36" fill="none" xmlns="http://www.w3.org/2000/svg">
<g id="Frame 300">
<g id="Mask group">
<mask id="mask0_995_407" style="mask-type:luminance" maskUnits="userSpaceOnUse" x="0" y="0" width="51" height="35">
<g id="Group">
<path id="Vector" d="M33.25 33.334C40.5833 26.0215 40.5833 14.1465 33.25 6.83398C25.9375 -0.499349 14.0625 -0.499349 6.75 6.83398C-0.583333 14.1465 -0.583333 26.0215 6.75 33.334" stroke="white" stroke-width="2" stroke-linecap="round" stroke-linejoin="round"/>
<g id="Group_2">
<path id="Vector_2" d="M21.8092 9.8262C16.1437 8.82721 10.741 12.6103 9.74197 18.2758C8.74298 23.9413 12.526 29.344 18.1916 30.343C23.8571 31.342 50.7756 25.5111 50.7756 25.5111C50.7756 25.5111 27.4747 10.8252 21.8092 9.8262Z" fill="black"/>
<path id="Vector_3" d="M21.0865 13.9292C17.6872 13.3298 14.4455 15.5995 13.8461 18.999C13.2467 22.3984 15.5166 25.6399 18.9159 26.2393C22.3153 26.8387 42.5697 24.0637 42.5697 24.0637C42.5697 24.0637 24.4859 14.5286 21.0865 13.9292Z" fill="white"/>
</g>
</g>
</mask>
<g mask="url(#mask0_995_407)">
<path id="Vector_4" d="M-5 -7H45V43H-5V-7Z" fill="#9197B3"/>
</g>
</g>
</g>
</svg>
