<svg width="42" height="30" viewBox="0 0 42 30" fill="none" xmlns="http://www.w3.org/2000/svg">
<g id="Frame 302">
<path id="Vector" fill-rule="evenodd" clip-rule="evenodd" d="M39.7252 11.5425C39.7246 10.7831 39.1086 10.168 38.3492 10.1686L20.7183 10.183C18.3893 10.185 17.8127 6.94541 19.9994 6.14374L22.3797 5.27093C23.2496 4.95208 23.4991 3.84093 22.8492 3.18062C22.4994 2.8252 21.9743 2.70645 21.5057 2.87687L9.02597 7.41395C4.943 8.89833 2.22626 12.7801 2.22982 17.1245C2.23449 22.8259 6.86024 27.4442 12.5617 27.4395L24.0862 27.43C24.6614 27.4296 25.1274 26.9628 25.1269 26.3875L25.1264 25.7209C25.126 25.1456 24.6592 24.6796 24.0839 24.6801L20.1923 24.6832L20.1905 22.5999L27.5935 22.5938C28.1688 22.5934 28.6347 22.1267 28.6343 21.5513L28.6337 20.8848C28.6333 20.3095 28.1665 19.8434 27.5912 19.844L22.563 19.8481L22.5614 17.7648L28.3768 17.76C28.9521 17.7595 29.4181 17.2927 29.4176 16.7175L29.4171 16.0508C29.4166 15.4755 28.9498 15.0096 28.3745 15.0101L22.5591 15.0148L22.5574 12.9315L38.3514 12.9185C39.1108 12.9179 39.7259 12.3019 39.7252 11.5425ZM31.3217 15.0076L38.3532 15.0019C40.2631 15.0003 41.8101 13.4507 41.8086 11.5407C41.807 9.63083 40.2574 8.08375 38.3474 8.08531L20.7166 8.09968L23.0969 7.22697C25.3888 6.38666 26.0464 3.45895 24.334 1.71916C23.4122 0.782703 22.0288 0.469995 20.7938 0.918953L8.3142 5.45593C3.40721 7.23989 0.142207 11.905 0.146489 17.1262C0.152093 23.9782 5.71133 29.5284 12.5634 29.5228L24.0878 29.5133C25.8137 29.512 27.2117 28.1117 27.2102 26.3858L27.2097 25.7192C27.2094 25.354 27.1465 25.0034 27.0311 24.6777L27.5951 24.6772C29.3211 24.6758 30.719 23.2755 30.7176 21.5497L30.717 20.883C30.7166 20.2744 30.542 19.7065 30.2405 19.2262C31.0062 18.6561 31.5018 17.7437 31.501 16.7157L31.5004 16.0492C31.5001 15.684 31.4371 15.3333 31.3217 15.0076Z" fill="#9197B3"/>
<path id="Vector_2" d="M38.6914 21.837C38.6928 23.5037 37.3188 24.8143 35.5688 24.8158C33.8188 24.8172 32.4428 23.5088 32.4414 21.8421C32.4399 20.1754 35.5619 16.4824 35.5619 16.4824C35.5619 16.4824 38.6901 20.2894 38.6914 21.837Z" fill="#9197B3"/>
<path id="Vector_3" d="M37.6413 12.8361C37.642 13.6991 36.7098 14.3995 35.5593 14.4004C34.4087 14.4013 33.4753 13.7025 33.4746 12.8396C33.4739 11.9766 34.4061 11.2763 35.5567 11.2754C36.7073 11.2745 37.6405 11.9732 37.6413 12.8361Z" fill="#9197B3"/>
</g>
</svg>
