<svg width="36" height="35" viewBox="0 0 36 35" fill="none" xmlns="http://www.w3.org/2000/svg">
<g id="Frame 301">
<g id="Group">
<path id="Vector" d="M21.334 33.667H14.6673C8.38232 33.667 5.23898 33.667 3.28732 31.7137C1.33565 29.7603 1.33398 26.6187 1.33398 20.3337V17.0003C1.33398 10.7153 1.33398 7.57199 3.28732 5.62033C5.24065 3.66866 8.38232 3.66699 14.6673 3.66699H21.334C27.619 3.66699 30.7623 3.66699 32.714 5.62033C34.6657 7.57366 34.6673 10.7153 34.6673 17.0003V20.3337C34.6673 26.6187 34.6673 29.762 32.714 31.7137C31.6257 32.8037 30.1673 33.2853 28.0007 33.497M9.66732 3.66699V1.16699M26.334 3.66699V1.16699M33.834 12.0003H15.9173M1.33398 12.0003H7.79232" stroke="#9197B3" stroke-width="1.5" stroke-linecap="round"/>
<path id="Vector_2" d="M28.001 25.3333C28.001 25.7754 27.8254 26.1993 27.5128 26.5118C27.2003 26.8244 26.7763 27 26.3343 27C25.8923 27 25.4684 26.8244 25.1558 26.5118C24.8432 26.1993 24.6676 25.7754 24.6676 25.3333C24.6676 24.8913 24.8432 24.4674 25.1558 24.1548C25.4684 23.8423 25.8923 23.6667 26.3343 23.6667C26.7763 23.6667 27.2003 23.8423 27.5128 24.1548C27.8254 24.4674 28.001 24.8913 28.001 25.3333ZM28.001 18.6667C28.001 19.1087 27.8254 19.5326 27.5128 19.8452C27.2003 20.1577 26.7763 20.3333 26.3343 20.3333C25.8923 20.3333 25.4684 20.1577 25.1558 19.8452C24.8432 19.5326 24.6676 19.1087 24.6676 18.6667C24.6676 18.2246 24.8432 17.8007 25.1558 17.4882C25.4684 17.1756 25.8923 17 26.3343 17C26.7763 17 27.2003 17.1756 27.5128 17.4882C27.8254 17.8007 28.001 18.2246 28.001 18.6667ZM19.6676 25.3333C19.6676 25.7754 19.492 26.1993 19.1795 26.5118C18.8669 26.8244 18.443 27 18.001 27C17.5589 27 17.135 26.8244 16.8225 26.5118C16.5099 26.1993 16.3343 25.7754 16.3343 25.3333C16.3343 24.8913 16.5099 24.4674 16.8225 24.1548C17.135 23.8423 17.5589 23.6667 18.001 23.6667C18.443 23.6667 18.8669 23.8423 19.1795 24.1548C19.492 24.4674 19.6676 24.8913 19.6676 25.3333ZM19.6676 18.6667C19.6676 19.1087 19.492 19.5326 19.1795 19.8452C18.8669 20.1577 18.443 20.3333 18.001 20.3333C17.5589 20.3333 17.135 20.1577 16.8225 19.8452C16.5099 19.5326 16.3343 19.1087 16.3343 18.6667C16.3343 18.2246 16.5099 17.8007 16.8225 17.4882C17.135 17.1756 17.5589 17 18.001 17C18.443 17 18.8669 17.1756 19.1795 17.4882C19.492 17.8007 19.6676 18.2246 19.6676 18.6667ZM11.3343 25.3333C11.3343 25.7754 11.1587 26.1993 10.8462 26.5118C10.5336 26.8244 10.1097 27 9.66764 27C9.22562 27 8.80169 26.8244 8.48913 26.5118C8.17657 26.1993 8.00098 25.7754 8.00098 25.3333C8.00098 24.8913 8.17657 24.4674 8.48913 24.1548C8.80169 23.8423 9.22562 23.6667 9.66764 23.6667C10.1097 23.6667 10.5336 23.8423 10.8462 24.1548C11.1587 24.4674 11.3343 24.8913 11.3343 25.3333ZM11.3343 18.6667C11.3343 19.1087 11.1587 19.5326 10.8462 19.8452C10.5336 20.1577 10.1097 20.3333 9.66764 20.3333C9.22562 20.3333 8.80169 20.1577 8.48913 19.8452C8.17657 19.5326 8.00098 19.1087 8.00098 18.6667C8.00098 18.2246 8.17657 17.8007 8.48913 17.4882C8.80169 17.1756 9.22562 17 9.66764 17C10.1097 17 10.5336 17.1756 10.8462 17.4882C11.1587 17.8007 11.3343 18.2246 11.3343 18.6667Z" fill="#9197B3"/>
</g>
</g>
</svg>
