<svg width="20" height="20" viewBox="0 0 20 20" fill="none" xmlns="http://www.w3.org/2000/svg">
<g id="Group 1000011073">
<path id="Vector" d="M7.63121 8.57882C9.72404 8.57882 11.4206 6.88224 11.4206 4.78941C11.4206 2.69658 9.72404 1 7.63121 1C5.53837 1 3.8418 2.69658 3.8418 4.78941C3.8418 6.88224 5.53837 8.57882 7.63121 8.57882Z" stroke="#9197B3" stroke-width="1.5"/>
<path id="Vector_2" opacity="0.5" d="M10.9473 3.21776C11.4565 2.45197 12.3271 1.94727 13.3156 1.94727C14.8853 1.94727 16.1577 3.2197 16.1577 4.78932C16.1577 6.35894 14.8853 7.63138 13.3156 7.63138C12.3271 7.63138 11.4565 7.12668 10.9473 6.36089" stroke="#9197B3" stroke-width="1.5"/>
<path id="Vector_3" opacity="0.5" d="M16.1562 12.3682C17.8181 12.7326 18.9983 13.6555 18.9983 14.7365C18.9983 15.7117 18.038 16.5582 16.6299 16.9821" stroke="#9197B3" stroke-width="1.5" stroke-linecap="round"/>
<path id="Vector_4" d="M7.63147 19.0002C11.2939 19.0002 14.2629 17.3036 14.2629 15.2108C14.2629 13.118 11.2939 11.4214 7.63147 11.4214C3.96901 11.4214 1 13.118 1 15.2108C1 17.3036 3.96901 19.0002 7.63147 19.0002Z" stroke="#9197B3" stroke-width="1.5"/>
</g>
</svg>
