<svg width="14" height="14" viewBox="0 0 14 14" fill="none" xmlns="http://www.w3.org/2000/svg">
<g id="bx:like">
<path id="Vector" d="M11.666 4.6665H8.39235L9.04743 2.70242C9.16527 2.34775 9.10577 1.95459 8.88702 1.65125C8.66827 1.34792 8.3136 1.1665 7.93968 1.1665H6.99935C6.8261 1.1665 6.66218 1.2435 6.55077 1.3765L3.8091 4.6665H2.33268C1.68927 4.6665 1.16602 5.18975 1.16602 5.83317V11.0832C1.16602 11.7266 1.68927 12.2498 2.33268 12.2498H10.0951C10.3324 12.249 10.564 12.1762 10.7591 12.041C10.9541 11.9059 11.1036 11.7146 11.1877 11.4927L12.7959 7.20459C12.8204 7.13909 12.8328 7.06974 12.8327 6.99984V5.83317C12.8327 5.18975 12.3094 4.6665 11.666 4.6665ZM2.33268 5.83317H3.49935V11.0832H2.33268V5.83317ZM11.666 6.89425L10.0951 11.0832H4.66602V5.461L7.27235 2.33317H7.94085L7.02968 5.06492C7.0001 5.1526 6.99185 5.24608 7.00562 5.33759C7.01938 5.4291 7.05476 5.51601 7.10882 5.59111C7.16288 5.66622 7.23407 5.72735 7.31648 5.76945C7.39889 5.81154 7.49014 5.83339 7.58268 5.83317H11.666V6.89425Z" fill="#B3B3B3"/>
</g>
</svg>
