<svg width="23" height="23" viewBox="0 0 23 23" fill="none" xmlns="http://www.w3.org/2000/svg">
<mask id="mask0_1082_3359" style="mask-type:luminance" maskUnits="userSpaceOnUse" x="0" y="-1" width="23" height="24">
<path d="M1 18.9389L4.84405 1M21.5016 18.9389L17.6576 1M11.2508 9.96946V7.40675M11.2508 3.5627V1" stroke="#C0C0C0" stroke-opacity="0.25" stroke-width="2" stroke-linecap="round"/>
<path d="M7.60948 20.9122L10.3234 15.1436C10.6194 14.5157 10.768 14.2005 10.9705 14.1018C11.0579 14.0592 11.1538 14.0371 11.2511 14.0371C11.3483 14.0371 11.4443 14.0592 11.5317 14.1018C11.7341 14.2005 11.8828 14.5144 12.1788 15.1436L14.8927 20.9122C15.3373 21.8566 15.559 22.3294 15.4757 22.5754C15.4397 22.6798 15.3774 22.773 15.2948 22.8462C15.2122 22.9194 15.1121 22.97 15.0042 22.9931C14.7504 23.0482 14.3084 22.7715 13.4217 22.2179L11.7944 21.2005C11.597 21.0775 11.4997 21.016 11.3933 20.9917C11.2997 20.9703 11.2025 20.9703 11.1088 20.9917C11.0038 21.016 10.9038 21.0775 10.7078 21.2005L9.08047 22.2179C8.19377 22.7715 7.75171 23.0482 7.498 22.9931C7.39008 22.97 7.28996 22.9194 7.20734 22.8462C7.12473 22.773 7.06242 22.6798 7.02646 22.5754C6.94189 22.3294 7.16485 21.8579 7.60948 20.9122Z" fill="white"/>
</mask>
<g mask="url(#mask0_1082_3359)">
<path d="M-4.125 -4.12537H26.6274V26.6271H-4.125V-4.12537Z" fill="black"/>
</g>
</svg>
