<svg width="40" height="40" viewBox="0 0 40 40" fill="none" xmlns="http://www.w3.org/2000/svg">
<g id="medication">
<path id="Vector" d="M16.9841 2.14258C14.8044 2.1793 12.8356 3.4793 11.945 5.48945L22.6091 8.71055C23.0778 5.91445 21.3981 3.20352 18.695 2.38086C18.2106 2.23398 17.7028 2.15352 17.195 2.14258H16.9841ZM11.5388 6.83633C11.0622 9.64023 12.7419 12.359 15.4528 13.1793C18.1716 13.9996 21.07 12.6559 22.2106 10.0543L11.5388 6.83633ZM32.281 10.2965C30.3044 10.3043 28.2028 11.2574 26.6169 13.4996L16.8669 27.3199C14.2497 31.023 15.3903 34.898 17.9685 36.7262C20.5544 38.5621 24.5778 38.3512 27.195 34.648L36.9372 20.8355C39.5544 17.1246 38.4138 13.2574 35.8356 11.4215C34.8669 10.734 33.7028 10.3355 32.4763 10.2965H32.281ZM32.1403 11.648C32.2419 11.648 32.3435 11.648 32.4372 11.6559C33.3825 11.6949 34.2731 12.0309 35.0231 12.5699C37.0309 13.9918 38.0388 16.8277 35.781 20.023L30.7419 27.1715C27.945 26.4215 24.3513 23.8668 22.7185 21.4684L27.7731 14.3121C29.0935 12.4449 30.6638 11.6793 32.1403 11.648ZM7.12861 17.6012C6.37705 17.609 5.63564 17.7652 4.94658 18.0699C2.35986 19.2027 1.01376 22.0934 1.80283 24.8121L12.0153 20.3512C10.9919 18.6246 9.13251 17.5777 7.12861 17.6012ZM12.57 21.6324L2.35908 26.1012C3.80048 28.5543 6.83564 29.5387 9.4372 28.4059C12.031 27.2652 13.3747 24.359 12.57 21.6324Z" fill="#9197B3"/>
</g>
</svg>
