<svg width="24" height="24" viewBox="0 0 24 24" fill="none" xmlns="http://www.w3.org/2000/svg">
<g id="monitor-alt-1-svgrepo-com 1">
<path id="Vector" d="M11.9998 14.7898C11.8788 14.7884 11.7594 14.7611 11.6498 14.7098C11.4998 14.6298 7.99985 12.7098 7.24985 10.1998C7.02031 9.56147 6.93972 8.87915 7.01425 8.20495C7.08877 7.53075 7.31644 6.88251 7.67985 6.30976C7.95022 5.95404 8.30207 5.66845 8.70579 5.47703C9.10952 5.2856 9.55332 5.19394 9.99985 5.20976C10.3747 5.19945 10.7473 5.27003 11.0925 5.41671C11.4376 5.56339 11.7471 5.78272 11.9998 6.05976C12.2525 5.78272 12.562 5.56339 12.9071 5.41671C13.2523 5.27003 13.6249 5.19945 13.9998 5.20976C14.443 5.19717 14.8828 5.29038 15.2828 5.48168C15.6828 5.67298 16.0314 5.95685 16.2998 6.30976C16.6632 6.88251 16.8909 7.53075 16.9654 8.20495C17.0399 8.87915 16.9593 9.56147 16.7298 10.1998C15.9798 12.7598 12.4798 14.6298 12.3298 14.7098C12.2263 14.7584 12.1141 14.7856 11.9998 14.7898ZM9.99985 6.70976C9.78929 6.69427 9.57821 6.73194 9.386 6.8193C9.1938 6.90667 9.02663 7.04093 8.89985 7.20976C8.67923 7.59711 8.5477 8.02876 8.51484 8.47332C8.48197 8.91788 8.54859 9.36418 8.70985 9.77976C9.12985 11.2198 10.9998 12.5798 12.0198 13.1798C13.0198 12.5698 14.9098 11.1798 15.3298 9.77976C15.4911 9.36418 15.5577 8.91788 15.5248 8.47332C15.4919 8.02876 15.3604 7.59711 15.1398 7.20976C14.9722 6.98862 14.7397 6.82541 14.4748 6.743C14.2098 6.66059 13.9258 6.6631 13.6623 6.75018C13.3989 6.83726 13.1693 7.00454 13.0056 7.22861C12.842 7.45268 12.7526 7.72232 12.7498 7.99976C12.7498 8.19867 12.6708 8.38944 12.5301 8.53009C12.3895 8.67074 12.1987 8.74976 11.9998 8.74976C11.8009 8.74976 11.6101 8.67074 11.4695 8.53009C11.3288 8.38944 11.2498 8.19867 11.2498 7.99976C11.2566 7.83192 11.2292 7.66445 11.1693 7.50751C11.1094 7.35058 11.0182 7.20745 10.9013 7.08681C10.7844 6.96618 10.6442 6.87055 10.4893 6.80574C10.3343 6.74092 10.1678 6.70827 9.99985 6.70976Z" fill="white"/>
<path id="Vector_2" d="M18.7602 17.7502H5.24023C4.17936 17.7502 3.16195 17.3288 2.4118 16.5786C1.66166 15.8285 1.24023 14.8111 1.24023 13.7502V6.24023C1.24023 5.17936 1.66166 4.16195 2.4118 3.4118C3.16195 2.66166 4.17936 2.24023 5.24023 2.24023H18.7602C19.8211 2.24023 20.8385 2.66166 21.5886 3.4118C22.3388 4.16195 22.7602 5.17936 22.7602 6.24023V13.7602C22.7575 14.8193 22.3349 15.8342 21.5851 16.5822C20.8352 17.3301 19.8193 17.7502 18.7602 17.7502ZM5.24023 3.75023C4.58065 3.75286 3.94884 4.01605 3.48244 4.48244C3.01605 4.94884 2.75286 5.58065 2.75023 6.24023V13.7602C2.75286 14.4198 3.01605 15.0516 3.48244 15.518C3.94884 15.9844 4.58065 16.2476 5.24023 16.2502H18.7602C19.4198 16.2476 20.0516 15.9844 20.518 15.518C20.9844 15.0516 21.2476 14.4198 21.2502 13.7602V6.24023C21.2476 5.58065 20.9844 4.94884 20.518 4.48244C20.0516 4.01605 19.4198 3.75286 18.7602 3.75023H5.24023Z" fill="white"/>
<path id="Vector_3" d="M12 21.75C11.8019 21.7474 11.6126 21.6676 11.4725 21.5275C11.3324 21.3874 11.2526 21.1981 11.25 21V17C11.25 16.8011 11.329 16.6103 11.4697 16.4697C11.6103 16.329 11.8011 16.25 12 16.25C12.1989 16.25 12.3897 16.329 12.5303 16.4697C12.671 16.6103 12.75 16.8011 12.75 17V21C12.7474 21.1981 12.6676 21.3874 12.5275 21.5275C12.3874 21.6676 12.1981 21.7474 12 21.75Z" fill="white"/>
<path id="Vector_4" d="M18 21.75H6C5.80109 21.75 5.61032 21.671 5.46967 21.5303C5.32902 21.3897 5.25 21.1989 5.25 21C5.25 20.8011 5.32902 20.6103 5.46967 20.4697C5.61032 20.329 5.80109 20.25 6 20.25H18C18.1989 20.25 18.3897 20.329 18.5303 20.4697C18.671 20.6103 18.75 20.8011 18.75 21C18.75 21.1989 18.671 21.3897 18.5303 21.5303C18.3897 21.671 18.1989 21.75 18 21.75Z" fill="white"/>
</g>
</svg>
