<svg width="24" height="24" viewBox="0 0 24 24" fill="none" xmlns="http://www.w3.org/2000/svg">
<g id="monitor-alt-1-svgrepo-com 1">
<path id="Vector" d="M12.0008 14.7898C11.8798 14.7884 11.7604 14.7611 11.6508 14.7098C11.5008 14.6298 8.00082 12.7098 7.25082 10.1998C7.02128 9.56147 6.94069 8.87915 7.01522 8.20495C7.08974 7.53075 7.31741 6.88251 7.68082 6.30976C7.95119 5.95404 8.30304 5.66845 8.70676 5.47703C9.11049 5.2856 9.55429 5.19394 10.0008 5.20976C10.3757 5.19945 10.7483 5.27003 11.0935 5.41671C11.4386 5.56339 11.7481 5.78272 12.0008 6.05976C12.2535 5.78272 12.563 5.56339 12.9081 5.41671C13.2533 5.27003 13.6259 5.19945 14.0008 5.20976C14.444 5.19717 14.8838 5.29038 15.2838 5.48168C15.6838 5.67298 16.0324 5.95685 16.3008 6.30976C16.6642 6.88251 16.8919 7.53075 16.9664 8.20495C17.0409 8.87915 16.9603 9.56147 16.7308 10.1998C15.9808 12.7598 12.4808 14.6298 12.3308 14.7098C12.2273 14.7584 12.1151 14.7856 12.0008 14.7898ZM10.0008 6.70976C9.79026 6.69427 9.57918 6.73194 9.38697 6.8193C9.19477 6.90667 9.0276 7.04093 8.90082 7.20976C8.6802 7.59711 8.54867 8.02876 8.51581 8.47332C8.48294 8.91788 8.54956 9.36418 8.71082 9.77976C9.13082 11.2198 11.0008 12.5798 12.0208 13.1798C13.0208 12.5698 14.9108 11.1798 15.3308 9.77976C15.4921 9.36418 15.5587 8.91788 15.5258 8.47332C15.4929 8.02876 15.3614 7.59711 15.1408 7.20976C14.9732 6.98862 14.7407 6.82541 14.4758 6.743C14.2108 6.66059 13.9268 6.6631 13.6633 6.75018C13.3999 6.83726 13.1703 7.00454 13.0066 7.22861C12.843 7.45268 12.7536 7.72232 12.7508 7.99976C12.7508 8.19867 12.6718 8.38944 12.5311 8.53009C12.3905 8.67074 12.1997 8.74976 12.0008 8.74976C11.8019 8.74976 11.6111 8.67074 11.4705 8.53009C11.3298 8.38944 11.2508 8.19867 11.2508 7.99976C11.2576 7.83192 11.2302 7.66445 11.1703 7.50751C11.1104 7.35058 11.0192 7.20745 10.9023 7.08681C10.7854 6.96618 10.6452 6.87055 10.4903 6.80574C10.3353 6.74092 10.1688 6.70827 10.0008 6.70976Z" fill="#9197B3"/>
<path id="Vector_2" d="M18.7602 17.7498H5.24023C4.17936 17.7498 3.16195 17.3284 2.4118 16.5782C1.66166 15.8281 1.24023 14.8107 1.24023 13.7498V6.23975C1.24023 5.17888 1.66166 4.16147 2.4118 3.41132C3.16195 2.66118 4.17936 2.23975 5.24023 2.23975H18.7602C19.8211 2.23975 20.8385 2.66118 21.5886 3.41132C22.3388 4.16147 22.7602 5.17888 22.7602 6.23975V13.7598C22.7575 14.8189 22.3349 15.8338 21.5851 16.5818C20.8352 17.3297 19.8193 17.7498 18.7602 17.7498ZM5.24023 3.74975C4.58065 3.75238 3.94884 4.01557 3.48244 4.48196C3.01605 4.94836 2.75286 5.58017 2.75023 6.23975V13.7598C2.75286 14.4194 3.01605 15.0512 3.48244 15.5176C3.94884 15.984 4.58065 16.2472 5.24023 16.2498H18.7602C19.4198 16.2472 20.0516 15.984 20.518 15.5176C20.9844 15.0512 21.2476 14.4194 21.2502 13.7598V6.23975C21.2476 5.58017 20.9844 4.94836 20.518 4.48196C20.0516 4.01557 19.4198 3.75238 18.7602 3.74975H5.24023Z" fill="#9197B3"/>
<path id="Vector_3" d="M12 21.75C11.8019 21.7474 11.6126 21.6676 11.4725 21.5275C11.3324 21.3874 11.2526 21.1981 11.25 21V17C11.25 16.8011 11.329 16.6103 11.4697 16.4697C11.6103 16.329 11.8011 16.25 12 16.25C12.1989 16.25 12.3897 16.329 12.5303 16.4697C12.671 16.6103 12.75 16.8011 12.75 17V21C12.7474 21.1981 12.6676 21.3874 12.5275 21.5275C12.3874 21.6676 12.1981 21.7474 12 21.75Z" fill="#9197B3"/>
<path id="Vector_4" d="M18 21.75H6C5.80109 21.75 5.61032 21.671 5.46967 21.5303C5.32902 21.3897 5.25 21.1989 5.25 21C5.25 20.8011 5.32902 20.6103 5.46967 20.4697C5.61032 20.329 5.80109 20.25 6 20.25H18C18.1989 20.25 18.3897 20.329 18.5303 20.4697C18.671 20.6103 18.75 20.8011 18.75 21C18.75 21.1989 18.671 21.3897 18.5303 21.5303C18.3897 21.671 18.1989 21.75 18 21.75Z" fill="#9197B3"/>
</g>
</svg>
