<svg width="20" height="24" viewBox="0 0 20 24" fill="none" xmlns="http://www.w3.org/2000/svg">
<g id="noun-emergency-light-6450584 1">
<g id="Group">
<g id="Group_2">
<path id="Vector" d="M9.59844 2.4C10.2612 2.4 10.7984 1.86274 10.7984 1.2C10.7984 0.537258 10.2612 0 9.59844 0C8.9357 0 8.39844 0.537258 8.39844 1.2C8.39844 1.86274 8.9357 2.4 9.59844 2.4Z" fill="#9197B3"/>
<path id="Vector_2" d="M15.5389 4.86054C16.0076 5.32917 16.7674 5.32917 17.236 4.86054C17.7047 4.39191 17.7047 3.63212 17.236 3.16348C16.7674 2.69486 16.0076 2.69486 15.5389 3.16348C15.0703 3.63212 15.0703 4.39191 15.5389 4.86054Z" fill="#9197B3"/>
<path id="Vector_3" d="M3.65986 4.86054C4.12848 4.39191 4.12848 3.63212 3.65986 3.16348C3.19122 2.69486 2.43143 2.69486 1.9628 3.16348C1.49417 3.63212 1.49417 4.39191 1.9628 4.86054C2.43143 5.32917 3.19122 5.32917 3.65986 4.86054Z" fill="#9197B3"/>
<path id="Vector_4" fill-rule="evenodd" clip-rule="evenodd" d="M3.59922 10.7998C3.59922 7.4861 6.28551 4.7998 9.59922 4.7998C12.9129 4.7998 15.5992 7.4861 15.5992 10.7998V16.7998H17.9992V19.1998H1.19922V16.7998H3.59922V10.7998ZM5.99922 10.7998C5.99922 8.81158 7.611 7.1998 9.59922 7.1998V16.7998H5.99922V10.7998Z" fill="#9197B3"/>
</g>
</g>
</g>
</svg>
