<svg width="13" height="13" viewBox="0 0 13 13" fill="none" xmlns="http://www.w3.org/2000/svg">
<path d="M6.03591 6.965H1.38679C1.25476 6.965 1.14442 6.92037 1.05578 6.83111C0.967133 6.74184 0.922501 6.6312 0.921881 6.49916C0.921261 6.36713 0.965893 6.25679 1.05578 6.16814C1.14566 6.0795 1.256 6.03518 1.38679 6.03518H6.03591V1.38606C6.03591 1.25403 6.08054 1.14369 6.16981 1.05504C6.25907 0.9664 6.36972 0.921769 6.50175 0.921149C6.63379 0.920529 6.74413 0.965161 6.83277 1.05504C6.92141 1.14493 6.96573 1.25527 6.96573 1.38606V6.03518H11.6149C11.7469 6.03518 11.8572 6.07981 11.9459 6.16907C12.0345 6.25834 12.0791 6.36899 12.0798 6.50102C12.0804 6.63306 12.0358 6.74339 11.9459 6.83204C11.856 6.92068 11.7456 6.965 11.6149 6.965H6.96573V11.6141C6.96573 11.7462 6.9211 11.8565 6.83184 11.9451C6.74258 12.0338 6.63193 12.0784 6.49989 12.079C6.36786 12.0797 6.25752 12.035 6.16888 11.9451C6.08023 11.8553 6.03591 11.7449 6.03591 11.6141V6.965Z" fill="#0C74C2"/>
</svg>
