<svg width="20" height="20" viewBox="0 0 20 20" fill="none" xmlns="http://www.w3.org/2000/svg">
<path d="M2.02 20C1.46 20 0.983333 19.8033 0.59 19.41C0.196667 19.0167 0 18.5404 0 17.9813V2.01875C0 1.46042 0.196667 0.984167 0.59 0.59C0.983333 0.196667 1.46 0 2.02 0H17.9813C18.5396 0 19.0158 0.196667 19.41 0.59C19.8033 0.983333 20 1.46 20 2.02V17.9813C20 18.5396 19.8033 19.0158 19.41 19.41C19.0167 19.8033 18.5404 20 17.9813 20H2.02ZM15.705 18.75H17.98C18.205 18.75 18.3896 18.6779 18.5337 18.5337C18.6779 18.3896 18.75 18.2054 18.75 17.9813V15.705L15.705 18.75ZM1.9525 18.75H5.0275L8.7775 15H10.3275L6.5775 18.75H9.58625L13.3362 15H14.8863L11.1363 18.75H14.1537L17.9037 15H18.75V2.02C18.75 1.795 18.6779 1.61042 18.5337 1.46625C18.3896 1.32208 18.2054 1.25 17.9813 1.25H2.01875C1.79458 1.25 1.61042 1.32208 1.46625 1.46625C1.32208 1.61042 1.25 1.795 1.25 2.02V17.9L4.15125 15H5.70125L1.9525 18.75ZM4.5625 11.61L3.70125 10.75L8.34375 6.10875L10.8438 8.60875L15.4375 4.0125L16.2975 4.87375L10.8438 10.36L8.34375 7.86L4.5625 11.61ZM1.25 17.9813V1.25V18.75V17.9813Z" fill="red"/>
</svg>
