<?xml version="1.0" encoding="UTF-8"?>
<svg version="1.1" xmlns="http://www.w3.org/2000/svg" width="115" height="101">
<path d="M0 0 C2.63960557 2.0128994 4.66714878 3.6306532 5.47573853 6.95718384 C5.67410863 9.32282722 5.71831636 11.64559722 5.70703125 14.01953125 C5.72215256 14.87810226 5.73727386 15.73667328 5.75285339 16.6212616 C5.79569388 19.35194231 5.80456459 22.08151686 5.8125 24.8125 C5.83564723 26.66864912 5.86101305 28.524772 5.88867188 30.38085938 C5.95148791 34.92067054 5.98385169 39.45979267 6 44 C6.33 44 6.66 44 7 44 C7.00410889 43.27409668 7.00821777 42.54819336 7.01245117 41.80029297 C7.0454749 38.49105084 7.11613026 35.18362816 7.1875 31.875 C7.19330078 30.73289062 7.19910156 29.59078125 7.20507812 28.4140625 C7.45379621 18.9075044 7.45379621 18.9075044 10.36328125 15.234375 C13 13 13 13 16 12.375 C19.62532374 13.13027578 21.36306228 14.43840335 24 17 C26.11785351 21.23570701 25.27378231 26.78363343 25.3125 31.4375 C25.35600586 33.17483398 25.35600586 33.17483398 25.40039062 34.94726562 C25.40876953 36.05650391 25.41714844 37.16574219 25.42578125 38.30859375 C25.44036377 39.32751709 25.45494629 40.34644043 25.4699707 41.39624023 C25 44 25 44 22.97338867 45.85571289 C22.32217041 46.23332764 21.67095215 46.61094238 21 47 C19.515 46.01 19.515 46.01 18 45 C17.65942383 42.47802734 17.65942383 42.47802734 17.70703125 39.3359375 C17.71669922 38.21445313 17.72636719 37.09296875 17.73632812 35.9375 C17.76146484 34.761875 17.78660156 33.58625 17.8125 32.375 C17.83280273 30.59996094 17.83280273 30.59996094 17.85351562 28.7890625 C17.88896084 25.85892461 17.93837231 22.92968541 18 20 C17.01 20 16.02 20 15 20 C15.02618408 20.72590332 15.05236816 21.45180664 15.0793457 22.19970703 C15.1836681 25.50791541 15.24843872 28.8157772 15.3125 32.125 C15.35439453 33.26710937 15.39628906 34.40921875 15.43945312 35.5859375 C15.57764108 45.09326847 15.57764108 45.09326847 12.703125 48.765625 C10 51 10 51 6.4375 51.625 C2.54888428 50.91797896 1.36529954 50.09308401 -1 47 C-2.66577625 43.66844749 -2.12007856 39.93463941 -2.09765625 36.2734375 C-2.0962413 35.41062164 -2.09482635 34.54780579 -2.09336853 33.65884399 C-2.08776188 30.8975277 -2.07520827 28.13629188 -2.0625 25.375 C-2.05748586 23.5052095 -2.0529228 21.63541774 -2.04882812 19.765625 C-2.03779029 15.17705223 -2.0205212 10.58853977 -2 6 C-2.66 6.33 -3.32 6.66 -4 7 C-4.00142502 7.66541306 -4.00285004 8.33082611 -4.00431824 9.0164032 C-4.02400806 15.94356481 -4.07826709 22.86984441 -4.15258789 29.79663086 C-4.17578173 32.38152742 -4.19016681 34.96651867 -4.19555664 37.55151367 C-4.20483541 41.26801663 -4.24580709 44.98302729 -4.29296875 48.69921875 C-4.2890361 49.85459641 -4.28510345 51.00997406 -4.28105164 52.20036316 C-4.42653101 60.20448864 -4.42653101 60.20448864 -7.32543945 64.22583008 C-10.9094089 66.60325646 -12.78431186 66.8280816 -17 66 C-20.04506161 63.33795631 -21.70775158 61.61680466 -22.43325806 57.60308838 C-22.57855434 54.69379684 -22.5620302 51.82605964 -22.48828125 48.9140625 C-22.48120651 47.85714203 -22.47413177 46.80022156 -22.46684265 45.71127319 C-22.43894115 42.34845034 -22.37620755 38.98731628 -22.3125 35.625 C-22.28741178 33.33986786 -22.26459953 31.05470952 -22.24414062 28.76953125 C-22.18912856 23.1791151 -22.1055442 17.58967822 -22 12 C-22.99 12.495 -22.99 12.495 -24 13 C-24.00616333 14.6874231 -24.00616333 14.6874231 -24.01245117 16.40893555 C-24.03426678 20.59331725 -24.08858097 24.77676185 -24.15258789 28.96069336 C-24.17574685 30.76952108 -24.19015869 32.57848325 -24.19555664 34.38745117 C-24.20486196 36.99222383 -24.24588355 39.59488824 -24.29296875 42.19921875 C-24.28706978 43.40731453 -24.28706978 43.40731453 -24.28105164 44.63981628 C-24.39090597 48.89242669 -24.64734768 50.54885492 -27.35668945 54.01489258 C-30 56 -30 56 -33 56.5625 C-36.68233904 55.87206143 -38.36813928 54.63186072 -41 52 C-42.01973129 48.94080612 -42.11533602 46.87581975 -42.09765625 43.67578125 C-42.09443359 42.64775391 -42.09121094 41.61972656 -42.08789062 40.56054688 C-42.07951172 39.48869141 -42.07113281 38.41683594 -42.0625 37.3125 C-42.05573242 35.68731445 -42.05573242 35.68731445 -42.04882812 34.02929688 C-42.03703743 31.35280915 -42.02058063 28.67643223 -42 26 C-42.66 25.67 -43.32 25.34 -44 25 C-43.97679687 26.26457031 -43.95359375 27.52914062 -43.9296875 28.83203125 C-43.91092874 30.4921816 -43.89272865 32.15233833 -43.875 33.8125 C-43.85824219 34.64587891 -43.84148438 35.47925781 -43.82421875 36.33789062 C-43.81777344 37.14033203 -43.81132813 37.94277344 -43.8046875 38.76953125 C-43.79421387 39.50792236 -43.78374023 40.24631348 -43.77294922 41.00708008 C-44 43 -44 43 -46 46 C-47.65 45.67 -49.3 45.34 -51 45 C-51.14567407 41.43793278 -51.23419196 37.87663449 -51.3125 34.3125 C-51.35439453 33.30509766 -51.39628906 32.29769531 -51.43945312 31.25976562 C-51.56312932 23.76498807 -51.56312932 23.76498807 -48.66796875 19.83203125 C-46 18 -46 18 -43 17.375 C-39.93502679 18.01353609 -38.22597672 18.80131422 -36.06103516 21.07421875 C-33.57341806 25.5892495 -34.21180758 31.29163533 -34.1875 36.3125 C-34.16236328 37.53001953 -34.13722656 38.74753906 -34.11132812 40.00195312 C-34.05251099 43.00162687 -34.01618961 45.99984298 -34 49 C-33.67 49 -33.34 49 -33 49 C-32.98541748 47.90534424 -32.97083496 46.81068848 -32.95581055 45.68286133 C-32.89771261 41.61043095 -32.82048073 37.53854685 -32.73754883 33.46655273 C-32.70435346 31.70622645 -32.67630476 29.94579512 -32.65356445 28.18530273 C-32.6199188 25.65042475 -32.5675994 23.11650477 -32.51171875 20.58203125 C-32.50532883 19.79850784 -32.4989389 19.01498444 -32.49235535 18.2077179 C-32.37038407 13.64544611 -31.8091859 10.64105537 -29 7 C-26.45770394 5.07136161 -25.21654982 4.99097709 -22 5.125 C-18.29453795 6.20575976 -17.22738902 6.82288521 -15 10 C-14.37008139 13.69494944 -14.39499801 17.36801436 -14.390625 21.109375 C-14.37408875 22.19132141 -14.35755249 23.27326782 -14.34051514 24.38800049 C-14.29194899 27.84205758 -14.27064434 31.29567411 -14.25 34.75 C-14.22184764 37.09247018 -14.19192126 39.43491977 -14.16015625 41.77734375 C-14.08618776 47.51814896 -14.03459573 53.25882982 -14 59 C-13.67 59 -13.34 59 -13 59 C-12.99413376 58.34711502 -12.98826752 57.69423004 -12.98222351 57.02156067 C-12.91827366 50.22429362 -12.83384938 43.42749933 -12.73754883 36.63061523 C-12.70430112 34.09422032 -12.67626875 31.55775144 -12.65356445 29.02124023 C-12.6200166 25.37451672 -12.56769848 21.72847089 -12.51171875 18.08203125 C-12.50532883 16.94852737 -12.4989389 15.8150235 -12.49235535 14.64717102 C-12.47256119 13.58644882 -12.45276703 12.52572662 -12.43237305 11.43286133 C-12.42126999 10.50242508 -12.41016693 9.57198883 -12.39872742 8.61335754 C-11.92035669 5.47799814 -10.82233593 3.57436667 -9 1 C-5.8260598 -1.32755615 -3.66379452 -1.34041263 0 0 Z " fill="#3E9ED8" transform="translate(71,26)"/>
<path d="M0 0 C2.14941406 1.36035156 2.14941406 1.36035156 4 4 C4.62991861 7.69494944 4.60500199 11.36801436 4.609375 15.109375 C4.62591125 16.19132141 4.64244751 17.27326782 4.65948486 18.38800049 C4.70805101 21.84205758 4.72935566 25.29567411 4.75 28.75 C4.77815236 31.09247018 4.80807874 33.43491977 4.83984375 35.77734375 C4.91381224 41.51814896 4.96540427 47.25882982 5 53 C5.33 53 5.66 53 6 53 C6.33 35.51 6.66 18.02 7 0 C7.33 0 7.66 0 8 0 C8.02528903 7.65380144 8.04284104 15.30759217 8.05493164 22.96142578 C8.0599703 25.56689863 8.0668013 28.17236863 8.07543945 30.77783203 C8.08752544 34.51595764 8.09323288 38.25404597 8.09765625 41.9921875 C8.10281754 43.16304901 8.10797882 44.33391052 8.11329651 45.54025269 C8.11337204 46.62122223 8.11344757 47.70219177 8.11352539 48.81591797 C8.115746 49.77078094 8.11796661 50.72564392 8.12025452 51.70944214 C8 54 8 54 7 56 C5.35 55.34 3.7 54.68 2 54 C1.505 41.13 1.505 41.13 1 28 C0.94613623 32.41682895 0.90638982 36.83300332 0.875 41.25 C0.85824219 42.50425781 0.84148438 43.75851563 0.82421875 45.05078125 C0.81777344 46.25605469 0.81132813 47.46132812 0.8046875 48.703125 C0.79421387 49.81333008 0.78374023 50.92353516 0.77294922 52.06738281 C0.99531666 54.93950942 1.50718425 56.57223735 3 59 C4.65 59 6.3 59 8 59 C8.33 57.35 8.66 55.7 9 54 C9.99 54 10.98 54 12 54 C12.33 54.66 12.66 55.32 13 56 C10.63013373 59.03342882 9.41067519 59.92533178 5.5625 60.625 C1.72671534 59.95205532 0.38664083 59.04184522 -1.97885132 55.99822998 C-4.07307949 51.90014947 -3.60218057 47.41140763 -3.48828125 42.9140625 C-3.48120651 41.85714203 -3.47413177 40.80022156 -3.46684265 39.71127319 C-3.43894115 36.34845034 -3.37620755 32.98731628 -3.3125 29.625 C-3.28741178 27.33986786 -3.26459953 25.05470952 -3.24414062 22.76953125 C-3.18912856 17.1791151 -3.1055442 11.58967822 -3 6 C-3.99 6.495 -3.99 6.495 -5 7 C-5.00616333 8.6874231 -5.00616333 8.6874231 -5.01245117 10.40893555 C-5.03426678 14.59331725 -5.08858097 18.77676185 -5.15258789 22.96069336 C-5.17574685 24.76952108 -5.19015869 26.57848325 -5.19555664 28.38745117 C-5.20486196 30.99222383 -5.24588355 33.59488824 -5.29296875 36.19921875 C-5.28706978 37.40731453 -5.28706978 37.40731453 -5.28105164 38.63981628 C-5.39090597 42.89242669 -5.64734768 44.54885492 -8.35668945 48.01489258 C-11 50 -11 50 -14 50.5625 C-17.68233904 49.87206143 -19.36813928 48.63186072 -22 46 C-23.01973129 42.94080612 -23.11533602 40.87581975 -23.09765625 37.67578125 C-23.09443359 36.64775391 -23.09121094 35.61972656 -23.08789062 34.56054688 C-23.07951172 33.48869141 -23.07113281 32.41683594 -23.0625 31.3125 C-23.05573242 29.68731445 -23.05573242 29.68731445 -23.04882812 28.02929688 C-23.03703743 25.35280915 -23.02058063 22.67643223 -23 20 C-23.66 19.67 -24.32 19.34 -25 19 C-24.97679687 20.26457031 -24.95359375 21.52914062 -24.9296875 22.83203125 C-24.91092874 24.4921816 -24.89272865 26.15233833 -24.875 27.8125 C-24.84986328 29.06256836 -24.84986328 29.06256836 -24.82421875 30.33789062 C-24.81777344 31.14033203 -24.81132812 31.94277344 -24.8046875 32.76953125 C-24.79421387 33.50792236 -24.78374023 34.24631348 -24.77294922 35.00708008 C-25 37 -25 37 -27 40 C-28.65 39.67 -30.3 39.34 -32 39 C-32.14567407 35.43793278 -32.23419196 31.87663449 -32.3125 28.3125 C-32.35439453 27.30509766 -32.39628906 26.29769531 -32.43945312 25.25976562 C-32.56312932 17.76498807 -32.56312932 17.76498807 -29.66796875 13.83203125 C-27 12 -27 12 -24 11.375 C-20.93502679 12.01353609 -19.22597672 12.80131422 -17.06103516 15.07421875 C-14.57341806 19.5892495 -15.21180758 25.29163533 -15.1875 30.3125 C-15.16236328 31.53001953 -15.13722656 32.74753906 -15.11132812 34.00195312 C-15.05251099 37.00162687 -15.01618961 39.99984298 -15 43 C-14.67 43 -14.34 43 -14 43 C-13.98541748 41.90534424 -13.97083496 40.81068848 -13.95581055 39.68286133 C-13.89771261 35.61043095 -13.82048073 31.53854685 -13.73754883 27.46655273 C-13.70435346 25.70622645 -13.67630476 23.94579512 -13.65356445 22.18530273 C-13.6199188 19.65042475 -13.5675994 17.11650477 -13.51171875 14.58203125 C-13.50532883 13.79850784 -13.4989389 13.01498444 -13.49235535 12.2077179 C-13.37038407 7.64544611 -12.8091859 4.64105537 -10 1 C-6.62055069 -1.56372016 -3.97046734 -1.15805297 0 0 Z " fill="#56AFE2" transform="translate(52,32)"/>
<path d="M0 0 C2.14941406 1.36035156 2.14941406 1.36035156 4 4 C4.62991861 7.69494944 4.60500199 11.36801436 4.609375 15.109375 C4.63417938 16.73229462 4.63417938 16.73229462 4.65948486 18.38800049 C4.70805101 21.84205758 4.72935566 25.29567411 4.75 28.75 C4.77815236 31.09247018 4.80807874 33.43491977 4.83984375 35.77734375 C4.91381224 41.51814896 4.96540427 47.25882982 5 53 C5.33 53 5.66 53 6 53 C6.33 35.51 6.66 18.02 7 0 C7.33 0 7.66 0 8 0 C8.02528903 7.65380144 8.04284104 15.30759217 8.05493164 22.96142578 C8.0599703 25.56689863 8.0668013 28.17236863 8.07543945 30.77783203 C8.08752544 34.51595764 8.09323288 38.25404597 8.09765625 41.9921875 C8.10281754 43.16304901 8.10797882 44.33391052 8.11329651 45.54025269 C8.11340981 47.161707 8.11340981 47.161707 8.11352539 48.81591797 C8.115746 49.77078094 8.11796661 50.72564392 8.12025452 51.70944214 C8 54 8 54 7 56 C5.35 55.34 3.7 54.68 2 54 C1.67 45.42 1.34 36.84 1 28 C0.94613623 32.41682895 0.90638982 36.83300332 0.875 41.25 C0.85824219 42.50425781 0.84148438 43.75851563 0.82421875 45.05078125 C0.81777344 46.25605469 0.81132813 47.46132812 0.8046875 48.703125 C0.78897705 50.36843262 0.78897705 50.36843262 0.77294922 52.06738281 C0.99531666 54.93950942 1.50718425 56.57223735 3 59 C4.65 59 6.3 59 8 59 C8.33 57.35 8.66 55.7 9 54 C9.99 54 10.98 54 12 54 C12.33 54.66 12.66 55.32 13 56 C10.63013373 59.03342882 9.41067519 59.92533178 5.5625 60.625 C1.72671534 59.95205532 0.38664083 59.04184522 -1.97885132 55.99822998 C-4.07307949 51.90014947 -3.60218057 47.41140763 -3.48828125 42.9140625 C-3.47766914 41.32868179 -3.47766914 41.32868179 -3.46684265 39.71127319 C-3.43894115 36.34845034 -3.37620755 32.98731628 -3.3125 29.625 C-3.28741178 27.33986786 -3.26459953 25.05470952 -3.24414062 22.76953125 C-3.18912856 17.1791151 -3.1055442 11.58967822 -3 6 C-3.99 6.495 -3.99 6.495 -5 7 C-5.33 19.54 -5.66 32.08 -6 45 C-6.33 45 -6.66 45 -7 45 C-7 31.14 -7 17.28 -7 3 C-8.32 3.33 -9.64 3.66 -11 4 C-10 1 -10 1 -8.3125 -0.25 C-5.13382332 -1.28092217 -3.19422968 -0.93165032 0 0 Z " fill="#8BC9EB" transform="translate(52,32)"/>
<path d="M0 0 C3.625 -0.1875 3.625 -0.1875 7 0 C7 0.99 7 1.98 7 3 C6.01 3 5.02 3 4 3 C4 3.66 4 4.32 4 5 C3.34 5 2.68 5 2 5 C2.33 5.66 2.66 6.32 3 7 C3.09051069 8.69543591 3.11754872 10.39443978 3.11352539 12.09228516 C3.11344986 13.15323395 3.11337433 14.21418274 3.11329651 15.30728149 C3.10813522 16.45626923 3.10297394 17.60525696 3.09765625 18.7890625 C3.0962413 19.96262299 3.09482635 21.13618347 3.09336853 22.3453064 C3.08775689 26.10522985 3.07520238 29.86509445 3.0625 33.625 C3.0574865 36.16926998 3.05292333 38.71354088 3.04882812 41.2578125 C3.03778368 47.50522853 3.02103418 53.75261006 3 60 C2.01 59.67 1.02 59.34 0 59 C-0.99 61.475 -0.99 61.475 -2 64 C-4.3125 64.25 -4.3125 64.25 -7 64 C-9.37686777 61.68258031 -9.96658771 60.29671067 -10.34057617 56.97558594 C-10.32486572 55.82348633 -10.30915527 54.67138672 -10.29296875 53.484375 C-10.28330078 52.23398438 -10.27363281 50.98359375 -10.26367188 49.6953125 C-10.2259668 47.74238281 -10.2259668 47.74238281 -10.1875 45.75 C-10.16719727 43.77386719 -10.16719727 43.77386719 -10.14648438 41.7578125 C-10.11112551 38.50479679 -10.06177033 35.252604 -10 32 C-9.34 32.33 -8.68 32.66 -8 33 C-7.67 41.58 -7.34 50.16 -7 59 C-5.68 59.66 -4.36 60.32 -3 61 C-2.99191315 60.28003342 -2.98382629 59.56006683 -2.97549438 58.81828308 C-2.89756976 52.03492739 -2.81028552 45.25174984 -2.71247292 38.46865368 C-2.66251626 34.98134023 -2.6161864 31.49405697 -2.578125 28.0065918 C-2.53421416 23.99768923 -2.4745654 19.98915548 -2.4140625 15.98046875 C-2.39673569 14.10067574 -2.39673569 14.10067574 -2.37905884 12.1829071 C-2.35918915 11.02193008 -2.33931946 9.86095306 -2.31884766 8.66479492 C-2.30552399 7.64109299 -2.29220032 6.61739105 -2.2784729 5.56266785 C-2 3 -2 3 0 0 Z " fill="#3099D8" transform="translate(62,27)"/>
<path d="M0 0 C2.375 1.5 2.375 1.5 4 3 C3.67 3.66 3.34 4.32 3 5 C1.02 4.34 -0.96 3.68 -3 3 C-2.01 3.66 -1.02 4.32 0 5 C0.34057617 7.88916016 0.34057617 7.88916016 0.29296875 11.5390625 C0.28330078 12.84101562 0.27363281 14.14296875 0.26367188 15.484375 C0.23860388 16.86458923 0.21320902 18.24479756 0.1875 19.625 C0.17245517 21.01300663 0.15876641 22.40102867 0.14648438 23.7890625 C0.1110257 27.19309509 0.06160298 30.59635622 0 34 C-2.23413013 30.64880481 -2.23847762 29.5822245 -2.1953125 25.67578125 C-2.18886719 24.64775391 -2.18242187 23.61972656 -2.17578125 22.56054688 C-2.15902344 21.48869141 -2.14226563 20.41683594 -2.125 19.3125 C-2.11597656 18.22904297 -2.10695313 17.14558594 -2.09765625 16.02929688 C-2.0740734 13.3526429 -2.04116126 10.67643203 -2 8 C-2.66 7.67 -3.32 7.34 -4 7 C-3.97679687 8.26457031 -3.95359375 9.52914062 -3.9296875 10.83203125 C-3.91092874 12.4921816 -3.89272865 14.15233833 -3.875 15.8125 C-3.84986328 17.06256836 -3.84986328 17.06256836 -3.82421875 18.33789062 C-3.81777344 19.14033203 -3.81132812 19.94277344 -3.8046875 20.76953125 C-3.79421387 21.50792236 -3.78374023 22.24631348 -3.77294922 23.00708008 C-4 25 -4 25 -6 28 C-7.65 27.67 -9.3 27.34 -11 27 C-11.14567407 23.43793278 -11.23419196 19.87663449 -11.3125 16.3125 C-11.35439453 15.30509766 -11.39628906 14.29769531 -11.43945312 13.25976562 C-11.56307811 5.76809145 -11.56307811 5.76809145 -8.671875 1.82421875 C-5.42051028 -0.39564576 -3.86116121 -0.65721893 0 0 Z " fill="#6DB5E0" transform="translate(31,44)"/>
<path d="M0 0 C4.04496632 4.04496632 3.41722362 6.49791136 3.45898438 12.00390625 C3.44834961 13.73447266 3.44834961 13.73447266 3.4375 15.5 C3.45748047 16.65371094 3.47746094 17.80742188 3.49804688 18.99609375 C3.49740234 20.10082031 3.49675781 21.20554687 3.49609375 22.34375 C3.49794678 23.35630859 3.4997998 24.36886719 3.50170898 25.41210938 C3 28 3 28 0.96899414 29.85351562 C0.31922607 30.23185547 -0.33054199 30.61019531 -1 31 C-1.99 30.34 -2.98 29.68 -4 29 C-4.34057617 26.47802734 -4.34057617 26.47802734 -4.29296875 23.3359375 C-4.28330078 22.21445313 -4.27363281 21.09296875 -4.26367188 19.9375 C-4.23853516 18.761875 -4.21339844 17.58625 -4.1875 16.375 C-4.17396484 15.19164062 -4.16042969 14.00828125 -4.14648438 12.7890625 C-4.11103916 9.85892461 -4.06162769 6.92968541 -4 4 C-4.99 4 -5.98 4 -7 4 C-6.9685791 5.10456543 -6.9685791 5.10456543 -6.93652344 6.23144531 C-6.85332856 9.57082442 -6.80132843 12.90998549 -6.75 16.25 C-6.71648437 17.40886719 -6.68296875 18.56773438 -6.6484375 19.76171875 C-6.63554688 20.87675781 -6.62265625 21.99179687 -6.609375 23.140625 C-6.58842773 24.16704102 -6.56748047 25.19345703 -6.54589844 26.25097656 C-7.11120847 29.67322977 -8.37309927 30.82758037 -11 33 C-10.94821052 28.4157377 -10.85314829 23.83337172 -10.75 19.25 C-10.73582031 17.94804688 -10.72164063 16.64609375 -10.70703125 15.3046875 C-10.67480469 14.05429687 -10.64257812 12.80390625 -10.609375 11.515625 C-10.58842773 10.36352539 -10.56748047 9.21142578 -10.54589844 8.02441406 C-9.90026911 4.44746591 -8.77802951 3.25533407 -6 1 C-5.01 1.33 -4.02 1.66 -3 2 C-3 10.58 -3 19.16 -3 28 C-2.01 27.67 -1.02 27.34 0 27 C0 18.09 0 9.18 0 0 Z " fill="#65B7E7" transform="translate(93,42)"/>
<path d="M0 0 C1.3308911 2.66178221 1.11268993 4.68739396 1.09765625 7.6640625 C1.09443359 8.78554688 1.09121094 9.90703125 1.08789062 11.0625 C1.07951172 12.238125 1.07113281 13.41375 1.0625 14.625 C1.05798828 15.80835937 1.05347656 16.99171875 1.04882812 18.2109375 C1.03701467 21.14067507 1.02054258 24.07031272 1 27 C-0.32 27.33 -1.64 27.66 -3 28 C-3.495 15.13 -3.495 15.13 -4 2 C-5.32 2.33 -6.64 2.66 -8 3 C-9.30320407 5.60640813 -9.19447793 7.64319066 -9.28125 10.55859375 C-9.31863281 11.66654297 -9.35601562 12.77449219 -9.39453125 13.91601562 C-9.42933594 15.07810547 -9.46414062 16.24019531 -9.5 17.4375 C-9.56882945 19.72799105 -9.64156636 22.01836899 -9.71875 24.30859375 C-9.76418945 25.83697876 -9.76418945 25.83697876 -9.81054688 27.39624023 C-10 30 -10 30 -11 33 C-14.375 33.1875 -14.375 33.1875 -18 33 C-18.66 32.01 -19.32 31.02 -20 30 C-18.02 30.33 -16.04 30.66 -14 31 C-14 30.34 -14 29.68 -14 29 C-13.34 29 -12.68 29 -12 29 C-11.97494385 28.19256348 -11.9498877 27.38512695 -11.92407227 26.55322266 C-11.80834513 22.91031083 -11.68551365 19.26767274 -11.5625 15.625 C-11.52318359 14.35398437 -11.48386719 13.08296875 -11.44335938 11.7734375 C-11.38051758 9.95585938 -11.38051758 9.95585938 -11.31640625 8.1015625 C-11.27974854 6.98088379 -11.24309082 5.86020508 -11.20532227 4.70556641 C-11 2 -11 2 -10 0 C-6.26840331 -1.24386556 -3.81984796 -0.77811718 0 0 Z " fill="#1999E1" transform="translate(93,42)"/>
<path d="M0 0 C3.75999106 0.93999776 5.2473603 2.51105689 7.5 5.625 C7.5 9.16861243 7.15850044 11.49091591 5.375 14.5625 C2.27710642 16.31797303 -0.02844534 16.11223574 -3.5 15.625 C-6.16106976 13.23686047 -7.27849624 11.60946115 -8.0625 8.125 C-7.07628171 3.74180759 -4.3411551 1.08528877 0 0 Z " fill="#33BBF0" transform="translate(67.5,6.375)"/>
<path d="M0 0 C3.38363992 0.09144973 4.92885764 0.94619048 7.63745117 2.99487305 C10.85699529 7.09008526 10.64605808 9.96171415 10.48828125 15.01953125 C10.47766914 16.30738777 10.47766914 16.30738777 10.46684265 17.6212616 C10.43894402 20.35257603 10.37621691 23.08180958 10.3125 25.8125 C10.28741114 27.6685901 10.26459899 29.52471246 10.24414062 31.38085938 C10.18913253 35.92136972 10.10289364 40.46033257 10 45 C9.67 45 9.34 45 9 45 C8.67 31.8 8.34 18.6 8 5 C7.01 5.33 6.02 5.66 5 6 C4.67 19.2 4.34 32.4 4 46 C3.67 46 3.34 46 3 46 C3 33.13 3 20.26 3 7 C2.01 7.495 2.01 7.495 1 8 C0.67 25.82 0.34 43.64 0 62 C-0.33 62 -0.66 62 -1 62 C-1.33 43.85 -1.66 25.7 -2 7 C-1.34 7 -0.68 7 0 7 C0 6.34 0 5.68 0 5 C0.99 5 1.98 5 3 5 C3 4.01 3 3.02 3 2 C1.35 2 -0.3 2 -2 2 C-1.34 1.34 -0.68 0.68 0 0 Z " fill="#D7ECF5" transform="translate(66,25)"/>
<path d="M0 0 C5.875 1.875 5.875 1.875 7 3 C7.1584265 5.0708472 7.25124422 7.14678029 7.31640625 9.22265625 C7.35830078 10.48271484 7.40019531 11.74277344 7.44335938 13.04101562 C7.48317596 14.38150736 7.52288814 15.7220022 7.5625 17.0625 C7.60568042 18.40691523 7.64929456 19.7513166 7.69335938 21.09570312 C7.79985358 24.3970234 7.9018646 27.69842236 8 31 C10.64 30.34 13.28 29.68 16 29 C15.67 30.32 15.34 31.64 15 33 C14.01 33 13.02 33 12 33 C12 33.66 12 34.32 12 35 C8.625 35.125 8.625 35.125 5 35 C3 33 3 33 2.77294922 30.01904297 C2.78342285 28.77268066 2.79389648 27.52631836 2.8046875 26.2421875 C2.8075174 25.57913605 2.81034729 24.91608459 2.81326294 24.23294067 C2.82446565 22.11344417 2.84956949 19.99436896 2.875 17.875 C2.88502972 16.43880818 2.89415559 15.00260975 2.90234375 13.56640625 C2.924405 10.04413372 2.95893506 6.52210797 3 3 C1.68 2.34 0.36 1.68 -1 1 C-0.67 0.67 -0.34 0.34 0 0 Z " fill="#1891DA" transform="translate(28,46)"/>
<path d="M0 0 C2.4375 1.5625 2.4375 1.5625 4 4 C3.93866496 7.4960972 3.65265114 9.93514814 1.8125 12.9375 C-1.04321839 14.61154181 -2.75356156 14.58435892 -6 14 C-9 11.375 -9 11.375 -11 8 C-10.5 4.75 -10.5 4.75 -9 2 C-5.50875983 -0.32749345 -4.10777749 -0.50299316 0 0 Z " fill="#78D4F5" transform="translate(51,14)"/>
<path d="M0 0 C0.99 0.495 0.99 0.495 2 1 C2.33 9.58 2.66 18.16 3 27 C4.32 27.66 5.64 28.32 7 29 C7.33 27.68 7.66 26.36 8 25 C8.66 25 9.32 25 10 25 C10 18.73 10 12.46 10 6 C10.99 6.66 11.98 7.32 13 8 C13.34057617 10.06298828 13.34057617 10.06298828 13.29296875 12.5703125 C13.28330078 13.46621094 13.27363281 14.36210938 13.26367188 15.28515625 C13.23853516 16.22230469 13.21339844 17.15945312 13.1875 18.125 C13.17396484 19.06988281 13.16042969 20.01476562 13.14648438 20.98828125 C13.11106306 23.32608779 13.06167271 25.66276237 13 28 C12.01 27.67 11.02 27.34 10 27 C9.01 29.475 9.01 29.475 8 32 C5.6875 32.25 5.6875 32.25 3 32 C0.62313223 29.68258031 0.03341229 28.29671067 -0.34057617 24.97558594 C-0.32486572 23.82348633 -0.30915527 22.67138672 -0.29296875 21.484375 C-0.28330078 20.23398438 -0.27363281 18.98359375 -0.26367188 17.6953125 C-0.2259668 15.74238281 -0.2259668 15.74238281 -0.1875 13.75 C-0.16719727 11.77386719 -0.16719727 11.77386719 -0.14648438 9.7578125 C-0.11112551 6.50479679 -0.06177033 3.252604 0 0 Z " fill="#1480C8" transform="translate(52,59)"/>
<path d="M0 0 C3 0.625 3 0.625 5.5 2.75 C7 5.625 7 5.625 6.4375 8.8125 C5 11.625 5 11.625 2 13.625 C-0.80917938 13.41431155 -2.48792117 13.00905913 -4.75 11.3125 C-6.26592687 9.26599873 -6.92443189 8.19431574 -7 5.625 C-5.02662651 2.15186266 -3.96000319 0.82500066 0 0 Z " fill="#22A7E5" transform="translate(28,27.375)"/>
<path d="M0 0 C3.125 0.375 3.125 0.375 5.5625 2 C7.125 4.375 7.125 4.375 7.0625 7.4375 C5.69478967 11.72299235 5.69478967 11.72299235 3.125 13.375 C-0.16153916 13.96489164 -1.44882999 13.65537501 -4.25 11.8125 C-5.875 9.375 -5.875 9.375 -5.75 5.75 C-4.68943783 1.65926021 -4.24609182 0.55383806 0 0 Z " fill="#44B6EA" transform="translate(86.875,22.625)"/>
<path d="M0 0 C2.875 0.5625 2.875 0.5625 5.875 3.5625 C2.575 3.5625 -0.725 3.5625 -4.125 3.5625 C-4.13958252 4.36469971 -4.15416504 5.16689941 -4.16918945 5.9934082 C-4.24356719 9.62109699 -4.34026243 13.24785504 -4.4375 16.875 C-4.46005859 18.13763672 -4.48261719 19.40027344 -4.50585938 20.70117188 C-4.5590332 22.51391602 -4.5590332 22.51391602 -4.61328125 24.36328125 C-4.63946533 25.47872314 -4.66564941 26.59416504 -4.69262695 27.7434082 C-5.16140899 30.79988825 -5.70317266 31.72709883 -8.125 33.5625 C-8.785 33.2325 -9.445 32.9025 -10.125 32.5625 C-9.795 32.2325 -9.465 31.9025 -9.125 31.5625 C-9.02789238 29.77937067 -8.99297343 27.99278212 -8.984375 26.20703125 C-8.96503906 25.10939453 -8.94570312 24.01175781 -8.92578125 22.88085938 C-8.89221247 20.56332246 -8.87372013 18.24551291 -8.87109375 15.92773438 C-8.6609658 6.45538746 -8.6609658 6.45538746 -5.7734375 2.796875 C-3.125 0.5625 -3.125 0.5625 0 0 Z " fill="#64B6E6" transform="translate(87.125,38.4375)"/>
<path d="M0 0 C0.99 0.33 1.98 0.66 3 1 C3 13.87 3 26.74 3 40 C-0.28755424 35.61659434 -0.48023982 33.17670336 -0.546875 27.98828125 C-0.56719788 27.21945114 -0.58752075 26.45062103 -0.60845947 25.65849304 C-0.64857159 24.03900233 -0.68177099 22.41932748 -0.70849609 20.79956055 C-0.75003423 18.31044903 -0.81263617 15.82254864 -0.87890625 13.33398438 C-0.91528775 11.76044452 -0.95048552 10.18687675 -0.984375 8.61328125 C-1.0019989 7.86540848 -1.0196228 7.11753571 -1.03778076 6.34700012 C-1.06476501 4.56482653 -1.03786615 2.78197559 -1 1 C-0.67 0.67 -0.34 0.34 0 0 Z " fill="#1CA1E9" transform="translate(71,29)"/>
<path d="M0 0 C4.04496632 4.04496632 3.41722362 6.49791136 3.45898438 12.00390625 C3.44834961 13.73447266 3.44834961 13.73447266 3.4375 15.5 C3.45748047 16.65371094 3.47746094 17.80742188 3.49804688 18.99609375 C3.49740234 20.10082031 3.49675781 21.20554687 3.49609375 22.34375 C3.49794678 23.35630859 3.4997998 24.36886719 3.50170898 25.41210938 C3 28 3 28 0.96899414 29.85351562 C0.31922607 30.23185547 -0.33054199 30.61019531 -1 31 C-1.99 30.34 -2.98 29.68 -4 29 C-4.34057617 26.47802734 -4.34057617 26.47802734 -4.29296875 23.3359375 C-4.28330078 22.21445313 -4.27363281 21.09296875 -4.26367188 19.9375 C-4.23853516 18.761875 -4.21339844 17.58625 -4.1875 16.375 C-4.17396484 15.19164062 -4.16042969 14.00828125 -4.14648438 12.7890625 C-4.11103916 9.85892461 -4.06162769 6.92968541 -4 4 C-3.67 4 -3.34 4 -3 4 C-3 11.92 -3 19.84 -3 28 C-2.01 27.67 -1.02 27.34 0 27 C0 18.09 0 9.18 0 0 Z " fill="#ACD2E7" transform="translate(93,42)"/>
<path d="M0 0 C1.134375 0.020625 2.26875 0.04125 3.4375 0.0625 C3.4375 1.0525 3.4375 2.0425 3.4375 3.0625 C2.4475 3.0625 1.4575 3.0625 0.4375 3.0625 C0.4375 3.7225 0.4375 4.3825 0.4375 5.0625 C-0.2225 5.0625 -0.8825 5.0625 -1.5625 5.0625 C-1.2325 6.0525 -0.9025 7.0425 -0.5625 8.0625 C-0.54077148 9.96362305 -0.54077148 9.96362305 -0.68359375 12.07421875 C-0.73193359 12.83154297 -0.78027344 13.58886719 -0.83007812 14.36914062 C-0.88615234 15.15482422 -0.94222656 15.94050781 -1 16.75 C-1.05220703 17.54728516 -1.10441406 18.34457031 -1.15820312 19.16601562 C-1.28769022 21.13186522 -1.42440041 23.09723665 -1.5625 25.0625 C-1.8925 25.0625 -2.2225 25.0625 -2.5625 25.0625 C-2.8925 26.7125 -3.2225 28.3625 -3.5625 30.0625 C-3.8925 30.0625 -4.2225 30.0625 -4.5625 30.0625 C-4.58715746 25.9507744 -4.60533959 21.83907722 -4.61743164 17.72729492 C-4.6224708 16.32754772 -4.62930216 14.9278058 -4.63793945 13.52807617 C-4.6500232 11.52004223 -4.65519807 9.51197043 -4.66015625 7.50390625 C-4.66539307 6.29420166 -4.67062988 5.08449707 -4.67602539 3.83813477 C-4.5058671 -0.32214391 -4.29632565 0.07537413 0 0 Z " fill="#1FA7E9" transform="translate(65.5625,26.9375)"/>
<path d="M0 0 C0.66 0.99 1.32 1.98 2 3 C-0.31 2.67 -2.62 2.34 -5 2 C-5 2.66 -5 3.32 -5 4 C-4.34 4.66 -3.68 5.32 -3 6 C-3.99 6.495 -3.99 6.495 -5 7 C-5.33 19.54 -5.66 32.08 -6 45 C-6.33 45 -6.66 45 -7 45 C-7 31.14 -7 17.28 -7 3 C-8.32 3.33 -9.64 3.66 -11 4 C-10 1 -10 1 -8.3125 -0.25 C-5.18354003 -1.26479783 -3.14065278 -0.88757579 0 0 Z " fill="#A1D4EB" transform="translate(52,32)"/>
<path d="M0 0 C2.375 0.75 2.375 0.75 3.375 1.75 C3.5 4.75 3.5 4.75 3.375 7.75 C2.375 8.75 2.375 8.75 -1.1875 8.8125 C-2.321875 8.791875 -3.45625 8.77125 -4.625 8.75 C-5.95341008 3.31559513 -5.95341008 3.31559513 -4.5 0.8125 C-2.625 -0.25 -2.625 -0.25 0 0 Z " fill="#21AAE8" transform="translate(48.625,16.25)"/>
<path d="M0 0 C0.33 0 0.66 0 1 0 C1.01981934 0.94842773 1.03963867 1.89685547 1.06005859 2.87402344 C1.13825761 6.40032364 1.22495366 9.92620361 1.31738281 13.45214844 C1.35561266 14.97680658 1.390476 16.50155307 1.421875 18.02636719 C1.46765662 20.22102381 1.52562766 22.4150754 1.5859375 24.609375 C1.59748871 25.2886908 1.60903992 25.96800659 1.62094116 26.66790771 C1.73234916 30.2583736 2.05958376 32.93618488 4 36 C5.65 36 7.3 36 9 36 C9.33 34.35 9.66 32.7 10 31 C10.99 31 11.98 31 13 31 C13.33 31.66 13.66 32.32 14 33 C11.54953627 36.13659357 10.47006326 36.94227293 6.4375 37.4375 C3 37 3 37 1.3034668 35.95581055 C-0.71866946 32.92165929 -0.3677902 29.78847533 -0.29296875 26.26953125 C-0.28872391 25.51911057 -0.28447906 24.76868988 -0.28010559 23.99552917 C-0.2633245 21.60081974 -0.2256749 19.20695466 -0.1875 16.8125 C-0.17245235 15.1881632 -0.15876409 13.5638132 -0.14648438 11.93945312 C-0.11342305 7.95931052 -0.06164594 3.97979837 0 0 Z " fill="#179CEE" transform="translate(51,55)"/>
<path d="M0 0 C0.9075 0.103125 1.815 0.20625 2.75 0.3125 C2.75 0.6425 2.75 0.9725 2.75 1.3125 C1.1 1.6425 -0.55 1.9725 -2.25 2.3125 C-2.58 4.6225 -2.91 6.9325 -3.25 9.3125 C-0.94 9.6425 1.37 9.9725 3.75 10.3125 C3.75 7.6725 3.75 5.0325 3.75 2.3125 C4.74 3.3025 5.73 4.2925 6.75 5.3125 C5.125 11.0625 5.125 11.0625 1.75 13.3125 C-1.05917938 13.10181155 -2.73792117 12.69655913 -5 11 C-6.51592687 8.95349873 -7.17443189 7.88181574 -7.25 5.3125 C-5.16842411 1.64892643 -4.27562648 0.41111793 0 0 Z " fill="#8BD2F1" transform="translate(28.25,27.6875)"/>
<path d="M0 0 C1.32 0 2.64 0 4 0 C4 9.57 4 19.14 4 29 C1.76586987 25.64880481 1.76152238 24.5822245 1.8046875 20.67578125 C1.81113281 19.64775391 1.81757813 18.61972656 1.82421875 17.56054688 C1.84935547 15.95276367 1.84935547 15.95276367 1.875 14.3125 C1.88402344 13.22904297 1.89304687 12.14558594 1.90234375 11.02929688 C1.9259266 8.3526429 1.95883874 5.67643203 2 3 C1.34 2.67 0.68 2.34 0 2 C0 1.34 0 0.68 0 0 Z " fill="#B8D6E9" transform="translate(27,49)"/>
<path d="M0 0 C2.375 1.5 2.375 1.5 4 3 C3.67 3.66 3.34 4.32 3 5 C1.02 4.34 -0.96 3.68 -3 3 C-2.67 3.66 -2.34 4.32 -2 5 C-2.99 5.33 -3.98 5.66 -5 6 C-5 5.01 -5 4.02 -5 3 C-6.65 3.66 -8.3 4.32 -10 5 C-7.6853348 -0.12533009 -5.56888064 -0.44551045 0 0 Z " fill="#51BAEF" transform="translate(31,44)"/>
<path d="M0 0 C0.33 0 0.66 0 1 0 C1.02701408 2.10409639 1.04640223 4.20829178 1.0625 6.3125 C1.07410156 7.48425781 1.08570312 8.65601562 1.09765625 9.86328125 C1 13 1 13 0 16 C-3.375 16.1875 -3.375 16.1875 -7 16 C-7.66 15.01 -8.32 14.02 -9 13 C-6.03 13.495 -6.03 13.495 -3 14 C-3 13.34 -3 12.68 -3 12 C-2.34 12 -1.68 12 -1 12 C-0.67 8.04 -0.34 4.08 0 0 Z " fill="#1584C9" transform="translate(82,59)"/>
<path d="M0 0 C0.99 0.103125 1.98 0.20625 3 0.3125 C3.66 1.3025 4.32 2.2925 5 3.3125 C2.69 3.3125 0.38 3.3125 -2 3.3125 C-2.144375 4.075625 -2.28875 4.83875 -2.4375 5.625 C-3 8.3125 -3 8.3125 -4 11.3125 C-4.66 10.6525 -5.32 9.9925 -6 9.3125 C-5.37481259 0.55987631 -5.37481259 0.55987631 0 0 Z " fill="#7FD5F3" transform="translate(87,22.6875)"/>
<path d="M0 0 C-0.33 1.32 -0.66 2.64 -1 4 C-1.99 4 -2.98 4 -4 4 C-4 4.66 -4 5.32 -4 6 C-5.65 6 -7.3 6 -9 6 C-9.66 4.35 -10.32 2.7 -11 1 C-10.443125 1.20625 -9.88625 1.4125 -9.3125 1.625 C-5.72619259 2.20656336 -3.49137937 0 0 0 Z " fill="#1582CD" transform="translate(44,75)"/>
<path d="M0 0 C0.5625 1.9375 0.5625 1.9375 1 4 C0.67 4.33 0.34 4.66 0 5 C-0.15620555 6.41327947 -0.25056173 7.8335459 -0.31640625 9.25390625 C-0.35830078 10.10791016 -0.40019531 10.96191406 -0.44335938 11.84179688 C-0.50233398 13.18854492 -0.50233398 13.18854492 -0.5625 14.5625 C-0.60568359 15.46419922 -0.64886719 16.36589844 -0.69335938 17.29492188 C-0.79978142 19.52978485 -0.90179988 21.76476308 -1 24 C-1.99 23.67 -2.98 23.34 -4 23 C-3.34 23 -2.68 23 -2 23 C-2 16.4 -2 9.8 -2 3 C-2.99 2.67 -3.98 2.34 -5 2 C-2 0 -2 0 0 0 Z " fill="#21A1EB" transform="translate(26,47)"/>
<path d="M0 0 C0.33 0 0.66 0 1 0 C1.01981934 0.76666992 1.03963867 1.53333984 1.06005859 2.32324219 C1.15535446 5.79917219 1.26501598 9.27450506 1.375 12.75 C1.4059375 13.9565625 1.436875 15.163125 1.46875 16.40625 C1.50742187 17.56640625 1.54609375 18.7265625 1.5859375 19.921875 C1.6173584 20.99018555 1.6487793 22.05849609 1.68115234 23.15917969 C1.99200148 25.92873598 2.57670532 27.63283621 4 30 C2.68 29.34 1.36 28.68 0 28 C0 18.76 0 9.52 0 0 Z " fill="#33A7EF" transform="translate(31,51)"/>
<path d="M0 0 C0.66 0 1.32 0 2 0 C1.67 0.99 1.34 1.98 1 3 C0.84970012 5.06362991 0.75155552 7.13123915 0.68359375 9.19921875 C0.64169922 10.40771484 0.59980469 11.61621094 0.55664062 12.86132812 C0.51732422 14.12396484 0.47800781 15.38660156 0.4375 16.6875 C0.39431641 17.96173828 0.35113281 19.23597656 0.30664062 20.54882812 C0.2004514 23.69910852 0.09840467 26.84946839 0 30 C-0.33 30 -0.66 30 -1 30 C-1.02465746 25.8882744 -1.04283959 21.77657722 -1.05493164 17.66479492 C-1.0599708 16.26504772 -1.06680216 14.8653058 -1.07543945 13.46557617 C-1.0875232 11.45754223 -1.09269807 9.44947043 -1.09765625 7.44140625 C-1.10289307 6.23170166 -1.10812988 5.02199707 -1.11352539 3.77563477 C-1 1 -1 1 0 0 Z " fill="#34B7F7" transform="translate(62,27)"/>
<path d="M0 0 C0.99 0.99 1.98 1.98 3 3 C1.4375 5 1.4375 5 -1 7 C-4.75 7.25 -4.75 7.25 -8 7 C-8.33 6.34 -8.66 5.68 -9 5 C-6.69 5.33 -4.38 5.66 -2 6 C-1.855625 5.195625 -1.71125 4.39125 -1.5625 3.5625 C-1 1 -1 1 0 0 Z " fill="#70ADDA" transform="translate(62,85)"/>
<path d="M0 0 C0.9075 0.103125 1.815 0.20625 2.75 0.3125 C2.75 0.6425 2.75 0.9725 2.75 1.3125 C1.1 1.6425 -0.55 1.9725 -2.25 2.3125 C-2.97256829 6.79383574 -2.97256829 6.79383574 -3.25 11.3125 C-3.91 11.3125 -4.57 11.3125 -5.25 11.3125 C-6.5 8.625 -6.5 8.625 -7.25 5.3125 C-5.27230442 1.52191681 -4.31171369 0.41458785 0 0 Z " fill="#98D8F1" transform="translate(28.25,27.6875)"/>
<path d="M0 0 C0.99 0 1.98 0 3 0 C2.52433594 1.04220703 2.52433594 1.04220703 2.0390625 2.10546875 C0.90598948 5.26188644 0.59519989 7.97280167 0.375 11.3125 C0.30023438 12.38113281 0.22546875 13.44976562 0.1484375 14.55078125 C0.09945312 15.35902344 0.05046875 16.16726562 0 17 C-0.33 17 -0.66 17 -1 17 C-1.02691685 14.54159395 -1.04679802 12.08348118 -1.0625 9.625 C-1.07087891 8.92632812 -1.07925781 8.22765625 -1.08789062 7.5078125 C-1.11328125 2.2265625 -1.11328125 2.2265625 0 0 Z " fill="#1B94D6" transform="translate(83,42)"/>
<path d="M0 0 C3.19410622 0.46580716 4.10442866 0.91007155 6 3.4375 C4.948125 3.416875 3.89625 3.39625 2.8125 3.375 C-0.32704904 3.42646802 -2.96883396 3.70267187 -6 4.4375 C-4.25840822 1.34133684 -3.60277923 0.5254053 0 0 Z " fill="#82CFF3" transform="translate(87,38.5625)"/>
<path d="M0 0 C0.66 0.99 1.32 1.98 2 3 C0.9275 2.979375 -0.145 2.95875 -1.25 2.9375 C-4.14790424 2.9857984 -6.28612141 3.13155885 -9 4 C-8.67 3.01 -8.34 2.02 -8 1 C-5.21136993 -0.39431504 -3.07921132 -0.25660094 0 0 Z " fill="#82DCF5" transform="translate(51,14)"/>
<path d="M0 0 C1.5625 1.0625 1.5625 1.0625 3 3 C2.6875 6.6875 2.6875 6.6875 2 10 C-0.4294516 6.3558226 -0.16179575 4.28758728 0 0 Z " fill="#92DEF6" transform="translate(72,9)"/>
<path d="M0 0 C0.33 0.66 0.66 1.32 1 2 C-1.97 2.66 -4.94 3.32 -8 4 C-8 3.34 -8 2.68 -8 2 C-4.77208445 -0.1519437 -3.71599191 -0.20086443 0 0 Z " fill="#98E0F5" transform="translate(70,7)"/>
<path d="M0 0 C0.66 0.33 1.32 0.66 2 1 C2 1.66 2 2.32 2 3 C3.65 3 5.3 3 7 3 C7 2.34 7 1.68 7 1 C7.99 1.33 8.98 1.66 10 2 C8 4 8 4 4.5 4.3125 C3.345 4.209375 2.19 4.10625 1 4 C0.34 3.01 -0.32 2.02 -1 1 C-0.67 0.67 -0.34 0.34 0 0 Z " fill="#9DDFF3" transform="translate(63,18)"/>
<path d="M0 0 C0.33 0 0.66 0 1 0 C1.04898438 0.61488281 1.09796875 1.22976562 1.1484375 1.86328125 C1.22320312 2.67152344 1.29796875 3.47976562 1.375 4.3125 C1.44460937 5.11300781 1.51421875 5.91351563 1.5859375 6.73828125 C1.89564426 9.27224441 1.89564426 9.27224441 4 12 C2.68 11.67 1.36 11.34 0 11 C0 7.37 0 3.74 0 0 Z " fill="#2C96E3" transform="translate(51,78)"/>
<path d="M0 0 C5.41538462 -0.36923077 5.41538462 -0.36923077 8.375 1.5 C8.91125 1.995 9.4475 2.49 10 3 C9.67 3.66 9.34 4.32 9 5 C7.68 4.34 6.36 3.68 5 3 C5 2.34 5 1.68 5 1 C3.35 1 1.7 1 0 1 C0 0.67 0 0.34 0 0 Z " fill="#ABDBF2" transform="translate(25,44)"/>
<path d="M0 0 C1.65 1.65 3.3 3.3 5 5 C3.0625 4.1875 3.0625 4.1875 1 3 C0.67 2.01 0.34 1.02 0 0 Z " fill="#FFFFFF" transform="translate(29,78)"/>
<path d="M0 0 C0 0.99 0 1.98 0 3 C-1.98 3.99 -1.98 3.99 -4 5 C-2.68 3.35 -1.36 1.7 0 0 Z " fill="#FFFFFF" transform="translate(46,78)"/>
<path d="M0 0 C0 0.99 0 1.98 0 3 C-1.32 3.33 -2.64 3.66 -4 4 C-2.68 2.68 -1.36 1.36 0 0 Z " fill="#FFFFFF" transform="translate(65,89)"/>
<path d="M0 0 C1.98 0.99 1.98 0.99 4 2 C3.67 2.66 3.34 3.32 3 4 C2.01 2.68 1.02 1.36 0 0 Z " fill="#FFFFFF" transform="translate(33,44)"/>
<path d="M0 0 C0 0.99 0 1.98 0 3 C-0.99 3 -1.98 3 -3 3 C-2.01 2.01 -1.02 1.02 0 0 Z " fill="#FFFFFF" transform="translate(34,38)"/>
<path d="M0 0 C0.66 0.33 1.32 0.66 2 1 C0.68 1.99 -0.64 2.98 -2 4 C-1.34 2.68 -0.68 1.36 0 0 Z " fill="#FFFFFF" transform="translate(41,31)"/>
<path d="M0 0 C1.98 0.99 1.98 0.99 4 2 C3.67 2.66 3.34 3.32 3 4 C2.01 2.68 1.02 1.36 0 0 Z " fill="#FFFFFF" transform="translate(72,25)"/>
<path d="M0 0 C0.66 0.33 1.32 0.66 2 1 C0.68 1.99 -0.64 2.98 -2 4 C-1.34 2.68 -0.68 1.36 0 0 Z " fill="#FFFFFF" transform="translate(61,25)"/>
<path d="M0 0 C0.66 0.33 1.32 0.66 2 1 C0.68 1.99 -0.64 2.98 -2 4 C-1.34 2.68 -0.68 1.36 0 0 Z " fill="#FFFFFF" transform="translate(82,22)"/>
<path d="M0 0 C0.66 0.33 1.32 0.66 2 1 C0.68 1.99 -0.64 2.98 -2 4 C-1.34 2.68 -0.68 1.36 0 0 Z " fill="#FFFFFF" transform="translate(42,13)"/>
<path d="M0 0 C0 0.99 0 1.98 0 3 C-0.66 2.67 -1.32 2.34 -2 2 C-1.34 1.34 -0.68 0.68 0 0 Z " fill="#FFFFFF" transform="translate(85,74)"/>
<path d="M0 0 C0.99 0.99 1.98 1.98 3 3 C2.01 2.67 1.02 2.34 0 2 C0 1.34 0 0.68 0 0 Z " fill="#FFFFFF" transform="translate(88,71)"/>
<path d="M0 0 C0.66 0.33 1.32 0.66 2 1 C1.01 1.66 0.02 2.32 -1 3 C-0.67 2.01 -0.34 1.02 0 0 Z " fill="#FFFFFF" transform="translate(26,71)"/>
<path d="M0 0 C0.66 0.33 1.32 0.66 2 1 C1.01 1.66 0.02 2.32 -1 3 C-0.67 2.01 -0.34 1.02 0 0 Z " fill="#FFFFFF" transform="translate(21,44)"/>
<path d="M0 0 C0.99 0.99 1.98 1.98 3 3 C2.01 2.67 1.02 2.34 0 2 C0 1.34 0 0.68 0 0 Z " fill="#FFFFFF" transform="translate(21,38)"/>
<path d="M0 0 C0.99 0.33 1.98 0.66 3 1 C2.67 1.66 2.34 2.32 2 3 C1.34 2.01 0.68 1.02 0 0 Z " fill="#FFFFFF" transform="translate(72,7)"/>
<path d="M0 0 C0.66 0.33 1.32 0.66 2 1 C1.01 1.66 0.02 2.32 -1 3 C-0.67 2.01 -0.34 1.02 0 0 Z " fill="#FFFFFF" transform="translate(61,7)"/>
<path d="M0 0 C0.99 0.495 0.99 0.495 2 1 C1.67 1.66 1.34 2.32 1 3 C0.67 2.01 0.34 1.02 0 0 Z " fill="#FFFFFF" transform="translate(19,71)"/>
<path d="M0 0 C0.99 0.495 0.99 0.495 2 1 C1.67 1.66 1.34 2.32 1 3 C0.67 2.01 0.34 1.02 0 0 Z " fill="#FFFFFF" transform="translate(94,40)"/>
<path d="M0 0 C0.99 0.33 1.98 0.66 3 1 C2.01 1 1.02 1 0 1 C0 0.67 0 0.34 0 0 Z " fill="#FFFFFF" transform="translate(91,38)"/>
<path d="M0 0 C0.66 0.33 1.32 0.66 2 1 C1.01 1 0.02 1 -1 1 C-0.67 0.67 -0.34 0.34 0 0 Z " fill="#FFFFFF" transform="translate(91,35)"/>
<path d="M0 0 C0 3 0 3 0 3 Z " fill="#FFFFFF" transform="translate(94,32)"/>
<path d="M0 0 C0.99 0.495 0.99 0.495 2 1 C1.67 1.66 1.34 2.32 1 3 C0.67 2.01 0.34 1.02 0 0 Z " fill="#FFFFFF" transform="translate(34,29)"/>
<path d="M0 0 C0.66 0.33 1.32 0.66 2 1 C1.01 1 0.02 1 -1 1 C-0.67 0.67 -0.34 0.34 0 0 Z " fill="#FFFFFF" transform="translate(52,27)"/>
<path d="M0 0 C0 3 0 3 0 3 Z " fill="#FFFFFF" transform="translate(55,24)"/>
<path d="M0 0 C0.99 0.33 1.98 0.66 3 1 C2.01 1 1.02 1 0 1 C0 0.67 0 0.34 0 0 Z " fill="#FFFFFF" transform="translate(61,21)"/>
<path d="M0 0 C0.99 0.495 0.99 0.495 2 1 C1.67 1.66 1.34 2.32 1 3 C0.67 2.01 0.34 1.02 0 0 Z " fill="#FFFFFF" transform="translate(59,18)"/>
<path d="M0 0 C0 3 0 3 0 3 Z " fill="#FFFFFF" transform="translate(75,18)"/>
<path d="M0 0 C0.66 0.66 1.32 1.32 2 2 C1.34 2 0.68 2 0 2 C0 1.34 0 0.68 0 0 Z " fill="#FFFFFF" transform="translate(70,75)"/>
<path d="M0 0 C0.99 0.495 0.99 0.495 2 1 C1.01 1.495 1.01 1.495 0 2 C0 1.34 0 0.68 0 0 Z " fill="#FFFFFF" transform="translate(80,39)"/>
<path d="M0 0 C0.66 0.66 1.32 1.32 2 2 C1.34 2 0.68 2 0 2 C0 1.34 0 0.68 0 0 Z " fill="#FFFFFF" transform="translate(81,34)"/>
<path d="M0 0 C0.66 0 1.32 0 2 0 C1.67 0.66 1.34 1.32 1 2 C0.67 1.34 0.34 0.68 0 0 Z " fill="#FFFFFF" transform="translate(92,23)"/>
<path d="M0 0 C0.33 0.66 0.66 1.32 1 2 C0.34 1.67 -0.32 1.34 -1 1 C-0.67 0.67 -0.34 0.34 0 0 Z " fill="#FFFFFF" transform="translate(64,23)"/>
<path d="M0 0 C2 1 2 1 2 1 Z " fill="#FFFFFF" transform="translate(52,92)"/>
<path d="" fill="#FFFFFF" transform="translate(0,0)"/>
<path d="" fill="#FFFFFF" transform="translate(0,0)"/>
<path d="M0 0 C2 1 2 1 2 1 Z " fill="#FFFFFF" transform="translate(81,77)"/>
<path d="M0 0 C2 1 2 1 2 1 Z " fill="#FFFFFF" transform="translate(72,77)"/>
<path d="" fill="#FFFFFF" transform="translate(0,0)"/>
<path d="" fill="#FFFFFF" transform="translate(0,0)"/>
<path d="" fill="#FFFFFF" transform="translate(0,0)"/>
<path d="M0 0 C2 1 2 1 2 1 Z " fill="#FFFFFF" transform="translate(23,43)"/>
<path d="M0 0 C2 1 2 1 2 1 Z " fill="#FFFFFF" transform="translate(24,41)"/>
<path d="M0 0 C2 1 2 1 2 1 Z " fill="#FFFFFF" transform="translate(82,38)"/>
<path d="M0 0 C2 1 2 1 2 1 Z " fill="#FFFFFF" transform="translate(83,36)"/>
<path d="" fill="#FFFFFF" transform="translate(0,0)"/>
<path d="" fill="#FFFFFF" transform="translate(0,0)"/>
<path d="" fill="#FFFFFF" transform="translate(0,0)"/>
<path d="" fill="#FFFFFF" transform="translate(0,0)"/>
<path d="M0 0 C2 1 2 1 2 1 Z " fill="#FFFFFF" transform="translate(51,30)"/>
<path d="M0 0 C2 1 2 1 2 1 Z " fill="#FFFFFF" transform="translate(43,30)"/>
<path d="" fill="#FFFFFF" transform="translate(0,0)"/>
<path d="M0 0 C2 1 2 1 2 1 Z " fill="#FFFFFF" transform="translate(43,28)"/>
<path d="M0 0 C2 1 2 1 2 1 Z " fill="#FFFFFF" transform="translate(31,27)"/>
<path d="M0 0 C2 1 2 1 2 1 Z " fill="#FFFFFF" transform="translate(23,27)"/>
<path d="" fill="#FFFFFF" transform="translate(0,0)"/>
<path d="" fill="#FFFFFF" transform="translate(0,0)"/>
<path d="M0 0 C2 1 2 1 2 1 Z " fill="#FFFFFF" transform="translate(71,22)"/>
<path d="" fill="#FFFFFF" transform="translate(0,0)"/>
<path d="M0 0 C2 1 2 1 2 1 Z " fill="#FFFFFF" transform="translate(51,13)"/>
<path d="" fill="#FFFFFF" transform="translate(0,0)"/>
<path d="M0 0 C2 1 2 1 2 1 Z " fill="#FFFFFF" transform="translate(63,6)"/>
<path d="" fill="#FFFFFF" transform="translate(0,0)"/>
<path d="" fill="#FFFFFF" transform="translate(0,0)"/>
<path d="" fill="#FFFFFF" transform="translate(0,0)"/>
<path d="" fill="#FFFFFF" transform="translate(0,0)"/>
<path d="" fill="#FFFFFF" transform="translate(0,0)"/>
<path d="" fill="#FFFFFF" transform="translate(0,0)"/>
<path d="" fill="#FFFFFF" transform="translate(0,0)"/>
<path d="" fill="#FFFFFF" transform="translate(0,0)"/>
<path d="" fill="#FFFFFF" transform="translate(0,0)"/>
<path d="" fill="#FFFFFF" transform="translate(0,0)"/>
<path d="" fill="#FFFFFF" transform="translate(0,0)"/>
<path d="" fill="#FFFFFF" transform="translate(0,0)"/>
<path d="" fill="#FFFFFF" transform="translate(0,0)"/>
<path d="" fill="#FFFFFF" transform="translate(0,0)"/>
<path d="" fill="#FFFFFF" transform="translate(0,0)"/>
<path d="" fill="#FFFFFF" transform="translate(0,0)"/>
<path d="" fill="#FFFFFF" transform="translate(0,0)"/>
<path d="" fill="#FFFFFF" transform="translate(0,0)"/>
<path d="" fill="#FFFFFF" transform="translate(0,0)"/>
<path d="" fill="#FFFFFF" transform="translate(0,0)"/>
<path d="" fill="#FFFFFF" transform="translate(0,0)"/>
<path d="" fill="#FFFFFF" transform="translate(0,0)"/>
<path d="" fill="#FFFFFF" transform="translate(0,0)"/>
<path d="" fill="#FFFFFF" transform="translate(0,0)"/>
<path d="" fill="#FFFFFF" transform="translate(0,0)"/>
<path d="" fill="#FFFFFF" transform="translate(0,0)"/>
<path d="" fill="#FFFFFF" transform="translate(0,0)"/>
<path d="" fill="#FFFFFF" transform="translate(0,0)"/>
<path d="" fill="#FFFFFF" transform="translate(0,0)"/>
<path d="" fill="#FFFFFF" transform="translate(0,0)"/>
<path d="" fill="#FFFFFF" transform="translate(0,0)"/>
<path d="" fill="#FFFFFF" transform="translate(0,0)"/>
<path d="" fill="#FFFFFF" transform="translate(0,0)"/>
<path d="" fill="#FFFFFF" transform="translate(0,0)"/>
<path d="" fill="#FFFFFF" transform="translate(0,0)"/>
<path d="" fill="#FFFFFF" transform="translate(0,0)"/>
<path d="" fill="#FFFFFF" transform="translate(0,0)"/>
<path d="" fill="#FFFFFF" transform="translate(0,0)"/>
<path d="" fill="#FFFFFF" transform="translate(0,0)"/>
<path d="" fill="#FFFFFF" transform="translate(0,0)"/>
<path d="" fill="#FFFFFF" transform="translate(0,0)"/>
<path d="" fill="#FFFFFF" transform="translate(0,0)"/>
</svg>
