<svg width="13" height="18" viewBox="0 0 13 18" fill="none" xmlns="http://www.w3.org/2000/svg">
<path d="M1.2724 10.8739C1.59233 10.8739 1.79038 10.8739 2.06461 10.8739C2.06461 12.5802 2.06461 14.2713 2.06461 16.0385C5.21823 16.0385 8.28044 16.0385 11.4188 16.0385C11.4188 11.3309 11.4188 6.62336 11.4188 1.90055C8.31091 1.90055 5.26393 1.90055 2.09508 1.90055C2.09508 3.14981 2.09508 4.35336 2.09508 5.57215C2.09508 6.3796 2.07984 7.20229 2.09508 8.00973C2.11031 8.52772 1.94273 8.78671 1.33334 8.6496C1.3181 8.48201 1.2724 8.28396 1.2724 8.08591C1.2724 6.05967 1.25716 4.0182 1.2724 1.99196C1.28763 0.68176 1.94273 0.0114262 3.23769 0.0114262C5.5991 -0.00380872 7.96051 -0.00380872 10.3219 0.0114262C11.6016 0.0114262 12.2872 0.71223 12.2872 1.99196C12.2872 6.66906 12.2872 11.3309 12.2872 16.008C12.2872 17.2725 11.5712 17.9733 10.2914 17.9886C7.9605 18.0038 5.61434 18.0038 3.2834 17.9886C1.95797 17.9886 1.2724 17.303 1.2724 15.9623C1.25716 14.2865 1.2724 12.6259 1.2724 10.8739Z" fill="#0B6FC0"/>
<g clip-path="url(#clip0_1416_3398)">
<path d="M9.34672 5.31767L9.23455 5.21556L9.18473 5.17021L9.17184 5.15847C9.17177 5.15841 9.17171 5.15835 9.17164 5.1583L9.18661 5.1418L9.18678 5.14199L9.18681 5.14202L9.1986 5.15496L9.23455 5.19446L9.34672 5.31767ZM9.34672 5.31767L9.45889 5.21556L9.51718 5.16249L9.52095 5.15907L9.50607 5.14263L9.5019 5.14721L9.45889 5.19446L9.34672 5.31767ZM8.19594 4.05356C8.22196 4.12057 8.25682 4.18702 8.29976 4.25393C8.41466 4.43295 8.58747 4.61526 8.80398 4.82034C8.91553 4.92601 9.03867 5.03772 9.17147 5.15814L9.18647 5.14165L8.80398 4.72148L8.34388 4.21607L8.19594 4.05356ZM9.52983 5.15101L9.5134 5.13458L9.88946 4.72148L10.3496 4.21607L10.4975 4.05356C10.4715 4.12057 10.4366 4.18702 10.3937 4.25393C10.2788 4.43295 10.106 4.61526 9.88946 4.82034C9.78012 4.92392 9.65963 5.03331 9.52983 5.15101Z" fill="#0B6FC0" stroke="white" stroke-width="5"/>
</g>
<path d="M5.97039 7.71505C5.98747 7.66371 6.02687 7.61776 6.08273 7.58401C6.13859 7.55025 6.20793 7.5305 6.28045 7.52769C6.35297 7.52488 6.4248 7.53916 6.48527 7.5684C6.54575 7.59764 6.59164 7.64029 6.61614 7.69001L7.53931 9.57248C7.86804 9.57216 8.07661 9.52798 8.29756 9.40754C8.3624 9.34893 8.44065 9.29889 8.52886 9.25961L8.54844 9.24521V9.25094C8.68526 9.19355 8.84044 9.16336 8.99839 9.16339C9.15634 9.16343 9.31149 9.1937 9.44826 9.25116C9.58503 9.30862 9.6986 9.39124 9.77756 9.49073C9.85652 9.59022 9.89809 9.70307 9.89809 9.81794C9.89809 9.93281 9.85652 10.0457 9.77756 10.1451C9.6986 10.2446 9.58503 10.3273 9.44826 10.3847C9.31149 10.4422 9.15634 10.4724 8.99839 10.4725C8.84044 10.4725 8.68526 10.4423 8.54844 10.3849V10.3907L8.52841 10.3763C8.44516 10.3391 8.37091 10.2923 8.30836 10.2382C8.10361 10.1302 7.91124 10.0933 7.62639 10.0873H7.31274C7.24314 10.0873 7.17525 10.0716 7.11838 10.0424C7.0615 10.0132 7.01842 9.97198 6.99504 9.9243L6.36121 8.63158L5.27266 11.9208C5.25556 11.9723 5.216 12.0184 5.15989 12.0522C5.10378 12.086 5.03413 12.1057 4.96137 12.1084C4.8886 12.111 4.81661 12.0964 4.75617 12.0668C4.69572 12.0373 4.65006 11.9942 4.62601 11.9442L3.35499 9.29692L3.01254 9.9315C2.98776 9.97741 2.94454 10.0168 2.88852 10.0446C2.83249 10.0724 2.76625 10.0873 2.69844 10.0873H0.898438V9.59638H2.46826L3.05934 8.50099C3.08455 8.45436 3.12878 8.41446 3.18608 8.38664C3.24339 8.35883 3.31103 8.34444 3.37991 8.3454C3.4488 8.34636 3.51563 8.36263 3.57142 8.39202C3.62722 8.42142 3.66931 8.46253 3.69204 8.50983L4.88499 10.9946L5.97039 7.71505Z" fill="#0B6FC0"/>
<defs>
<clipPath id="clip0_1416_3398">
<rect width="2.89463" height="2.89463" fill="white" transform="translate(7.89844 2.74219)"/>
</clipPath>
</defs>
</svg>
