<svg width="27" height="26" viewBox="0 0 27 26" fill="none" xmlns="http://www.w3.org/2000/svg">
<g clip-path="url(#clip0_535_5346)">
<path d="M13.2646 7.64658C13.2646 7.49443 13.1613 7.36944 13.0255 7.33141V5.72292C13.1613 5.68488 13.2646 5.5599 13.2646 5.40775C13.2646 5.25559 13.1613 5.13061 13.0255 5.09257V1.53869L12.2321 0.832263C12.2321 0.821395 12.2375 0.81596 12.2375 0.805092C12.2375 0.625768 12.0908 0.479048 11.9115 0.479048C11.9006 0.479048 11.8897 0.479048 11.8789 0.484482L11.5474 0.0606253L10.2541 0.191043C10.1997 0.0877957 10.0911 0.0117188 9.96064 0.0117188C9.81392 0.0117188 9.69438 0.104098 9.6509 0.234515L8.63473 0.288856L4.21684 2.50052L4.33639 4.16878C4.21684 4.21225 4.12989 4.32093 4.12446 4.45678L2.20623 4.86434L0 11.4396L0.570577 12.3579C0.537973 12.396 0.510802 12.4394 0.499934 12.4883V12.4938C0.4945 12.5209 0.489066 12.5481 0.489066 12.5753C0.489066 12.6622 0.52167 12.7383 0.576011 12.7981L0 13.7327L1.23353 16.8302C1.19006 16.8736 1.15746 16.9334 1.14659 16.9986H1.14115L1.14659 17.004C1.14115 17.0203 1.14115 17.0366 1.14115 17.0584C1.14115 17.2377 1.28787 17.3844 1.4672 17.3844C1.54871 17.3844 1.61935 17.3573 1.67369 17.3083L3.35825 18.2756C3.35282 18.3028 3.34738 18.33 3.34738 18.3571C3.34738 18.4495 3.38542 18.531 3.4452 18.5908L2.94526 19.4874L5.39603 22.5305L6.91757 23.2315C6.923 23.3619 6.99908 23.4706 7.10776 23.5195L7.13493 23.5304C7.15123 23.5358 7.16753 23.5412 7.18384 23.5412L6.63499 24.6715L8.59126 25.6877H11.1616C11.1996 25.8235 11.3246 25.9268 11.4767 25.9268C11.6289 25.9268 11.7539 25.8235 11.7919 25.6877L11.7974 25.6714C11.8028 25.6496 11.8082 25.6225 11.8082 25.5953C11.8082 25.5084 11.7756 25.4323 11.7213 25.3725L12.8679 23.3836C12.895 23.3891 12.9222 23.3945 12.9494 23.3945C13.1287 23.3945 13.2754 23.2478 13.2754 23.0685C13.2754 22.9163 13.1722 22.7913 13.0363 22.7533V20.9166C13.1722 20.8785 13.2754 20.7535 13.2754 20.6014C13.2754 20.4492 13.1722 20.3243 13.0363 20.2862V15.5586C13.1722 15.5205 13.2754 15.3956 13.2754 15.2434C13.2754 15.0913 13.1722 14.9663 13.0363 14.9282V11.4124C13.1722 11.3744 13.2754 11.2494 13.2754 11.0972C13.2754 10.9451 13.1722 10.8201 13.0363 10.782V7.96176C13.1667 7.92372 13.2646 7.79873 13.2646 7.64658ZM1.13029 12.4883C1.12485 12.4775 1.12485 12.4666 1.11942 12.4612L3.49954 10.6679L6.35242 8.51603C6.3959 8.54864 6.45024 8.57037 6.51001 8.58124L7.06429 12.2818C6.97734 12.3199 6.91213 12.396 6.88496 12.4883H1.13029ZM6.31982 8.02153C6.26004 8.08131 6.22201 8.16282 6.22201 8.2552C6.22201 8.29867 6.23287 8.33671 6.24374 8.37475L1.03791 12.2981L4.40159 4.79913C4.4179 4.79913 4.4342 4.80456 4.4505 4.80456C4.47767 4.80456 4.49941 4.79913 4.52658 4.7937L5.12976 5.88051L6.31982 8.02153ZM7.4338 16.553L10.0911 18.0746C10.0856 18.1017 10.0802 18.1289 10.0802 18.1561C10.0802 18.243 10.1128 18.3191 10.1671 18.3734L7.33056 22.9C7.31969 22.9 7.30882 22.8946 7.29795 22.8946V16.6345C7.34686 16.6182 7.39576 16.5911 7.4338 16.553ZM11.0094 22.7642C10.917 22.8076 10.8464 22.8891 10.8247 22.9869L7.56965 23.1554C7.55879 23.0902 7.52618 23.0359 7.48271 22.9869L10.3193 18.4658C10.3356 18.4712 10.3519 18.4712 10.3682 18.4767L10.3899 18.6071L11.0094 22.7642ZM7.52075 16.4009C7.52618 16.3737 7.53162 16.352 7.53162 16.3193C7.53162 16.2922 7.52618 16.265 7.52075 16.2378L7.50445 16.1889C7.46641 16.0966 7.3849 16.0313 7.29252 16.0042V12.9122L10.1617 17.9115L7.52075 16.4009ZM7.25448 12.2547C7.24904 12.2547 7.24904 12.2547 7.24361 12.2547L6.68934 8.55407C6.80345 8.49973 6.88496 8.39105 6.88496 8.2552C6.88496 8.22803 6.87953 8.20629 6.87409 8.18455L9.30856 6.85321L9.92804 6.5163C9.93347 6.52173 9.93891 6.52716 9.94978 6.5326L8.85209 8.87468L7.25448 12.2547ZM12.694 7.42922L10.4823 6.34241C10.4877 6.32067 10.4877 6.30437 10.4877 6.28263C10.4877 6.2772 10.4877 6.2772 10.4877 6.27176L12.6614 5.58707C12.7048 5.65228 12.7701 5.70119 12.8461 5.72292V7.33684C12.7864 7.35314 12.7375 7.38575 12.694 7.42922ZM9.83023 6.27176C9.83023 6.2772 9.83023 6.2772 9.83023 6.28263C9.83023 6.3098 9.83566 6.33154 9.84109 6.35327L9.50962 6.5326L6.78715 8.02153C6.72737 7.96176 6.64586 7.92372 6.55348 7.92372C6.52631 7.92372 6.50458 7.92915 6.47741 7.93459L5.17323 5.58164L4.68417 4.70675C4.70047 4.69045 4.71134 4.67415 4.72764 4.65241L7.29252 5.46752L9.83023 6.27176ZM1.14659 12.6677H6.88496C6.91757 12.7763 6.99908 12.8633 7.10776 12.8905V16.0042C7.05342 16.0205 7.00995 16.0476 6.97191 16.0802L1.52154 12.885L1.14659 12.6677ZM1.79868 17.1019L6.77085 16.4661L3.91253 18.1235C3.85275 18.0637 3.77124 18.0311 3.6843 18.0311C3.59735 18.0311 3.51584 18.0691 3.45607 18.1235L1.78237 17.1616C1.79324 17.1453 1.79324 17.1236 1.79868 17.1019ZM11.4767 25.2693C11.3898 25.2693 11.3083 25.3019 11.2485 25.3616L7.74354 23.3456L10.8627 23.2315C10.9225 23.3293 11.0257 23.3945 11.1453 23.3945C11.2757 23.3945 11.3844 23.3184 11.4387 23.2097L12.6288 23.1663C12.6451 23.2152 12.6722 23.2587 12.7048 23.2967L11.5637 25.2856C11.5311 25.2747 11.5039 25.2693 11.4767 25.2693ZM12.6233 22.9761H11.4604C11.4224 22.8511 11.3192 22.7587 11.1887 22.7424L10.6562 19.2157L10.5421 18.4549C10.553 18.4495 10.5638 18.4441 10.5693 18.4386L10.8029 18.6614L12.6505 20.4438C12.6233 20.4873 12.6125 20.5416 12.6125 20.596C12.6125 20.7481 12.7157 20.8731 12.8516 20.9111V22.7478C12.7375 22.7805 12.6559 22.8674 12.6233 22.9761ZM12.7755 20.3188L10.6942 18.3137C10.7214 18.2702 10.7323 18.2158 10.7323 18.1615C10.7323 18.0963 10.7105 18.0311 10.6779 17.9822L11.1127 17.4822L12.7972 15.5477C12.8135 15.5531 12.8298 15.5586 12.8461 15.564V20.2917C12.8244 20.2917 12.7972 20.3025 12.7755 20.3188ZM12.6125 15.2434C12.6125 15.3086 12.6342 15.3738 12.6668 15.4227L10.5475 17.8572C10.5041 17.8355 10.4606 17.8246 10.4062 17.8246C10.3791 17.8246 10.3519 17.83 10.3247 17.8355L7.4338 12.8035C7.48814 12.7437 7.52618 12.6677 7.52618 12.5807L12.6505 11.2602C12.694 11.3309 12.7592 11.3852 12.8407 11.407V14.9228C12.7103 14.9663 12.6125 15.0967 12.6125 15.2434ZM12.6125 11.0918L7.48814 12.4123C7.47184 12.3797 7.44467 12.3525 7.42294 12.3307L9.03142 8.90185L10.1128 6.60324C10.1291 6.60867 10.1454 6.60867 10.1671 6.60867C10.265 6.60867 10.3519 6.5652 10.4117 6.49999L12.6233 7.58681C12.6179 7.60854 12.6179 7.62484 12.6179 7.64658C12.6179 7.79873 12.7211 7.92372 12.857 7.96176V10.782C12.7157 10.8255 12.6125 10.9451 12.6125 11.0918ZM12.8461 1.61477V5.09257C12.7103 5.13061 12.607 5.25559 12.607 5.40775C12.607 5.41318 12.607 5.41318 12.607 5.41861L10.4334 6.10331C10.4062 6.06527 10.3736 6.03266 10.3356 6.01093L11.4333 2.48422L11.8517 1.13114C11.868 1.13114 11.8843 1.13657 11.9006 1.13657C12.0039 1.13657 12.0962 1.08766 12.156 1.01159L12.8461 1.61477ZM11.705 0.544257C11.6289 0.604032 11.58 0.696411 11.58 0.799658C11.58 0.897471 11.6235 0.984416 11.6941 1.04419L11.254 2.46248L10.1671 5.95115C10.1617 5.95115 10.1617 5.95115 10.1617 5.95115C10.0476 5.95115 9.94434 6.01093 9.89 6.09787L7.44467 5.32624L4.78198 4.48395C4.78198 4.47852 4.78198 4.47852 4.78198 4.47309C4.78198 4.42961 4.77111 4.39158 4.76024 4.35354L7.47184 2.29946L9.74328 0.576862C9.80306 0.625768 9.8737 0.658373 9.96064 0.658373C10.1345 0.658373 10.2704 0.527955 10.2867 0.359499L11.4659 0.234515L11.705 0.544257ZM8.6619 0.457312L9.64003 0.408406C9.64003 0.41384 9.64547 0.419274 9.64547 0.424708L7.24361 2.24512L4.64613 4.21225C4.60809 4.18508 4.56462 4.16335 4.51571 4.15248L4.40159 2.60377L8.6619 0.457312ZM2.34208 5.01649L4.16249 4.63067C4.18423 4.66871 4.2114 4.70132 4.23857 4.72849L0.864017 12.2547C0.847714 12.2547 0.831412 12.2492 0.81511 12.2492C0.782506 12.2492 0.755335 12.2547 0.722731 12.2655L0.195626 11.4178L2.34208 5.01649ZM0.728165 12.8905C0.755335 12.8959 0.78794 12.9068 0.81511 12.9068C0.902055 12.9068 0.983566 12.8742 1.04334 12.8144L1.26614 12.9448L6.88496 16.2378C6.87953 16.2487 6.87953 16.2596 6.87953 16.2704L1.77151 16.9225C1.71716 16.8084 1.60848 16.7269 1.47263 16.7269C1.44546 16.7269 1.41829 16.7323 1.39112 16.7378L0.20106 13.749L0.728165 12.8905ZM3.16263 19.4711L3.60822 18.6777C3.63539 18.6832 3.65713 18.6886 3.6843 18.6886C3.86362 18.6886 4.01034 18.5419 4.01034 18.3626C4.01034 18.3354 4.00491 18.3082 3.99947 18.281L6.97191 16.5584C7.00995 16.5965 7.05885 16.6237 7.10776 16.64V22.9272C7.04255 22.9543 6.99364 23.0033 6.96104 23.063L5.51014 22.3946L3.16263 19.4711ZM6.87409 24.5954L7.40663 23.5086C7.44467 23.4869 7.48271 23.4543 7.50988 23.4217L11.1453 25.5084H8.63473L6.87409 24.5954Z" fill="#0C74C2"/>
<path d="M13.9344 7.96091V10.7812C13.7986 10.8192 13.6953 10.9442 13.6953 11.0964C13.6953 11.2485 13.7986 11.3735 13.9344 11.4115V14.9274C13.7986 14.9654 13.6953 15.0904 13.6953 15.2426C13.6953 15.3947 13.7986 15.5197 13.9344 15.5577V20.2854C13.7986 20.3234 13.6953 20.4484 13.6953 20.6005C13.6953 20.7527 13.7986 20.8777 13.9344 20.9157V22.7524C13.7986 22.7905 13.6953 22.9155 13.6953 23.0676C13.6953 23.2469 13.842 23.3937 14.0214 23.3937C14.0485 23.3937 14.0757 23.3882 14.1029 23.3828L15.2495 25.3717C15.1951 25.4314 15.1625 25.5075 15.1625 25.5944C15.1625 25.6216 15.1679 25.6434 15.1734 25.6705L15.1788 25.6868C15.2169 25.8227 15.3418 25.9259 15.494 25.9259C15.6461 25.9259 15.7711 25.8227 15.8092 25.6868H18.3795L20.3357 24.6707L19.7815 23.5404C19.7978 23.5349 19.8141 23.5349 19.8304 23.5295L19.8575 23.5186C19.9662 23.4697 20.0477 23.361 20.0477 23.2306L21.5693 22.5296L24.02 19.4866L23.5201 18.5899C23.5799 18.5302 23.6179 18.4487 23.6179 18.3563C23.6179 18.3291 23.6125 18.3019 23.607 18.2748L25.2916 17.3075C25.346 17.3564 25.422 17.3836 25.4981 17.3836C25.6774 17.3836 25.8241 17.2369 25.8241 17.0575C25.8241 17.0412 25.8241 17.0249 25.8187 17.0032L25.8241 16.9978H25.8187C25.8078 16.9325 25.7752 16.8728 25.7318 16.8293L26.9653 13.7319L26.3893 12.7972C26.4436 12.7374 26.4762 12.6614 26.4762 12.5744C26.4762 12.5473 26.4708 12.5201 26.4654 12.4929V12.4875C26.4491 12.4386 26.4273 12.3951 26.3947 12.3571L26.9653 11.4387L24.7591 4.85805L22.8408 4.4505C22.83 4.32008 22.7485 4.20597 22.6289 4.16249L22.7485 2.49424L18.3306 0.277137L17.3144 0.222797C17.2709 0.0923791 17.1514 0 17.0047 0C16.8797 0 16.7656 0.0706428 16.7112 0.179324L15.4179 0.0489066L15.0864 0.472764C15.0756 0.472764 15.0647 0.46733 15.0538 0.46733C14.8745 0.46733 14.7278 0.614049 14.7278 0.793374C14.7278 0.804242 14.7278 0.809676 14.7332 0.820544L13.9398 1.52697V5.08629C13.804 5.12432 13.7007 5.24931 13.7007 5.40146C13.7007 5.55361 13.804 5.6786 13.9398 5.71664V7.32512C13.804 7.36316 13.7007 7.48814 13.7007 7.6403C13.6953 7.79788 13.7986 7.92287 13.9344 7.96091ZM20.0749 12.4875C20.0477 12.3951 19.9825 12.319 19.8956 12.281L20.4499 8.58039C20.5096 8.57495 20.5585 8.55322 20.6074 8.51518L23.4603 10.6671L25.8405 12.4603C25.835 12.4712 25.835 12.482 25.8296 12.4875H20.0749ZM21.8355 5.87966L22.4387 4.79285C22.4605 4.79828 22.4876 4.80371 22.5148 4.80371C22.5311 4.80371 22.5474 4.80371 22.5637 4.79828L25.9274 12.2973L20.7161 8.36846C20.7324 8.33042 20.7379 8.29238 20.7379 8.24891C20.7379 8.15653 20.6998 8.07502 20.64 8.01525L21.8355 5.87966ZM19.6728 16.6337V22.8937C19.6619 22.8937 19.651 22.8992 19.6402 22.8992L16.8036 18.3726C16.8579 18.3128 16.8905 18.2367 16.8905 18.1552C16.8905 18.128 16.8851 18.1009 16.8797 18.0737L19.5369 16.5522C19.5695 16.5902 19.6184 16.6174 19.6728 16.6337ZM16.5808 18.6117L16.6025 18.4813C16.6188 18.4813 16.6351 18.4758 16.6514 18.4704L19.488 22.9915C19.4446 23.035 19.412 23.0948 19.4011 23.16L16.1461 22.9915C16.1243 22.8883 16.0537 22.8068 15.9613 22.7687L16.5808 18.6117ZM16.7982 17.9161L19.6674 12.9168V16.0088C19.5695 16.0359 19.4935 16.1066 19.4554 16.1935L19.4391 16.2424C19.4337 16.2696 19.4283 16.2968 19.4283 16.3239C19.4283 16.3511 19.4337 16.3783 19.4391 16.4054L16.7982 17.9161ZM18.1186 8.86839L17.021 6.52631C17.0264 6.52088 17.0318 6.51544 17.0427 6.51001L17.6622 6.84692L20.0966 8.17827C20.0912 8.2 20.0858 8.22717 20.0858 8.24891C20.0858 8.37933 20.1673 8.49344 20.2814 8.54778L19.7271 12.2484C19.7217 12.2484 19.7217 12.2484 19.7163 12.2484L18.1186 8.86839ZM14.1137 7.33055V5.71664C14.1898 5.6949 14.255 5.64599 14.2985 5.58078L16.4721 6.26548C16.4721 6.27091 16.4721 6.27091 16.4721 6.27635C16.4721 6.29808 16.4721 6.31438 16.4776 6.33612L14.2659 7.42293C14.2279 7.3849 14.1735 7.35229 14.1137 7.33055ZM19.6728 5.46667L22.2377 4.65156C22.2485 4.66786 22.2648 4.6896 22.2811 4.7059L21.7921 5.58078L20.4879 7.93374C20.4662 7.9283 20.439 7.92287 20.4118 7.92287C20.3194 7.92287 20.2379 7.96091 20.1782 8.02068L17.4557 6.53175L17.1242 6.35242C17.1296 6.33069 17.1351 6.30352 17.1351 6.28178C17.1351 6.27635 17.1351 6.27635 17.1351 6.27091L19.6728 5.46667ZM25.4438 12.8842L19.988 16.0794C19.9499 16.0414 19.901 16.0142 19.8521 16.0033V12.8896C19.9608 12.857 20.0477 12.7755 20.0749 12.6668H25.8133L25.4438 12.8842ZM25.1829 17.1608L23.5092 18.1226C23.4495 18.0628 23.3679 18.0302 23.281 18.0302C23.1941 18.0302 23.1125 18.0683 23.0528 18.1226L20.1945 16.4652L25.1666 17.101C25.1666 17.1227 25.1721 17.1445 25.1829 17.1608ZM15.407 25.2793L14.2659 23.2904C14.2985 23.2524 14.3257 23.2089 14.342 23.16L15.532 23.2035C15.5864 23.3121 15.695 23.3882 15.8255 23.3882C15.945 23.3882 16.0483 23.323 16.108 23.2252L19.2272 23.3393L15.7222 25.3553C15.6624 25.301 15.5864 25.263 15.494 25.263C15.4614 25.2684 15.4342 25.2738 15.407 25.2793ZM14.1137 22.747V20.9103C14.2496 20.8722 14.3528 20.7473 14.3528 20.5951C14.3528 20.5408 14.3365 20.4864 14.3148 20.443L16.1624 18.6606L16.396 18.4378C16.4069 18.4432 16.4123 18.4487 16.4232 18.4541L16.3091 19.2149L15.7766 22.7416C15.6461 22.7579 15.5375 22.8502 15.5049 22.9752H14.342C14.3094 22.8665 14.2224 22.7796 14.1137 22.747ZM14.1137 20.2854V15.5577C14.13 15.5523 14.1463 15.5469 14.1626 15.5414L15.8472 17.476L16.2819 17.9759C16.2493 18.0302 16.2276 18.09 16.2276 18.1552C16.2276 18.2096 16.2439 18.2639 16.2656 18.3074L14.1844 20.3125C14.1681 20.3017 14.1409 20.2908 14.1137 20.2854ZM14.1137 14.9274V11.4115C14.1952 11.3898 14.2659 11.3355 14.3039 11.2648L19.4283 12.5853C19.4283 12.6722 19.4663 12.7483 19.5206 12.8081L16.6297 17.84C16.6025 17.8346 16.5754 17.8292 16.5482 17.8292C16.4993 17.8292 16.4504 17.84 16.4069 17.8618L14.2876 15.4273C14.3202 15.373 14.342 15.3132 14.342 15.248C14.3528 15.0958 14.255 14.9654 14.1137 14.9274ZM14.1137 10.7812V7.96091C14.2496 7.92287 14.3528 7.79788 14.3528 7.64573C14.3528 7.62399 14.3528 7.60769 14.3474 7.58596L16.5591 6.49914C16.6188 6.56435 16.7058 6.60782 16.8036 6.60782C16.8199 6.60782 16.8416 6.60782 16.8579 6.60239L17.9393 8.901L19.5478 12.3299C19.5206 12.3516 19.4989 12.3788 19.4826 12.4114L14.3583 11.0909C14.3528 10.9442 14.2496 10.8247 14.1137 10.7812ZM14.8039 1.0053C14.8636 1.08138 14.956 1.13029 15.0593 1.13029C15.0756 1.13029 15.0919 1.13029 15.1082 1.12485L15.5266 2.47793L16.6243 6.00464C16.5862 6.03181 16.5536 6.05898 16.5265 6.09702L14.3528 5.41233C14.3528 5.40689 14.3528 5.4069 14.3528 5.40146C14.3528 5.24931 14.2496 5.12432 14.1137 5.08629V1.60848L14.8039 1.0053ZM15.4994 0.233665L16.6786 0.353214C16.6949 0.52167 16.8308 0.652088 17.0047 0.652088C17.0862 0.652088 17.1622 0.619483 17.222 0.570577L19.4935 2.29318L22.2051 4.34725C22.1888 4.38529 22.1833 4.42333 22.1833 4.4668C22.1833 4.47224 22.1833 4.47224 22.1833 4.47767L19.5206 5.31995L17.0753 6.09159C17.0155 6.00464 16.9177 5.94487 16.8036 5.94487C16.7982 5.94487 16.7982 5.94487 16.7982 5.94487L15.7114 2.4562L15.2712 1.04877C15.3418 0.989 15.3853 0.902055 15.3853 0.804242C15.3853 0.700994 15.3364 0.608615 15.2603 0.548841L15.4994 0.233665ZM22.5583 2.60292L22.4442 4.15163C22.3953 4.16249 22.3518 4.18423 22.3137 4.2114L19.7163 2.24427L17.3198 0.423857C17.3198 0.418423 17.3253 0.412989 17.3253 0.407555L18.3034 0.456461L22.5583 2.60292ZM26.7642 11.417L26.2371 12.2647C26.21 12.2538 26.1774 12.2484 26.1448 12.2484C26.1285 12.2484 26.1122 12.2484 26.0959 12.2538L22.7213 4.7222C22.7539 4.69503 22.7811 4.66243 22.7974 4.62439L24.6178 5.01021L26.7642 11.417ZM26.7642 13.7482L25.5742 16.7369C25.547 16.7315 25.5198 16.7261 25.4927 16.7261C25.3623 16.7261 25.2481 16.8076 25.1938 16.9217L20.0858 16.2696C20.0858 16.2587 20.0803 16.2479 20.0803 16.237L25.6992 12.9439L25.922 12.8135C25.9817 12.8679 26.0632 12.9059 26.1502 12.9059C26.1828 12.9059 26.21 12.9005 26.2371 12.8896L26.7642 13.7482ZM21.4552 22.3829L19.9988 23.0567C19.9662 22.997 19.9119 22.9481 19.8521 22.9209V16.6337C19.9064 16.6174 19.9499 16.5902 19.988 16.5522L22.9604 18.2748C22.955 18.3019 22.9495 18.3291 22.9495 18.3563C22.9495 18.5356 23.0962 18.6823 23.2756 18.6823C23.3027 18.6823 23.3245 18.6769 23.3516 18.6714L23.7972 19.4648L21.4552 22.3829ZM18.3306 25.5075H15.82L19.4554 23.4208C19.4826 23.4589 19.5152 23.486 19.5587 23.5078L20.0912 24.5946L18.3306 25.5075Z" fill="url(#paint0_linear_535_5346)"/>
</g>
<defs>
<linearGradient id="paint0_linear_535_5346" x1="15.1869" y1="11.1111" x2="26.6684" y2="13.7037" gradientUnits="userSpaceOnUse">
<stop stop-color="#24BEE0"/>
<stop offset="0.4924" stop-color="#24BEE0"/>
<stop offset="1" stop-color="#24BEE0"/>
</linearGradient>
<clipPath id="clip0_535_5346">
<rect width="26.9638" height="25.9259" fill="white"/>
</clipPath>
</defs>
</svg>
