<svg width="12" height="13" viewBox="0 0 12 13" fill="none" xmlns="http://www.w3.org/2000/svg">
<path fill-rule="evenodd" clip-rule="evenodd" d="M0.817549 0.93083C0.934737 0.813788 1.09359 0.748047 1.25922 0.748047C1.42484 0.748047 1.58369 0.813788 1.70088 0.93083L11.7009 10.9308C11.7623 10.988 11.8115 11.057 11.8457 11.1337C11.8799 11.2104 11.8982 11.2931 11.8997 11.3771C11.9012 11.461 11.8858 11.5443 11.8543 11.6222C11.8229 11.7 11.7761 11.7707 11.7167 11.83C11.6574 11.8894 11.5867 11.9362 11.5089 11.9676C11.4311 11.999 11.3477 12.0145 11.2638 12.013C11.1799 12.0115 11.0971 11.9931 11.0204 11.959C10.9438 11.9248 10.8748 11.8756 10.8175 11.8142L0.817549 1.81416C0.700507 1.69698 0.634766 1.53812 0.634766 1.3725C0.634766 1.20687 0.700507 1.04802 0.817549 0.93083Z" fill="#ED4C5C"/>
<path fill-rule="evenodd" clip-rule="evenodd" d="M11.7015 0.93083C11.8185 1.04802 11.8843 1.20687 11.8843 1.3725C11.8843 1.53812 11.8185 1.69698 11.7015 1.81416L1.70147 11.8142C1.58299 11.9246 1.42628 11.9847 1.26436 11.9818C1.10245 11.979 0.94796 11.9134 0.833449 11.7988C0.718938 11.6843 0.653345 11.5299 0.650488 11.3679C0.647631 11.206 0.707734 11.0493 0.818134 10.9308L10.8181 0.93083C10.9353 0.813788 11.0942 0.748047 11.2598 0.748047C11.4254 0.748047 11.5843 0.813788 11.7015 0.93083Z" fill="#ED4C5C"/>
</svg>
