<svg width="50" height="55" viewBox="0 0 50 55" fill="none" xmlns="http://www.w3.org/2000/svg">
<g filter="url(#filter0_ddddd_1447_8534)">
<rect x="2.5" y="2.5" width="28.4721" height="28.4721" rx="4.9578" stroke="#0C74C2"/>
<path d="M13.3379 12.1246C13.3377 12.4562 13.2059 12.774 12.9713 13.0083C12.7368 13.2427 12.4188 13.3742 12.0873 13.374C11.7557 13.3739 11.4379 13.242 11.2036 13.0075C10.9693 12.7729 10.8377 12.4549 10.8379 12.1234C10.8381 11.7919 10.9699 11.474 11.2044 11.2397C11.439 11.0054 11.757 10.8739 12.0885 10.874C12.42 10.8742 12.7379 11.006 12.9722 11.2406C13.2065 11.4751 13.3381 11.7931 13.3379 12.1246ZM13.3754 14.2996H10.8754V22.1246H13.3754V14.2996ZM17.3254 14.2996H14.8379V22.1246H17.3004V18.0184C17.3004 15.7309 20.2816 15.5184 20.2816 18.0184V22.1246H22.7504V17.1684C22.7504 13.3121 18.3379 13.4559 17.3004 15.3496L17.3254 14.2996Z" fill="#0C74C2"/>
</g>
<defs>
<filter id="filter0_ddddd_1447_8534" x="0.0351937" y="0.38995" width="49.7201" height="53.7043" filterUnits="userSpaceOnUse" color-interpolation-filters="sRGB">
<feFlood flood-opacity="0" result="BackgroundImageFix"/>
<feColorMatrix in="SourceAlpha" type="matrix" values="0 0 0 0 0 0 0 0 0 0 0 0 0 0 0 0 0 0 127 0" result="hardAlpha"/>
<feOffset/>
<feColorMatrix type="matrix" values="0 0 0 0 0 0 0 0 0 0 0 0 0 0 0 0 0 0 0.1 0"/>
<feBlend mode="normal" in2="BackgroundImageFix" result="effect1_dropShadow_1447_8534"/>
<feColorMatrix in="SourceAlpha" type="matrix" values="0 0 0 0 0 0 0 0 0 0 0 0 0 0 0 0 0 0 127 0" result="hardAlpha"/>
<feOffset dx="0.682225" dy="0.955114"/>
<feGaussianBlur stdDeviation="1.28258"/>
<feColorMatrix type="matrix" values="0 0 0 0 0 0 0 0 0 0 0 0 0 0 0 0 0 0 0.1 0"/>
<feBlend mode="normal" in2="effect1_dropShadow_1447_8534" result="effect2_dropShadow_1447_8534"/>
<feColorMatrix in="SourceAlpha" type="matrix" values="0 0 0 0 0 0 0 0 0 0 0 0 0 0 0 0 0 0 127 0" result="hardAlpha"/>
<feOffset dx="2.70161" dy="3.79317"/>
<feGaussianBlur stdDeviation="2.33321"/>
<feColorMatrix type="matrix" values="0 0 0 0 0 0 0 0 0 0 0 0 0 0 0 0 0 0 0.09 0"/>
<feBlend mode="normal" in2="effect2_dropShadow_1447_8534" result="effect3_dropShadow_1447_8534"/>
<feColorMatrix in="SourceAlpha" type="matrix" values="0 0 0 0 0 0 0 0 0 0 0 0 0 0 0 0 0 0 127 0" result="hardAlpha"/>
<feOffset dx="6.11273" dy="8.54145"/>
<feGaussianBlur stdDeviation="3.15188"/>
<feColorMatrix type="matrix" values="0 0 0 0 0 0 0 0 0 0 0 0 0 0 0 0 0 0 0.05 0"/>
<feBlend mode="normal" in2="effect3_dropShadow_1447_8534" result="effect4_dropShadow_1447_8534"/>
<feColorMatrix in="SourceAlpha" type="matrix" values="0 0 0 0 0 0 0 0 0 0 0 0 0 0 0 0 0 0 127 0" result="hardAlpha"/>
<feOffset dx="10.8337" dy="15.1727"/>
<feGaussianBlur stdDeviation="3.72495"/>
<feColorMatrix type="matrix" values="0 0 0 0 0 0 0 0 0 0 0 0 0 0 0 0 0 0 0.01 0"/>
<feBlend mode="normal" in2="effect4_dropShadow_1447_8534" result="effect5_dropShadow_1447_8534"/>
<feBlend mode="normal" in="SourceGraphic" in2="effect5_dropShadow_1447_8534" result="shape"/>
</filter>
</defs>
</svg>
