<svg width="42" height="42" viewBox="0 0 80 80" fill="none" xmlns="http://www.w3.org/2000/svg">
<path d="M38.1974 3.79052C39.3674 3.41097 40.6274 3.41097 41.7974 3.79052L69.2974 12.7072C70.4693 13.0873 71.4907 13.8288 72.2153 14.8252C72.9398 15.8216 73.3303 17.0218 73.3307 18.2539V35.0005C73.3307 55.6339 60.7641 70.6839 41.9941 77.7672C40.7071 78.2517 39.2877 78.2517 38.0007 77.7672C19.2341 70.6805 6.66406 55.6339 6.66406 35.0005V18.2539C6.66406 15.7205 8.2974 13.4872 10.6974 12.7072L38.1974 3.79052ZM40.2541 8.54385C40.0872 8.48984 39.9076 8.48984 39.7407 8.54385L12.2407 17.4672C12.0736 17.5213 11.9279 17.6268 11.8243 17.7687C11.7207 17.9106 11.6647 18.0815 11.6641 18.2572V35.0005C11.6641 53.2038 22.5974 66.6105 39.7641 73.0872C39.9145 73.1434 40.0803 73.1434 40.2307 73.0872C57.3974 66.6105 68.3307 53.2038 68.3307 35.0005V18.2539C68.3301 18.0782 68.274 17.9072 68.1705 17.7654C68.0669 17.6235 67.9212 17.518 67.7541 17.4639L40.2541 8.54385ZM43.3307 40.7739V50.0005C43.3307 50.8846 42.9795 51.7324 42.3544 52.3575C41.7293 52.9827 40.8815 53.3339 39.9974 53.3339C39.1133 53.3339 38.2655 52.9827 37.6404 52.3575C37.0153 51.7324 36.6641 50.8846 36.6641 50.0005V40.7739C35.3931 40.0401 34.3998 38.9074 33.8382 37.5516C33.2766 36.1957 33.1781 34.6924 33.5579 33.2749C33.9377 31.8573 34.7747 30.6047 35.939 29.7113C37.1033 28.8179 38.5298 28.3337 39.9974 28.3337C41.465 28.3337 42.8915 28.8179 44.0558 29.7113C45.2201 30.6047 46.0571 31.8573 46.4369 33.2749C46.8167 34.6924 46.7182 36.1957 46.1566 37.5516C45.595 38.9074 44.6017 40.0401 43.3307 40.7739Z" fill="#24BEE0"/>
</svg>
